<svg width="93" height="44" viewBox="0 0 93 44" fill="none" xmlns="http://www.w3.org/2000/svg">
<rect width="93" height="44" rx="12" fill="#1F1A1A"/>
<path d="M17.512 27V17.76H20.802C21.894 17.76 22.692 17.9887 23.196 18.446C23.7 18.9033 23.952 19.524 23.952 20.308C23.952 20.7747 23.8167 21.1993 23.546 21.582C23.2753 21.9553 22.8927 22.1933 22.398 22.296V22.31C22.9487 22.4127 23.3827 22.6647 23.7 23.066C24.0267 23.458 24.19 23.906 24.19 24.41C24.19 25.194 23.896 25.824 23.308 26.3C22.72 26.7667 21.88 27 20.788 27H17.512ZM18.632 25.95H21.054C21.7167 25.95 22.2067 25.8147 22.524 25.544C22.8507 25.2733 23.014 24.8953 23.014 24.41C23.014 23.9153 22.8507 23.5373 22.524 23.276C22.2067 23.0053 21.7167 22.87 21.054 22.87H18.632V25.95ZM18.632 21.82H20.816C22.1227 21.82 22.776 21.316 22.776 20.308C22.776 19.3093 22.1227 18.81 20.816 18.81H18.632V21.82ZM29.6405 17.76C31.0872 17.76 32.2212 18.1613 33.0425 18.964C33.8732 19.7573 34.2885 20.896 34.2885 22.38C34.2885 23.864 33.8732 25.0073 33.0425 25.81C32.2212 26.6033 31.0872 27 29.6405 27H26.6585V17.76H29.6405ZM29.7525 25.95C30.8072 25.95 31.6285 25.6373 32.2165 25.012C32.8138 24.3773 33.1125 23.5 33.1125 22.38C33.1125 21.26 32.8138 20.3873 32.2165 19.762C31.6285 19.1273 30.8072 18.81 29.7525 18.81H27.7785V25.95H29.7525ZM45.6803 17.76V27H44.6163V21.19L44.7423 18.754H44.7283L41.6903 27H40.7383L37.7003 18.754H37.6863L37.8123 21.19V27H36.7483V17.76H38.4703L40.5003 23.374L41.2003 25.684H41.2283L41.9423 23.388L43.9583 17.76H45.6803ZM51.6655 17.62C52.4775 17.62 53.1775 17.788 53.7655 18.124C54.3535 18.4507 54.8435 18.936 55.2355 19.58L54.2975 20.308C53.9522 19.7107 53.5602 19.2907 53.1215 19.048C52.6922 18.796 52.1695 18.67 51.5535 18.67C51.0589 18.67 50.6482 18.74 50.3215 18.88C50.0042 19.02 49.7709 19.2067 49.6215 19.44C49.4722 19.664 49.3975 19.9207 49.3975 20.21C49.3975 20.5367 49.5002 20.826 49.7055 21.078C49.9109 21.3207 50.3215 21.512 50.9375 21.652L52.9395 22.1C53.8262 22.296 54.4422 22.5947 54.7875 22.996C55.1422 23.388 55.3195 23.878 55.3195 24.466C55.3195 24.9887 55.1702 25.4553 54.8715 25.866C54.5822 26.2673 54.1715 26.58 53.6395 26.804C53.1075 27.028 52.4822 27.14 51.7635 27.14C51.0915 27.14 50.4989 27.0513 49.9855 26.874C49.4815 26.6873 49.0475 26.44 48.6835 26.132C48.3195 25.824 48.0209 25.4787 47.7875 25.096L48.7675 24.298C48.9449 24.6527 49.1735 24.9653 49.4535 25.236C49.7335 25.5067 50.0695 25.7167 50.4615 25.866C50.8629 26.0153 51.3202 26.09 51.8335 26.09C52.3095 26.09 52.7202 26.034 53.0655 25.922C53.4202 25.8007 53.6909 25.628 53.8775 25.404C54.0642 25.1707 54.1575 24.8907 54.1575 24.564C54.1575 24.2653 54.0595 23.9993 53.8635 23.766C53.6675 23.5233 53.2989 23.3413 52.7575 23.22L50.5875 22.73C50.0182 22.5993 49.5562 22.422 49.2015 22.198C48.8562 21.9647 48.6042 21.694 48.4455 21.386C48.2962 21.0687 48.2215 20.728 48.2215 20.364C48.2215 19.8693 48.3569 19.4167 48.6275 19.006C48.9075 18.586 49.3042 18.25 49.8175 17.998C50.3402 17.746 50.9562 17.62 51.6655 17.62Z" fill="#B29A9A"/>
<path d="M67.6251 17.625L76.5262 26.4011" stroke="#B29A9A" stroke-width="1.2" stroke-linecap="round" stroke-linejoin="round"/>
<path d="M76.5261 17.625L67.625 26.4011" stroke="#B29A9A" stroke-width="1.2" stroke-linecap="round" stroke-linejoin="round"/>
</svg>
