<svg width="25" height="24" viewBox="0 0 25 24" fill="none" xmlns="http://www.w3.org/2000/svg">
<path d="M15.5 18.75H9.5C7.08 18.75 5.75 17.42 5.75 15V9C5.75 6.58 7.08 5.25 9.5 5.25H13.5C15.92 5.25 17.25 6.58 17.25 9V10C17.25 10.14 17.36 10.25 17.5 10.25C18.46 10.25 19.25 11.04 19.25 12V15C19.25 17.42 17.92 18.75 15.5 18.75ZM9.5 6.75C7.92 6.75 7.25 7.42 7.25 9V15C7.25 16.58 7.92 17.25 9.5 17.25H15.5C17.08 17.25 17.75 16.58 17.75 15V12C17.75 11.86 17.64 11.75 17.5 11.75C16.54 11.75 15.75 10.96 15.75 10V9C15.75 7.42 15.08 6.75 13.5 6.75H9.5Z" fill="#D2B6B6"/>
<path d="M12.5 10.75H10.5C10.09 10.75 9.75 10.41 9.75 10C9.75 9.59 10.09 9.25 10.5 9.25H12.5C12.91 9.25 13.25 9.59 13.25 10C13.25 10.41 12.91 10.75 12.5 10.75Z" fill="#D2B6B6"/>
<path d="M14.5 14.75H10.5C10.09 14.75 9.75 14.41 9.75 14C9.75 13.59 10.09 13.25 10.5 13.25H14.5C14.91 13.25 15.25 13.59 15.25 14C15.25 14.41 14.91 14.75 14.5 14.75Z" fill="#D2B6B6"/>
<path d="M15.5 22.75H9.5C4.07 22.75 1.75 20.43 1.75 15V9C1.75 3.57 4.07 1.25 9.5 1.25H15.5C20.93 1.25 23.25 3.57 23.25 9V15C23.25 20.43 20.93 22.75 15.5 22.75ZM9.5 2.75C4.89 2.75 3.25 4.39 3.25 9V15C3.25 19.61 4.89 21.25 9.5 21.25H15.5C20.11 21.25 21.75 19.61 21.75 15V9C21.75 4.39 20.11 2.75 15.5 2.75H9.5Z" fill="#D2B6B6"/>
</svg>
