<svg width="31" height="30" viewBox="0 0 31 30" fill="none" xmlns="http://www.w3.org/2000/svg">
<path d="M15.4992 27.6C15.1242 27.6 14.7492 27.5125 14.4367 27.3375C12.0992 26.0625 7.99921 24.7125 5.42421 24.375L5.06174 24.325C3.42424 24.125 2.07422 22.5875 2.07422 20.925V5.82498C2.07422 4.83748 2.46172 3.93752 3.17422 3.28752C3.88672 2.63752 4.81168 2.32501 5.78668 2.41251C8.52418 2.63751 12.6742 4.01252 15.0242 5.47502L15.3242 5.65004C15.4117 5.68754 15.5992 5.70004 15.6742 5.65004L15.8742 5.525C16.7117 5 17.7617 4.48748 18.9117 4.02498C19.1992 3.91248 19.5242 3.95 19.7867 4.125C20.0492 4.3 20.1992 4.5875 20.1992 4.9V8.24999L21.2367 7.5625C21.5492 7.35 21.9617 7.35 22.2742 7.5625L23.3117 8.24999V3.47505C23.3117 3.02505 23.6367 2.63749 24.0742 2.54999C24.4367 2.48749 24.7992 2.43751 25.1242 2.41251C25.1492 2.41251 25.2492 2.41251 25.2742 2.41251C26.1867 2.33751 27.1242 2.65004 27.8242 3.30004C28.5367 3.95004 28.9242 4.85 28.9242 5.8375V20.925C28.9242 22.6 27.5742 24.125 25.9242 24.325L25.5117 24.375C22.9367 24.7125 18.8117 26.075 16.5242 27.3375C16.2492 27.5125 15.8742 27.6 15.4992 27.6ZM5.47418 4.26248C5.07418 4.26248 4.71172 4.39999 4.42422 4.66249C4.11172 4.94999 3.93671 5.36248 3.93671 5.82498V20.925C3.93671 21.6625 4.57423 22.375 5.28673 22.475L5.66171 22.525C8.47421 22.9 12.7867 24.3125 15.2867 25.6875C15.3992 25.7375 15.5617 25.75 15.6242 25.725C18.1367 24.3375 22.4617 22.9126 25.2867 22.5376L25.7117 22.4875C26.4242 22.4 27.0617 21.675 27.0617 20.9375V5.85001C27.0617 5.38751 26.8867 4.98752 26.5742 4.68752C26.2617 4.40002 25.8242 4.26251 25.3742 4.28751C25.3367 4.28751 25.2242 4.28751 25.1992 4.28751V10C25.1992 10.35 25.0117 10.6625 24.6992 10.825C24.3867 10.9875 24.0242 10.975 23.7367 10.775L21.7617 9.46253L19.7867 10.775C19.4992 10.9625 19.1367 10.9875 18.8242 10.825C18.5242 10.6625 18.3242 10.35 18.3242 10V6.33753C17.7867 6.60003 17.2992 6.86252 16.8742 7.11252L16.6742 7.23749C15.9867 7.66249 15.0117 7.6625 14.3492 7.25L14.0492 7.06255C11.9367 5.73755 8.08669 4.46248 5.63669 4.26248C5.57419 4.26248 5.52418 4.26248 5.47418 4.26248Z" fill="#E9CB50"/>
<path d="M15.5 26.55C14.9875 26.55 14.5625 26.125 14.5625 25.6125V6.86249C14.5625 6.34999 14.9875 5.92499 15.5 5.92499C16.0125 5.92499 16.4375 6.34999 16.4375 6.86249V25.6125C16.4375 26.1375 16.0125 26.55 15.5 26.55Z" fill="#E9CB50"/>
<path d="M24.25 10.9375C24.0625 10.9375 23.8875 10.8875 23.725 10.775L21.75 9.46249L19.775 10.775C19.4875 10.9625 19.125 10.9875 18.8125 10.825C18.5125 10.6625 18.3125 10.35 18.3125 9.99999V4.89996C18.3125 4.51246 18.55 4.17495 18.9 4.02495C20.625 3.33745 22.5125 2.79996 24.1 2.54996C24.375 2.49996 24.65 2.58751 24.8625 2.76251C25.075 2.93751 25.1875 3.20002 25.1875 3.47502V9.99999C25.1875 10.35 25 10.6625 24.6875 10.825C24.55 10.9 24.4 10.9375 24.25 10.9375ZM21.75 7.39996C21.925 7.39996 22.1125 7.44997 22.275 7.56247L23.3125 8.24996V4.61249C22.3125 4.83749 21.225 5.16249 20.1875 5.54999V8.24996L21.225 7.56247C21.3875 7.44997 21.575 7.39996 21.75 7.39996Z" fill="#E9CB50"/>
</svg>
