<svg width="25" height="24" viewBox="0 0 25 24" fill="none" xmlns="http://www.w3.org/2000/svg">
<path d="M12.4998 22.08C12.1998 22.08 11.8998 22.01 11.6498 21.87C9.77978 20.85 6.49976 19.77 4.43976 19.5L4.14978 19.46C2.83978 19.3 1.75977 18.07 1.75977 16.74V4.65999C1.75977 3.86999 2.06977 3.15002 2.63977 2.63002C3.20977 2.11002 3.94974 1.86001 4.72974 1.93001C6.91974 2.11001 10.2398 3.21002 12.1198 4.38002L12.3597 4.52003C12.4297 4.55003 12.5798 4.56003 12.6398 4.52003L12.7997 4.42C13.4697 4 14.3097 3.58999 15.2297 3.21999C15.4597 3.12999 15.7197 3.16 15.9297 3.3C16.1397 3.44 16.2598 3.67 16.2598 3.92V6.59999L17.0898 6.05C17.3398 5.88 17.6697 5.88 17.9197 6.05L18.7498 6.59999V2.78004C18.7498 2.42004 19.0097 2.10999 19.3597 2.03999C19.6497 1.98999 19.9398 1.95001 20.1998 1.93001C20.2198 1.93001 20.2998 1.93001 20.3198 1.93001C21.0498 1.87001 21.7997 2.12003 22.3597 2.64003C22.9297 3.16003 23.2397 3.88 23.2397 4.67V16.74C23.2397 18.08 22.1598 19.3 20.8398 19.46L20.5098 19.5C18.4498 19.77 15.1498 20.86 13.3198 21.87C13.0998 22.01 12.7998 22.08 12.4998 22.08ZM4.47974 3.40999C4.15974 3.40999 3.86977 3.51999 3.63977 3.73C3.38977 3.96 3.24976 4.28999 3.24976 4.65999V16.74C3.24976 17.33 3.75977 17.9 4.32977 17.98L4.62976 18.02C6.87976 18.32 10.3298 19.45 12.3298 20.55C12.4198 20.59 12.5497 20.6 12.5997 20.58C14.6097 19.47 18.0698 18.33 20.3298 18.03L20.6697 17.99C21.2397 17.92 21.7498 17.34 21.7498 16.75V4.68001C21.7498 4.31001 21.6097 3.99001 21.3597 3.75001C21.1097 3.52001 20.7598 3.41001 20.3998 3.43001C20.3698 3.43001 20.2798 3.43001 20.2598 3.43001V8.00001C20.2598 8.28001 20.1097 8.52999 19.8597 8.65999C19.6097 8.78999 19.3198 8.78001 19.0898 8.62001L17.5098 7.57002L15.9297 8.62001C15.6997 8.77001 15.4097 8.78999 15.1597 8.65999C14.9197 8.52999 14.7598 8.28001 14.7598 8.00001V5.07002C14.3298 5.28002 13.9397 5.49002 13.5997 5.69002L13.4398 5.78999C12.8898 6.12999 12.1098 6.13 11.5798 5.8L11.3398 5.65004C9.64978 4.59004 6.56974 3.56999 4.60974 3.40999C4.55974 3.40999 4.51974 3.40999 4.47974 3.40999Z" fill="#D2B6B6"/>
<path d="M12.5 21.2402C12.09 21.2402 11.75 20.9002 11.75 20.4902V5.49023C11.75 5.08023 12.09 4.74023 12.5 4.74023C12.91 4.74023 13.25 5.08023 13.25 5.49023V20.4902C13.25 20.9102 12.91 21.2402 12.5 21.2402Z" fill="#D2B6B6"/>
<path d="M19.5 8.74999C19.35 8.74999 19.21 8.70998 19.08 8.61998L17.5 7.57L15.92 8.61998C15.69 8.76998 15.4 8.78996 15.15 8.65996C14.91 8.52996 14.75 8.27999 14.75 7.99999V3.91997C14.75 3.60997 14.94 3.33996 15.22 3.21996C16.6 2.66996 18.11 2.23997 19.38 2.03997C19.6 1.99997 19.82 2.07001 19.99 2.21001C20.16 2.35001 20.25 2.56002 20.25 2.78002V7.99999C20.25 8.27999 20.1 8.52996 19.85 8.65996C19.74 8.71996 19.62 8.74999 19.5 8.74999ZM17.5 5.91997C17.64 5.91997 17.79 5.95998 17.92 6.04998L18.75 6.59996V3.68999C17.95 3.86999 17.08 4.12999 16.25 4.43999V6.59996L17.08 6.04998C17.21 5.95998 17.36 5.91997 17.5 5.91997Z" fill="#D2B6B6"/>
</svg>
