<svg width="14" height="14" viewBox="0 0 14 14" fill="none" xmlns="http://www.w3.org/2000/svg">
<path d="M4.66663 3.354C4.42746 3.354 4.22913 3.15567 4.22913 2.9165V1.1665C4.22913 0.927337 4.42746 0.729004 4.66663 0.729004C4.90579 0.729004 5.10413 0.927337 5.10413 1.1665V2.9165C5.10413 3.15567 4.90579 3.354 4.66663 3.354Z" fill="white"/>
<path d="M9.33337 3.354C9.09421 3.354 8.89587 3.15567 8.89587 2.9165V1.1665C8.89587 0.927337 9.09421 0.729004 9.33337 0.729004C9.57254 0.729004 9.77087 0.927337 9.77087 1.1665V2.9165C9.77087 3.15567 9.57254 3.354 9.33337 3.354Z" fill="white"/>
<path d="M4.95833 8.4582C4.80667 8.4582 4.655 8.39403 4.54417 8.28903C4.43917 8.17819 4.375 8.03236 4.375 7.87486C4.375 7.79903 4.3925 7.7232 4.42167 7.6532C4.45083 7.5832 4.49167 7.51904 4.54417 7.4607C4.76 7.24487 5.15083 7.24487 5.3725 7.4607C5.4775 7.57154 5.54167 7.7232 5.54167 7.87486C5.54167 7.90986 5.53584 7.95071 5.53 7.99154C5.52417 8.02654 5.5125 8.06153 5.495 8.09653C5.48333 8.13153 5.46583 8.16653 5.4425 8.20153C5.41917 8.2307 5.39583 8.25986 5.3725 8.28903C5.26167 8.39403 5.11 8.4582 4.95833 8.4582Z" fill="white"/>
<path d="M6.99996 8.45835C6.92413 8.45835 6.84829 8.44086 6.77829 8.41169C6.70246 8.38253 6.64413 8.34168 6.58579 8.28918C6.48079 8.17835 6.41663 8.03252 6.41663 7.87502C6.41663 7.79919 6.43413 7.72335 6.46329 7.65335C6.49246 7.58335 6.53329 7.51919 6.58579 7.46086C6.64413 7.40836 6.70246 7.36751 6.77829 7.33834C6.99413 7.25084 7.25079 7.29752 7.41413 7.46086C7.51913 7.57169 7.58329 7.72335 7.58329 7.87502C7.58329 7.91002 7.57746 7.95086 7.57163 7.99169C7.56579 8.02669 7.55412 8.06169 7.53662 8.09669C7.52496 8.13169 7.50746 8.16668 7.48413 8.20168C7.46663 8.23085 7.43746 8.26001 7.41413 8.28918C7.30329 8.39418 7.15163 8.45835 6.99996 8.45835Z" fill="white"/>
<path d="M4.95833 10.5C4.8825 10.5 4.80667 10.4825 4.73667 10.4533C4.66083 10.4241 4.59667 10.3833 4.54417 10.3308C4.49167 10.2783 4.45083 10.2141 4.42167 10.1383C4.3925 10.0683 4.375 9.99246 4.375 9.91662C4.375 9.84079 4.3925 9.76495 4.42167 9.69495C4.45083 9.61912 4.49167 9.55496 4.54417 9.50246C4.59667 9.44996 4.66083 9.40911 4.73667 9.37995C4.87667 9.32161 5.04 9.31578 5.18 9.37995C5.25583 9.40911 5.32 9.44996 5.3725 9.50246C5.425 9.55496 5.46583 9.61912 5.495 9.69495C5.52417 9.76495 5.54167 9.84079 5.54167 9.91662C5.54167 9.99246 5.52417 10.0683 5.495 10.1383C5.46583 10.2141 5.425 10.2783 5.3725 10.3308C5.32 10.3833 5.25583 10.4241 5.18 10.4533C5.11 10.4825 5.03417 10.5 4.95833 10.5Z" fill="white"/>
<path d="M11.9583 5.73975H2.04163C1.80246 5.73975 1.60413 5.54141 1.60413 5.30225C1.60413 5.06308 1.80246 4.86475 2.04163 4.86475H11.9583C12.1975 4.86475 12.3958 5.06308 12.3958 5.30225C12.3958 5.54141 12.1975 5.73975 11.9583 5.73975Z" fill="white"/>
<path d="M10.5 13.8542C9.81746 13.8542 9.16996 13.6092 8.67413 13.16C8.46413 12.985 8.27746 12.7633 8.12579 12.5067C7.86913 12.0867 7.72913 11.5908 7.72913 11.0833C7.72913 9.555 8.97163 8.3125 10.5 8.3125C11.2933 8.3125 12.0516 8.65666 12.5766 9.25166C13.0258 9.76499 13.2708 10.4125 13.2708 11.0833C13.2708 11.5908 13.1308 12.0867 12.8683 12.5125C12.3783 13.3408 11.4683 13.8542 10.5 13.8542ZM10.5 9.1875C9.45579 9.1875 8.60413 10.0392 8.60413 11.0833C8.60413 11.4275 8.69746 11.7658 8.87829 12.0575C8.97746 12.2325 9.10579 12.3783 9.24579 12.5008C9.59579 12.8158 10.0333 12.9792 10.5 12.9792C11.1708 12.9792 11.7775 12.635 12.1216 12.0633C12.3025 11.7658 12.3958 11.4333 12.3958 11.0833C12.3958 10.6283 12.2266 10.185 11.9233 9.82917C11.5616 9.42084 11.0425 9.1875 10.5 9.1875Z" fill="white"/>
<path d="M10.1675 12.0982C10.0566 12.0982 9.9458 12.0574 9.8583 11.9699L9.28081 11.3924C9.11164 11.2232 9.11164 10.9432 9.28081 10.7741C9.44997 10.6049 9.72997 10.6049 9.89914 10.7741L10.1791 11.0541L11.1125 10.1907C11.2875 10.0274 11.5675 10.0391 11.7308 10.2141C11.8941 10.3891 11.8825 10.6691 11.7075 10.8324L10.465 11.9816C10.3775 12.0574 10.2725 12.0982 10.1675 12.0982Z" fill="white"/>
<path d="M8.96583 13.2707H4.66667C2.5375 13.2707 1.3125 12.0457 1.3125 9.9165V4.95817C1.3125 2.829 2.5375 1.604 4.66667 1.604H9.33333C11.4625 1.604 12.6875 2.829 12.6875 4.95817V9.54316C12.6875 9.724 12.5767 9.88734 12.4017 9.9515C12.2325 10.0157 12.04 9.96901 11.9175 9.82901C11.5558 9.42067 11.0367 9.18734 10.4942 9.18734C9.45 9.18734 8.59833 10.039 8.59833 11.0832C8.59833 11.4273 8.69167 11.7657 8.8725 12.0573C8.97167 12.2323 9.1 12.3782 9.24 12.5007C9.38 12.6173 9.4325 12.8098 9.36833 12.9848C9.31583 13.154 9.1525 13.2707 8.96583 13.2707ZM4.66667 2.479C2.99833 2.479 2.1875 3.28984 2.1875 4.95817V9.9165C2.1875 11.5848 2.99833 12.3957 4.66667 12.3957H8.06167C7.84583 11.999 7.72917 11.5498 7.72917 11.0832C7.72917 9.55484 8.97167 8.31234 10.5 8.31234C10.9608 8.31234 11.4158 8.42901 11.8125 8.64484V4.95817C11.8125 3.28984 11.0017 2.479 9.33333 2.479H4.66667Z" fill="white"/>
</svg>
