<svg width="23" height="24" viewBox="0 0 23 24" fill="none" xmlns="http://www.w3.org/2000/svg">
<path d="M20.6334 7.47718L9.13343 18.9772C9.06667 19.044 8.9874 19.097 8.90015 19.1332C8.81289 19.1694 8.71937 19.188 8.62491 19.188C8.53046 19.188 8.43693 19.1694 8.34967 19.1332C8.26242 19.097 8.18315 19.044 8.1164 18.9772L3.08515 13.9459C2.95028 13.8111 2.87451 13.6281 2.87451 13.4374C2.87451 13.2467 2.95028 13.0638 3.08515 12.9289C3.22001 12.794 3.40293 12.7183 3.59366 12.7183C3.78439 12.7183 3.96731 12.794 4.10218 12.9289L8.62491 17.4525L19.6164 6.46015C19.7513 6.32528 19.9342 6.24951 20.1249 6.24951C20.3156 6.24951 20.4986 6.32528 20.6334 6.46015C20.7683 6.59501 20.8441 6.77793 20.8441 6.96866C20.8441 7.15939 20.7683 7.34231 20.6334 7.47718Z" fill="#35D79C"/>
</svg>
