<svg width="14" height="15" viewBox="0 0 14 15" fill="none" xmlns="http://www.w3.org/2000/svg">
<path d="M6.99984 13.7707C3.54067 13.7707 0.729004 10.959 0.729004 7.49984C0.729004 4.04067 3.54067 1.229 6.99984 1.229C10.459 1.229 13.2707 4.04067 13.2707 7.49984C13.2707 10.959 10.459 13.7707 6.99984 13.7707ZM6.99984 2.104C4.02484 2.104 1.604 4.52484 1.604 7.49984C1.604 10.4748 4.02484 12.8957 6.99984 12.8957C9.97484 12.8957 12.3957 10.4748 12.3957 7.49984C12.3957 4.52484 9.97484 2.104 6.99984 2.104Z" fill="white"/>
<path d="M9.16421 9.79253C9.08837 9.79253 9.01254 9.77503 8.94254 9.72836L7.13421 8.64919C6.68504 8.38086 6.35254 7.79169 6.35254 7.27253V4.88086C6.35254 4.64169 6.55087 4.44336 6.79004 4.44336C7.02921 4.44336 7.22754 4.64169 7.22754 4.88086V7.27253C7.22754 7.48253 7.40254 7.79169 7.58337 7.89669L9.39171 8.97586C9.60171 9.09836 9.66587 9.36669 9.54337 9.57669C9.45587 9.71669 9.31004 9.79253 9.16421 9.79253Z" fill="white"/>
</svg>
