<svg width="151" height="46" viewBox="0 0 151 46" fill="none" xmlns="http://www.w3.org/2000/svg">
<rect x="0.84375" width="150" height="46" rx="12" fill="#1F1A1A"/>
<path d="M19.0998 26.1H23.6358V27H18.1398V19.08H19.0998V26.1ZM28.6356 23.124C28.6356 22.676 28.5156 22.332 28.2756 22.092C28.0356 21.844 27.6956 21.72 27.2556 21.72C26.8396 21.72 26.4876 21.812 26.1996 21.996C25.9116 22.172 25.6996 22.46 25.5636 22.86L24.7836 22.38C24.9436 21.932 25.2396 21.572 25.6716 21.3C26.1036 21.02 26.6396 20.88 27.2796 20.88C27.7116 20.88 28.1036 20.956 28.4556 21.108C28.8076 21.252 29.0836 21.476 29.2836 21.78C29.4916 22.076 29.5956 22.46 29.5956 22.932V25.836C29.5956 26.124 29.7476 26.268 30.0516 26.268C30.2036 26.268 30.3516 26.248 30.4956 26.208L30.4476 26.964C30.2876 27.044 30.0796 27.084 29.8236 27.084C29.5916 27.084 29.3836 27.04 29.1996 26.952C29.0156 26.864 28.8716 26.732 28.7676 26.556C28.6636 26.372 28.6116 26.144 28.6116 25.872V25.752L28.8516 25.788C28.7556 26.1 28.5916 26.356 28.3596 26.556C28.1276 26.748 27.8676 26.892 27.5796 26.988C27.2916 27.076 27.0076 27.12 26.7276 27.12C26.3756 27.12 26.0476 27.06 25.7436 26.94C25.4396 26.82 25.1956 26.64 25.0116 26.4C24.8356 26.152 24.7476 25.848 24.7476 25.488C24.7476 25.04 24.8956 24.672 25.1916 24.384C25.4956 24.088 25.9156 23.888 26.4516 23.784L28.8276 23.316V24.108L26.8956 24.504C26.5036 24.584 26.2116 24.696 26.0196 24.84C25.8276 24.984 25.7316 25.184 25.7316 25.44C25.7316 25.688 25.8276 25.892 26.0196 26.052C26.2196 26.204 26.4996 26.28 26.8596 26.28C27.0916 26.28 27.3116 26.252 27.5196 26.196C27.7356 26.132 27.9276 26.04 28.0956 25.92C28.2636 25.792 28.3956 25.636 28.4916 25.452C28.5876 25.26 28.6356 25.036 28.6356 24.78V23.124ZM33.1101 19.296V25.344C33.1101 25.64 33.1941 25.86 33.3621 26.004C33.5301 26.148 33.7461 26.22 34.0101 26.22C34.2421 26.22 34.4421 26.18 34.6101 26.1C34.7781 26.02 34.9301 25.912 35.0661 25.776L35.4021 26.58C35.2181 26.748 34.9981 26.88 34.7421 26.976C34.4941 27.072 34.2061 27.12 33.8781 27.12C33.5741 27.12 33.2901 27.068 33.0261 26.964C32.7621 26.852 32.5501 26.68 32.3901 26.448C32.2381 26.208 32.1581 25.896 32.1501 25.512V19.56L33.1101 19.296ZM35.2941 21V21.828H30.9501V21H35.2941ZM39.2295 27.12C38.6615 27.12 38.1535 26.996 37.7055 26.748C37.2655 26.5 36.9215 26.144 36.6735 25.68C36.4255 25.208 36.3015 24.648 36.3015 24C36.3015 23.352 36.4255 22.796 36.6735 22.332C36.9215 21.86 37.2615 21.5 37.6935 21.252C38.1255 21.004 38.6175 20.88 39.1695 20.88C39.7295 20.88 40.2055 21 40.5975 21.24C40.9975 21.48 41.3015 21.808 41.5095 22.224C41.7175 22.632 41.8215 23.092 41.8215 23.604C41.8215 23.74 41.8175 23.864 41.8095 23.976C41.8015 24.088 41.7895 24.188 41.7735 24.276H36.9255V23.424H41.3535L40.8615 23.52C40.8615 22.944 40.7015 22.5 40.3815 22.188C40.0695 21.876 39.6575 21.72 39.1455 21.72C38.7535 21.72 38.4135 21.812 38.1255 21.996C37.8455 22.172 37.6255 22.432 37.4655 22.776C37.3135 23.112 37.2375 23.52 37.2375 24C37.2375 24.472 37.3175 24.88 37.4775 25.224C37.6375 25.568 37.8615 25.832 38.1495 26.016C38.4455 26.192 38.7975 26.28 39.2055 26.28C39.6455 26.28 40.0015 26.196 40.2735 26.028C40.5535 25.86 40.7775 25.632 40.9455 25.344L41.7015 25.788C41.5495 26.06 41.3535 26.296 41.1135 26.496C40.8815 26.696 40.6055 26.852 40.2855 26.964C39.9735 27.068 39.6215 27.12 39.2295 27.12ZM45.8073 27.12C45.2233 27.12 44.6833 26.996 44.1873 26.748C43.6993 26.5 43.3233 26.148 43.0593 25.692L43.8753 25.104C44.0513 25.472 44.3073 25.76 44.6433 25.968C44.9873 26.176 45.3993 26.28 45.8793 26.28C46.3033 26.28 46.6353 26.2 46.8753 26.04C47.1153 25.872 47.2353 25.656 47.2353 25.392C47.2353 25.224 47.1793 25.072 47.0673 24.936C46.9633 24.792 46.7593 24.688 46.4553 24.624L45.0153 24.324C44.4313 24.204 44.0113 24.004 43.7553 23.724C43.5073 23.444 43.3833 23.096 43.3833 22.68C43.3833 22.352 43.4753 22.052 43.6593 21.78C43.8513 21.508 44.1193 21.292 44.4633 21.132C44.8153 20.964 45.2273 20.88 45.6992 20.88C46.2913 20.88 46.7913 20.996 47.1993 21.228C47.6073 21.46 47.9113 21.788 48.1113 22.212L47.3073 22.74C47.1713 22.388 46.9513 22.132 46.6473 21.972C46.3433 21.804 46.0273 21.72 45.6992 21.72C45.4113 21.72 45.1633 21.76 44.9553 21.84C44.7553 21.92 44.5993 22.032 44.4873 22.176C44.3833 22.312 44.3313 22.468 44.3313 22.644C44.3313 22.82 44.3913 22.984 44.5113 23.136C44.6313 23.28 44.8553 23.384 45.1833 23.448L46.6833 23.76C47.2433 23.872 47.6353 24.056 47.8593 24.312C48.0833 24.568 48.1953 24.88 48.1953 25.248C48.1953 25.624 48.0953 25.956 47.8953 26.244C47.6953 26.524 47.4153 26.74 47.0553 26.892C46.6953 27.044 46.2793 27.12 45.8073 27.12ZM51.3914 19.296V25.344C51.3914 25.64 51.4754 25.86 51.6434 26.004C51.8114 26.148 52.0274 26.22 52.2914 26.22C52.5234 26.22 52.7234 26.18 52.8914 26.1C53.0594 26.02 53.2114 25.912 53.3474 25.776L53.6834 26.58C53.4994 26.748 53.2794 26.88 53.0234 26.976C52.7754 27.072 52.4874 27.12 52.1594 27.12C51.8554 27.12 51.5714 27.068 51.3074 26.964C51.0434 26.852 50.8314 26.68 50.6714 26.448C50.5194 26.208 50.4394 25.896 50.4314 25.512V19.56L51.3914 19.296ZM53.5754 21V21.828H49.2314V21H53.5754Z" fill="#B29A9A"/>
<path d="M125.433 15.7441C125.277 15.5878 125.065 15.5 124.844 15.5C124.623 15.5 124.411 15.5878 124.255 15.7441L119.255 20.7441C118.929 21.0695 118.929 21.5972 119.255 21.9226C119.58 22.248 120.108 22.248 120.433 21.9226L124.844 17.5118L129.255 21.9226C129.58 22.248 130.108 22.248 130.433 21.9226C130.759 21.5972 130.759 21.0695 130.433 20.7441L125.433 15.7441Z" fill="#B29A9A"/>
<path d="M125.433 31.0893C125.277 31.2455 125.065 31.3333 124.844 31.3333C124.623 31.3333 124.411 31.2455 124.255 31.0893L119.255 26.0893C118.929 25.7638 118.929 25.2362 119.255 24.9107C119.58 24.5853 120.108 24.5853 120.433 24.9107L124.844 29.3215L129.255 24.9107C129.58 24.5853 130.108 24.5853 130.433 24.9107C130.759 25.2362 130.759 25.7638 130.433 26.0893L125.433 31.0893Z" fill="#B29A9A"/>
</svg>
