<svg width="15" height="14" viewBox="0 0 15 14" fill="none" xmlns="http://www.w3.org/2000/svg">
<path d="M6.80006 12.8917C6.6309 12.8917 6.46173 12.8626 6.30423 12.8042C5.57506 12.5651 5.1084 11.7601 5.27173 11.0134L5.55756 9.1759C5.5634 9.13507 5.5634 9.07673 5.52256 9.03006C5.4934 9.0009 5.45256 8.9834 5.4059 8.9834H3.07256C2.5009 8.9834 2.00506 8.74423 1.7134 8.33006C1.42756 7.92757 1.36923 7.39673 1.5559 6.8834L2.95006 2.63673C3.1659 1.7909 4.07006 1.1084 5.0034 1.1084H7.22006C7.54673 1.1084 8.2584 1.20757 8.63756 1.58673L10.4051 2.95173L9.8684 3.6459L8.06006 2.2459C7.91423 2.10007 7.54673 1.9834 7.22006 1.9834H5.0034C4.4784 1.9834 3.91256 2.4034 3.7959 2.8759L2.38423 7.1634C2.2909 7.42006 2.3084 7.6534 2.4309 7.82257C2.55923 8.0034 2.79256 8.1084 3.0784 8.1084H5.41173C5.71506 8.1084 5.99506 8.23673 6.18756 8.4584C6.3859 8.6859 6.4734 8.98923 6.42673 9.30423L6.13506 11.1767C6.06506 11.5034 6.28673 11.8709 6.60173 11.9759C6.88173 12.0809 7.25506 11.9292 7.3834 11.7426L9.77506 8.18423L10.4984 8.67423L8.10673 12.2326C7.83256 12.6409 7.3134 12.8917 6.80006 12.8917Z" fill="#D2B6B6"/>
<path d="M11.9451 10.5583H11.3617C10.2826 10.5583 9.75757 10.0508 9.75757 9.0125V3.29583C9.75757 2.2575 10.2826 1.75 11.3617 1.75H11.9451C13.0242 1.75 13.5492 2.2575 13.5492 3.29583V9.0125C13.5492 10.0508 13.0242 10.5583 11.9451 10.5583ZM11.3617 2.625C10.7259 2.625 10.6326 2.77667 10.6326 3.29583V9.0125C10.6326 9.53167 10.7259 9.68333 11.3617 9.68333H11.9451C12.5809 9.68333 12.6742 9.53167 12.6742 9.0125V3.29583C12.6742 2.77667 12.5809 2.625 11.9451 2.625H11.3617Z" fill="#D2B6B6"/>
</svg>
