<svg width="151" height="46" viewBox="0 0 151 46" fill="none" xmlns="http://www.w3.org/2000/svg">
<rect x="0.84375" width="150" height="46" rx="12" fill="#1F1A1A"/>
<path d="M20.6838 18.96C21.3798 18.96 21.9798 19.104 22.4838 19.392C22.9878 19.672 23.4078 20.088 23.7438 20.64L22.9398 21.264C22.6438 20.752 22.3078 20.392 21.9318 20.184C21.5638 19.968 21.1158 19.86 20.5878 19.86C20.1638 19.86 19.8118 19.92 19.5318 20.04C19.2598 20.16 19.0598 20.32 18.9318 20.52C18.8038 20.712 18.7398 20.932 18.7398 21.18C18.7398 21.46 18.8278 21.708 19.0038 21.924C19.1798 22.132 19.5318 22.296 20.0598 22.416L21.7758 22.8C22.5358 22.968 23.0638 23.224 23.3598 23.568C23.6638 23.904 23.8158 24.324 23.8158 24.828C23.8158 25.276 23.6878 25.676 23.4318 26.028C23.1838 26.372 22.8318 26.64 22.3758 26.832C21.9198 27.024 21.3838 27.12 20.7678 27.12C20.1918 27.12 19.6838 27.044 19.2438 26.892C18.8118 26.732 18.4398 26.52 18.1278 26.256C17.8158 25.992 17.5598 25.696 17.3598 25.368L18.1998 24.684C18.3518 24.988 18.5477 25.256 18.7878 25.488C19.0278 25.72 19.3158 25.9 19.6518 26.028C19.9958 26.156 20.3878 26.22 20.8278 26.22C21.2358 26.22 21.5878 26.172 21.8838 26.076C22.1878 25.972 22.4198 25.824 22.5798 25.632C22.7398 25.432 22.8198 25.192 22.8198 24.912C22.8198 24.656 22.7358 24.428 22.5678 24.228C22.3998 24.02 22.0838 23.864 21.6198 23.76L19.7598 23.34C19.2718 23.228 18.8758 23.076 18.5718 22.884C18.2758 22.684 18.0598 22.452 17.9238 22.188C17.7958 21.916 17.7318 21.624 17.7318 21.312C17.7318 20.888 17.8478 20.5 18.0798 20.148C18.3198 19.788 18.6598 19.5 19.0998 19.284C19.5478 19.068 20.0758 18.96 20.6838 18.96ZM28.1313 20.88C28.6993 20.88 29.1993 21.004 29.6313 21.252C30.0713 21.5 30.4153 21.86 30.6633 22.332C30.9113 22.796 31.0353 23.352 31.0353 24C31.0353 24.648 30.9113 25.208 30.6633 25.68C30.4153 26.144 30.0713 26.5 29.6313 26.748C29.1993 26.996 28.6993 27.12 28.1313 27.12C27.5713 27.12 27.0713 26.996 26.6313 26.748C26.1913 26.5 25.8473 26.144 25.5993 25.68C25.3513 25.208 25.2273 24.648 25.2273 24C25.2273 23.352 25.3513 22.796 25.5993 22.332C25.8473 21.86 26.1913 21.5 26.6313 21.252C27.0713 21.004 27.5713 20.88 28.1313 20.88ZM28.1313 21.708C27.7233 21.708 27.3753 21.8 27.0873 21.984C26.7993 22.168 26.5753 22.432 26.4153 22.776C26.2633 23.112 26.1873 23.52 26.1873 24C26.1873 24.472 26.2633 24.88 26.4153 25.224C26.5753 25.568 26.7993 25.832 27.0873 26.016C27.3753 26.2 27.7233 26.292 28.1313 26.292C28.5393 26.292 28.8873 26.2 29.1753 26.016C29.4633 25.832 29.6833 25.568 29.8353 25.224C29.9953 24.88 30.0753 24.472 30.0753 24C30.0753 23.52 29.9953 23.112 29.8353 22.776C29.6833 22.432 29.4633 22.168 29.1753 21.984C28.8873 21.8 28.5393 21.708 28.1313 21.708ZM35.3266 20.88C35.8946 20.88 36.3946 21.004 36.8266 21.252C37.2666 21.5 37.6106 21.86 37.8586 22.332C38.1066 22.796 38.2306 23.352 38.2306 24C38.2306 24.648 38.1066 25.208 37.8586 25.68C37.6106 26.144 37.2666 26.5 36.8266 26.748C36.3946 26.996 35.8946 27.12 35.3266 27.12C34.7666 27.12 34.2666 26.996 33.8266 26.748C33.3866 26.5 33.0426 26.144 32.7946 25.68C32.5466 25.208 32.4226 24.648 32.4226 24C32.4226 23.352 32.5466 22.796 32.7946 22.332C33.0426 21.86 33.3866 21.5 33.8266 21.252C34.2666 21.004 34.7666 20.88 35.3266 20.88ZM35.3266 21.708C34.9186 21.708 34.5706 21.8 34.2826 21.984C33.9946 22.168 33.7706 22.432 33.6106 22.776C33.4586 23.112 33.3826 23.52 33.3826 24C33.3826 24.472 33.4586 24.88 33.6106 25.224C33.7706 25.568 33.9946 25.832 34.2826 26.016C34.5706 26.2 34.9186 26.292 35.3266 26.292C35.7346 26.292 36.0826 26.2 36.3706 26.016C36.6586 25.832 36.8786 25.568 37.0306 25.224C37.1906 24.88 37.2706 24.472 37.2706 24C37.2706 23.52 37.1906 23.112 37.0306 22.776C36.8786 22.432 36.6586 22.168 36.3706 21.984C36.0826 21.8 35.7346 21.708 35.3266 21.708ZM40.0379 27V21H40.8779L40.9619 22.344L40.8059 22.212C40.9339 21.892 41.1059 21.636 41.3219 21.444C41.5379 21.244 41.7859 21.1 42.0659 21.012C42.3539 20.924 42.6499 20.88 42.9539 20.88C43.3859 20.88 43.7779 20.964 44.1299 21.132C44.4819 21.292 44.7619 21.54 44.9699 21.876C45.1859 22.212 45.2939 22.64 45.2939 23.16V27H44.3339V23.496C44.3339 22.832 44.1899 22.372 43.9019 22.116C43.6219 21.852 43.2739 21.72 42.8579 21.72C42.5699 21.72 42.2819 21.788 41.9939 21.924C41.7059 22.06 41.4659 22.28 41.2739 22.584C41.0899 22.888 40.9979 23.296 40.9979 23.808V27H40.0379ZM52.739 19.296V25.344C52.739 25.64 52.823 25.86 52.991 26.004C53.159 26.148 53.375 26.22 53.639 26.22C53.871 26.22 54.071 26.18 54.239 26.1C54.407 26.02 54.559 25.912 54.695 25.776L55.031 26.58C54.847 26.748 54.627 26.88 54.371 26.976C54.123 27.072 53.835 27.12 53.507 27.12C53.203 27.12 52.919 27.068 52.655 26.964C52.391 26.852 52.179 26.68 52.019 26.448C51.867 26.208 51.787 25.896 51.779 25.512V19.56L52.739 19.296ZM54.923 21V21.828H50.579V21H54.923ZM58.8344 20.88C59.4024 20.88 59.9024 21.004 60.3344 21.252C60.7744 21.5 61.1184 21.86 61.3664 22.332C61.6144 22.796 61.7384 23.352 61.7384 24C61.7384 24.648 61.6144 25.208 61.3664 25.68C61.1184 26.144 60.7744 26.5 60.3344 26.748C59.9024 26.996 59.4024 27.12 58.8344 27.12C58.2744 27.12 57.7744 26.996 57.3344 26.748C56.8944 26.5 56.5504 26.144 56.3024 25.68C56.0544 25.208 55.9304 24.648 55.9304 24C55.9304 23.352 56.0544 22.796 56.3024 22.332C56.5504 21.86 56.8944 21.5 57.3344 21.252C57.7744 21.004 58.2744 20.88 58.8344 20.88ZM58.8344 21.708C58.4264 21.708 58.0784 21.8 57.7904 21.984C57.5024 22.168 57.2784 22.432 57.1184 22.776C56.9664 23.112 56.8904 23.52 56.8904 24C56.8904 24.472 56.9664 24.88 57.1184 25.224C57.2784 25.568 57.5024 25.832 57.7904 26.016C58.0784 26.2 58.4264 26.292 58.8344 26.292C59.2424 26.292 59.5904 26.2 59.8784 26.016C60.1664 25.832 60.3864 25.568 60.5384 25.224C60.6984 24.88 60.7784 24.472 60.7784 24C60.7784 23.52 60.6984 23.112 60.5384 22.776C60.3864 22.432 60.1664 22.168 59.8784 21.984C59.5904 21.8 59.2424 21.708 58.8344 21.708ZM67.8155 27V19.08H73.3715V19.98H68.7755V22.536H72.3515V23.436H68.7755V26.1H73.5515V27H67.8155ZM75.8639 21L77.6519 23.508L77.7119 23.592L80.1719 27H78.9959L77.1359 24.396L77.0279 24.264L74.6639 21H75.8639ZM80.1359 21L77.7599 24.204H77.6999L75.6359 27H74.5199L77.1359 23.556H77.2079L79.0079 21H80.1359ZM81.6863 29.52V21H82.5263L82.6103 22.464L82.4783 22.296C82.5823 22.016 82.7383 21.772 82.9463 21.564C83.1543 21.348 83.4063 21.18 83.7023 21.06C83.9983 20.94 84.3183 20.88 84.6623 20.88C85.1503 20.88 85.5983 21.004 86.0063 21.252C86.4223 21.5 86.7543 21.856 87.0023 22.32C87.2503 22.784 87.3743 23.344 87.3743 24C87.3743 24.648 87.2463 25.208 86.9903 25.68C86.7423 26.144 86.4103 26.5 85.9943 26.748C85.5783 26.996 85.1223 27.12 84.6263 27.12C84.1303 27.12 83.6943 27 83.3183 26.76C82.9503 26.512 82.6863 26.2 82.5263 25.824L82.6463 25.644V29.52H81.6863ZM84.5303 26.28C85.1223 26.28 85.5823 26.072 85.9103 25.656C86.2463 25.24 86.4143 24.688 86.4143 24C86.4143 23.312 86.2503 22.76 85.9223 22.344C85.6023 21.928 85.1503 21.72 84.5663 21.72C84.1823 21.72 83.8463 21.816 83.5583 22.008C83.2703 22.192 83.0463 22.456 82.8863 22.8C82.7263 23.136 82.6463 23.536 82.6463 24C82.6463 24.456 82.7223 24.856 82.8743 25.2C83.0343 25.544 83.2543 25.812 83.5343 26.004C83.8223 26.188 84.1543 26.28 84.5303 26.28ZM89.6898 19.848C89.4738 19.848 89.2978 19.784 89.1618 19.656C89.0338 19.52 88.9698 19.344 88.9698 19.128C88.9698 18.912 89.0338 18.74 89.1618 18.612C89.2978 18.476 89.4738 18.408 89.6898 18.408C89.9058 18.408 90.0778 18.476 90.2058 18.612C90.3418 18.74 90.4098 18.912 90.4098 19.128C90.4098 19.344 90.3418 19.52 90.2058 19.656C90.0778 19.784 89.9058 19.848 89.6898 19.848ZM90.1698 21V27H89.2098V21H90.1698ZM92.3973 27V21H93.1773L93.3093 21.984C93.4773 21.616 93.7213 21.34 94.0413 21.156C94.3693 20.972 94.7653 20.88 95.2293 20.88C95.3333 20.88 95.4453 20.888 95.5653 20.904C95.6933 20.92 95.8013 20.952 95.8893 21L95.7213 21.876C95.6333 21.844 95.5373 21.82 95.4333 21.804C95.3293 21.788 95.1813 21.78 94.9893 21.78C94.7413 21.78 94.4893 21.852 94.2333 21.996C93.9853 22.14 93.7773 22.36 93.6093 22.656C93.4413 22.944 93.3573 23.312 93.3573 23.76V27H92.3973ZM99.6162 27.12C99.0482 27.12 98.5402 26.996 98.0922 26.748C97.6522 26.5 97.3082 26.144 97.0602 25.68C96.8122 25.208 96.6882 24.648 96.6882 24C96.6882 23.352 96.8122 22.796 97.0602 22.332C97.3082 21.86 97.6482 21.5 98.0802 21.252C98.5122 21.004 99.0042 20.88 99.5562 20.88C100.116 20.88 100.592 21 100.984 21.24C101.384 21.48 101.688 21.808 101.896 22.224C102.104 22.632 102.208 23.092 102.208 23.604C102.208 23.74 102.204 23.864 102.196 23.976C102.188 24.088 102.176 24.188 102.16 24.276H97.3122V23.424H101.74L101.248 23.52C101.248 22.944 101.088 22.5 100.768 22.188C100.456 21.876 100.044 21.72 99.5322 21.72C99.1402 21.72 98.8002 21.812 98.5122 21.996C98.2322 22.172 98.0122 22.432 97.8522 22.776C97.7002 23.112 97.6242 23.52 97.6242 24C97.6242 24.472 97.7042 24.88 97.8642 25.224C98.0242 25.568 98.2482 25.832 98.5362 26.016C98.8322 26.192 99.1842 26.28 99.5922 26.28C100.032 26.28 100.388 26.196 100.66 26.028C100.94 25.86 101.164 25.632 101.332 25.344L102.088 25.788C101.936 26.06 101.74 26.296 101.5 26.496C101.268 26.696 100.992 26.852 100.672 26.964C100.36 27.068 100.008 27.12 99.6162 27.12Z" fill="#B29A9A"/>
<path d="M125.433 15.7441C125.277 15.5878 125.065 15.5 124.844 15.5C124.623 15.5 124.411 15.5878 124.255 15.7441L119.255 20.7441C118.929 21.0695 118.929 21.5972 119.255 21.9226C119.58 22.248 120.108 22.248 120.433 21.9226L124.844 17.5118L129.255 21.9226C129.58 22.248 130.108 22.248 130.433 21.9226C130.759 21.5972 130.759 21.0695 130.433 20.7441L125.433 15.7441Z" fill="#B29A9A"/>
<path d="M125.433 31.0893C125.277 31.2455 125.065 31.3333 124.844 31.3333C124.623 31.3333 124.411 31.2455 124.255 31.0893L119.255 26.0893C118.929 25.7638 118.929 25.2362 119.255 24.9107C119.58 24.5853 120.108 24.5853 120.433 24.9107L124.844 29.3215L129.255 24.9107C129.58 24.5853 130.108 24.5853 130.433 24.9107C130.759 25.2362 130.759 25.7638 130.433 26.0893L125.433 31.0893Z" fill="#B29A9A"/>
</svg>
