<svg width="15" height="14" viewBox="0 0 15 14" fill="none" xmlns="http://www.w3.org/2000/svg">
<path d="M7.49995 9.52628C6.10579 9.52628 4.97412 8.39461 4.97412 7.00044C4.97412 5.60628 6.10579 4.47461 7.49995 4.47461C8.89412 4.47461 10.0258 5.60628 10.0258 7.00044C10.0258 8.39461 8.89412 9.52628 7.49995 9.52628ZM7.49995 5.34961C6.58995 5.34961 5.84912 6.09044 5.84912 7.00044C5.84912 7.91044 6.58995 8.65128 7.49995 8.65128C8.40995 8.65128 9.15079 7.91044 9.15079 7.00044C9.15079 6.09044 8.40995 5.34961 7.49995 5.34961Z" fill="#D2B6B6"/>
<path d="M7.5 12.2616C5.30667 12.2616 3.23584 10.9783 1.8125 8.74995C1.19417 7.78745 1.19417 6.21828 1.8125 5.24995C3.24167 3.02161 5.3125 1.73828 7.5 1.73828C9.6875 1.73828 11.7583 3.02161 13.1817 5.24995C13.8 6.21245 13.8 7.78161 13.1817 8.74995C11.7583 10.9783 9.6875 12.2616 7.5 12.2616ZM7.5 2.61328C5.61584 2.61328 3.81334 3.74495 2.55334 5.72245C2.11584 6.40495 2.11584 7.59495 2.55334 8.27745C3.81334 10.2549 5.61584 11.3866 7.5 11.3866C9.38417 11.3866 11.1867 10.2549 12.4467 8.27745C12.8842 7.59495 12.8842 6.40495 12.4467 5.72245C11.1867 3.74495 9.38417 2.61328 7.5 2.61328Z" fill="#D2B6B6"/>
</svg>
