<svg width="30" height="28" viewBox="0 0 30 28" fill="none" xmlns="http://www.w3.org/2000/svg">
<rect width="30" height="28" rx="4" fill="#0A0A0A"/>
<path d="M20.6 15.4001H9.4C8.63467 15.4001 8 14.7654 8 14.0001C8 13.2348 8.63467 12.6001 9.4 12.6001H20.6C21.3653 12.6001 22 13.2348 22 14.0001C22 14.7654 21.3653 15.4001 20.6 15.4001Z" fill="#FEEFEF"/>
<path d="M15 21C14.2346 21 13.6 20.3653 13.6 19.6V8.4C13.6 7.63467 14.2346 7 15 7C15.7653 7 16.4 7.63467 16.4 8.4V19.6C16.4 20.3653 15.7653 21 15 21Z" fill="#FEEFEF"/>
</svg>
