<svg width="82" height="44" viewBox="0 0 82 44" fill="none" xmlns="http://www.w3.org/2000/svg">
<rect width="82" height="44" rx="12" fill="#1F1A1A"/>
<path d="M23.98 18.81H18.632V21.792H22.804V22.842H18.632V27H17.512V17.76H23.98V18.81ZM25.2727 27V20H26.1827L26.3367 21.148C26.5327 20.7187 26.8174 20.3967 27.1907 20.182C27.5734 19.9673 28.0354 19.86 28.5767 19.86C28.698 19.86 28.8287 19.8693 28.9687 19.888C29.118 19.9067 29.244 19.944 29.3467 20L29.1507 21.022C29.048 20.9847 28.936 20.9567 28.8147 20.938C28.6934 20.9193 28.5207 20.91 28.2967 20.91C28.0074 20.91 27.7134 20.994 27.4147 21.162C27.1254 21.33 26.8827 21.5867 26.6867 21.932C26.4907 22.268 26.3927 22.6973 26.3927 23.22V27H25.2727ZM33.6948 27.14C33.0321 27.14 32.4395 26.9953 31.9168 26.706C31.4035 26.4167 31.0021 26.0013 30.7128 25.46C30.4235 24.9093 30.2788 24.256 30.2788 23.5C30.2788 22.744 30.4235 22.0953 30.7128 21.554C31.0021 21.0033 31.3988 20.5833 31.9028 20.294C32.4068 20.0047 32.9808 19.86 33.6248 19.86C34.2781 19.86 34.8335 20 35.2908 20.28C35.7575 20.56 36.1121 20.9427 36.3548 21.428C36.5975 21.904 36.7188 22.4407 36.7188 23.038C36.7188 23.1967 36.7141 23.3413 36.7048 23.472C36.6955 23.6027 36.6815 23.7193 36.6628 23.822H31.0068V22.828H36.1728L35.5988 22.94C35.5988 22.268 35.4121 21.75 35.0388 21.386C34.6748 21.022 34.1941 20.84 33.5968 20.84C33.1395 20.84 32.7428 20.9473 32.4068 21.162C32.0801 21.3673 31.8235 21.6707 31.6368 22.072C31.4595 22.464 31.3708 22.94 31.3708 23.5C31.3708 24.0507 31.4641 24.5267 31.6508 24.928C31.8375 25.3293 32.0988 25.6373 32.4348 25.852C32.7801 26.0573 33.1908 26.16 33.6668 26.16C34.1801 26.16 34.5955 26.062 34.9128 25.866C35.2395 25.67 35.5008 25.404 35.6968 25.068L36.5788 25.586C36.4015 25.9033 36.1728 26.1787 35.8928 26.412C35.6221 26.6453 35.3001 26.8273 34.9268 26.958C34.5628 27.0793 34.1521 27.14 33.6948 27.14ZM41.7749 27.14C41.1122 27.14 40.5195 26.9953 39.9969 26.706C39.4835 26.4167 39.0822 26.0013 38.7929 25.46C38.5035 24.9093 38.3589 24.256 38.3589 23.5C38.3589 22.744 38.5035 22.0953 38.7929 21.554C39.0822 21.0033 39.4789 20.5833 39.9829 20.294C40.4869 20.0047 41.0609 19.86 41.7049 19.86C42.3582 19.86 42.9135 20 43.3709 20.28C43.8375 20.56 44.1922 20.9427 44.4349 21.428C44.6775 21.904 44.7989 22.4407 44.7989 23.038C44.7989 23.1967 44.7942 23.3413 44.7849 23.472C44.7755 23.6027 44.7615 23.7193 44.7429 23.822H39.0869V22.828H44.2529L43.6789 22.94C43.6789 22.268 43.4922 21.75 43.1189 21.386C42.7549 21.022 42.2742 20.84 41.6769 20.84C41.2195 20.84 40.8229 20.9473 40.4869 21.162C40.1602 21.3673 39.9035 21.6707 39.7169 22.072C39.5395 22.464 39.4509 22.94 39.4509 23.5C39.4509 24.0507 39.5442 24.5267 39.7309 24.928C39.9175 25.3293 40.1789 25.6373 40.5149 25.852C40.8602 26.0573 41.2709 26.16 41.7469 26.16C42.2602 26.16 42.6755 26.062 42.9929 25.866C43.3195 25.67 43.5809 25.404 43.7769 25.068L44.6589 25.586C44.4815 25.9033 44.2529 26.1787 43.9729 26.412C43.7022 26.6453 43.3802 26.8273 43.0069 26.958C42.6429 27.0793 42.2322 27.14 41.7749 27.14Z" fill="#B29A9A"/>
<path d="M56.625 17.625L65.5261 26.4011" stroke="#B29A9A" stroke-width="1.2" stroke-linecap="round" stroke-linejoin="round"/>
<path d="M65.5261 17.625L56.625 26.4011" stroke="#B29A9A" stroke-width="1.2" stroke-linecap="round" stroke-linejoin="round"/>
</svg>
