<svg width="31" height="30" viewBox="0 0 31 30" fill="none" xmlns="http://www.w3.org/2000/svg">
<path d="M8.6502 20.325C8.4127 20.325 8.1752 20.2375 7.9877 20.05C7.6252 19.6875 7.6252 19.0875 7.9877 18.725L11.8002 14.9125C12.1627 14.55 12.7627 14.55 13.1252 14.9125C13.4877 15.275 13.4877 15.875 13.1252 16.2375L9.3127 20.05C9.1252 20.225 8.8877 20.325 8.6502 20.325Z" fill="#E9CB50"/>
<path d="M12.5008 20.3625C12.2633 20.3625 12.0258 20.275 11.8383 20.0875L8.02578 16.275C7.66328 15.9125 7.66328 15.3125 8.02578 14.95C8.38828 14.5875 8.98828 14.5875 9.35078 14.95L13.1633 18.7625C13.5258 19.125 13.5258 19.725 13.1633 20.0875C12.9758 20.275 12.7383 20.3625 12.5008 20.3625Z" fill="#E9CB50"/>
<path d="M17.4256 18.75C16.7381 18.75 16.1631 18.1875 16.1631 17.5C16.1631 16.8125 16.7131 16.25 17.4006 16.25H17.4256C18.1131 16.25 18.6756 16.8125 18.6756 17.5C18.6756 18.1875 18.1256 18.75 17.4256 18.75Z" fill="#E9CB50"/>
<path d="M22.3494 18.75C21.6619 18.75 21.0869 18.1875 21.0869 17.5C21.0869 16.8125 21.6369 16.25 22.3244 16.25H22.3494C23.0369 16.25 23.5994 16.8125 23.5994 17.5C23.5994 18.1875 23.0369 18.75 22.3494 18.75Z" fill="#E9CB50"/>
<path d="M19.875 21.2125C19.1875 21.2125 18.625 20.6625 18.625 19.975V19.95C18.625 19.2625 19.1875 18.7 19.875 18.7C20.5625 18.7 21.125 19.2625 21.125 19.95C21.125 20.6375 20.575 21.2125 19.875 21.2125Z" fill="#E9CB50"/>
<path d="M19.875 16.2875C19.1875 16.2875 18.625 15.7375 18.625 15.05V15.025C18.625 14.3375 19.1875 13.775 19.875 13.775C20.5625 13.775 21.125 14.3375 21.125 15.025C21.125 15.7125 20.575 16.2875 19.875 16.2875Z" fill="#E9CB50"/>
<path d="M19.25 28.4375H11.75C4.9625 28.4375 2.0625 25.5375 2.0625 18.75V16.25C2.0625 9.4625 4.9625 6.5625 11.75 6.5625H19.25C26.0375 6.5625 28.9375 9.4625 28.9375 16.25V18.75C28.9375 25.5375 26.0375 28.4375 19.25 28.4375ZM11.75 8.4375C5.9875 8.4375 3.9375 10.4875 3.9375 16.25V18.75C3.9375 24.5125 5.9875 26.5625 11.75 26.5625H19.25C25.0125 26.5625 27.0625 24.5125 27.0625 18.75V16.25C27.0625 10.4875 25.0125 8.4375 19.25 8.4375H11.75Z" fill="#E9CB50"/>
<path d="M16.7383 8.4375H15.4883C14.2883 8.4375 13.3008 7.45 13.3008 6.25C13.3008 5.05 14.2758 4.0625 15.4758 4.0625C15.6758 4.0625 15.8133 3.925 15.8258 3.75L15.8383 2.4875C15.8508 1.975 16.2633 1.5625 16.7758 1.5625H16.7883C17.3008 1.575 17.7258 2 17.7133 2.5125L17.7008 3.775C17.6883 4.9625 16.7008 5.9375 15.5133 5.9375C15.3133 5.9375 15.1883 6.075 15.1883 6.25C15.1883 6.425 15.3258 6.5625 15.5008 6.5625H16.7508C17.2633 6.5625 17.6883 6.9875 17.6883 7.5C17.6883 8.0125 17.2508 8.4375 16.7383 8.4375Z" fill="#E9CB50"/>
</svg>
