<svg width="31" height="30" viewBox="0 0 31 30" fill="none" xmlns="http://www.w3.org/2000/svg">
<path d="M15.5 27.0625C15.1125 27.0625 14.7375 27.0125 14.425 26.9C9.65 25.2625 2.0625 19.45 2.0625 10.8625C2.0625 6.4875 5.6 2.9375 9.95 2.9375C12.0625 2.9375 14.0375 3.7625 15.5 5.2375C16.9625 3.7625 18.9375 2.9375 21.05 2.9375C25.4 2.9375 28.9375 6.5 28.9375 10.8625C28.9375 19.4625 21.35 25.2625 16.575 26.9C16.2625 27.0125 15.8875 27.0625 15.5 27.0625ZM9.95 4.8125C6.6375 4.8125 3.9375 7.525 3.9375 10.8625C3.9375 19.4 12.15 24.15 15.0375 25.1375C15.2625 25.2125 15.75 25.2125 15.975 25.1375C18.85 24.15 27.075 19.4125 27.075 10.8625C27.075 7.525 24.375 4.8125 21.0625 4.8125C19.1625 4.8125 17.4 5.7 16.2625 7.2375C15.9125 7.7125 15.1125 7.7125 14.7625 7.2375C13.6 5.6875 11.85 4.8125 9.95 4.8125Z" fill="#E9CB50"/>
</svg>
