<svg width="25" height="24" viewBox="0 0 25 24" fill="none" xmlns="http://www.w3.org/2000/svg">
<g clip-path="url(#clip0_966_20341)">
<path d="M21.806 6.062L15.7693 1.82785C14.1287 0.674071 11.5989 0.732298 10.0165 1.96504L4.7497 6.07187C3.69477 6.89304 2.87646 8.56498 2.87646 9.89445V17.1399C2.87646 18.4268 3.38668 19.6612 4.29505 20.5718C5.20343 21.4825 6.4357 21.995 7.72125 21.9968H19.0317C20.3157 21.9955 21.5468 21.4845 22.455 20.5759C23.3632 19.6672 23.8744 18.4351 23.8765 17.1497V10.0316C23.8765 8.61335 22.9684 6.8733 21.806 6.062ZM18.5042 14.4316C18.504 15.404 18.118 16.3364 17.4311 17.024C16.7443 17.7116 15.8129 18.098 14.8415 18.0982H11.9114C10.9401 18.098 10.0086 17.7116 9.32178 17.024C8.63495 16.3364 8.24898 15.404 8.24872 14.4316V11.4983C8.24898 10.5259 8.63495 9.59345 9.32178 8.90588C10.0086 8.21831 10.9401 7.83192 11.9114 7.83165H14.8415C15.8129 7.83192 16.7443 8.21831 17.4311 8.90588C18.118 9.59345 18.504 10.5259 18.5042 11.4983V14.4316Z" fill="#D2B6B6"/>
<path d="M14.8416 7.83191H11.9115C9.88862 7.83191 8.24878 9.47352 8.24878 11.4985V14.4319C8.24878 16.4569 9.88862 18.0985 11.9115 18.0985H14.8416C16.8644 18.0985 18.5043 16.4569 18.5043 14.4319V11.4985C18.5043 9.47352 16.8644 7.83191 14.8416 7.83191Z" fill="#0A0A0A"/>
</g>
<defs>
<clipPath id="clip0_966_20341">
<rect width="21" height="21" fill="white" transform="translate(2.87646 1)"/>
</clipPath>
</defs>
</svg>
