<svg width="141" height="44" viewBox="0 0 141 44" fill="none" xmlns="http://www.w3.org/2000/svg">
<rect width="141" height="44" rx="12" fill="#1F1A1A"/>
<path d="M49.1083 13.75L44.9999 20.3333M44.4999 13.75H55.4999C56.4166 13.75 57.1666 14.5 57.1666 15.4167V17.25C57.1666 17.9167 56.7499 18.75 56.3333 19.1667L52.7499 22.3333C52.2499 22.75 51.9166 23.5833 51.9166 24.25V27.8333C51.9166 28.3333 51.5833 29 51.1666 29.25L49.9999 30C48.9166 30.6667 47.4166 29.9167 47.4166 28.5833V24.1667C47.4166 23.5833 47.0833 22.8333 46.7499 22.4167L43.5833 19.0833C43.1666 18.6667 42.8333 17.9167 42.8333 17.4167V15.5C42.8333 14.5 43.5833 13.75 44.4999 13.75Z" stroke="#B29A9A" stroke-width="1.25" stroke-miterlimit="10" stroke-linecap="round" stroke-linejoin="round"/>
<path d="M72.98 18.81H67.632V21.792H71.804V22.842H67.632V27H66.512V17.76H72.98V18.81ZM75.4069 18.656C75.1549 18.656 74.9496 18.5813 74.7909 18.432C74.6416 18.2733 74.5669 18.068 74.5669 17.816C74.5669 17.564 74.6416 17.3633 74.7909 17.214C74.9496 17.0553 75.1549 16.976 75.4069 16.976C75.6589 16.976 75.8596 17.0553 76.0089 17.214C76.1676 17.3633 76.2469 17.564 76.2469 17.816C76.2469 18.068 76.1676 18.2733 76.0089 18.432C75.8596 18.5813 75.6589 18.656 75.4069 18.656ZM75.9669 20V27H74.8469V20H75.9669ZM79.6297 16.78V25.222C79.6297 25.5767 79.695 25.824 79.8257 25.964C79.9563 26.0947 80.1663 26.16 80.4557 26.16C80.6423 26.16 80.7963 26.146 80.9177 26.118C81.039 26.09 81.2023 26.0387 81.4077 25.964L81.2257 26.944C81.0763 27.0093 80.913 27.056 80.7357 27.084C80.5583 27.1213 80.3763 27.14 80.1897 27.14C79.6203 27.14 79.1957 26.986 78.9157 26.678C78.645 26.37 78.5097 25.8987 78.5097 25.264V16.78H79.6297ZM84.2235 18.012V25.068C84.2235 25.4133 84.3215 25.67 84.5175 25.838C84.7135 26.006 84.9655 26.09 85.2735 26.09C85.5442 26.09 85.7775 26.0433 85.9735 25.95C86.1695 25.8567 86.3469 25.7307 86.5055 25.572L86.8975 26.51C86.6829 26.706 86.4262 26.86 86.1275 26.972C85.8382 27.084 85.5022 27.14 85.1195 27.14C84.7649 27.14 84.4335 27.0793 84.1255 26.958C83.8175 26.8273 83.5702 26.6267 83.3835 26.356C83.2062 26.076 83.1129 25.712 83.1035 25.264V18.32L84.2235 18.012ZM86.7715 20V20.966H81.7035V20H86.7715ZM91.3628 27.14C90.7001 27.14 90.1074 26.9953 89.5848 26.706C89.0714 26.4167 88.6701 26.0013 88.3808 25.46C88.0914 24.9093 87.9468 24.256 87.9468 23.5C87.9468 22.744 88.0914 22.0953 88.3808 21.554C88.6701 21.0033 89.0668 20.5833 89.5708 20.294C90.0748 20.0047 90.6488 19.86 91.2928 19.86C91.9461 19.86 92.5014 20 92.9588 20.28C93.4254 20.56 93.7801 20.9427 94.0228 21.428C94.2654 21.904 94.3868 22.4407 94.3868 23.038C94.3868 23.1967 94.3821 23.3413 94.3728 23.472C94.3634 23.6027 94.3494 23.7193 94.3308 23.822H88.6748V22.828H93.8408L93.2668 22.94C93.2668 22.268 93.0801 21.75 92.7068 21.386C92.3428 21.022 91.8621 20.84 91.2648 20.84C90.8074 20.84 90.4108 20.9473 90.0748 21.162C89.7481 21.3673 89.4914 21.6707 89.3048 22.072C89.1274 22.464 89.0388 22.94 89.0388 23.5C89.0388 24.0507 89.1321 24.5267 89.3188 24.928C89.5054 25.3293 89.7668 25.6373 90.1028 25.852C90.4481 26.0573 90.8588 26.16 91.3348 26.16C91.8481 26.16 92.2634 26.062 92.5808 25.866C92.9074 25.67 93.1688 25.404 93.3648 25.068L94.2468 25.586C94.0694 25.9033 93.8408 26.1787 93.5608 26.412C93.2901 26.6453 92.9681 26.8273 92.5948 26.958C92.2308 27.0793 91.8201 27.14 91.3628 27.14ZM96.5168 27V20H97.4268L97.5808 21.148C97.7768 20.7187 98.0615 20.3967 98.4348 20.182C98.8175 19.9673 99.2795 19.86 99.8208 19.86C99.9422 19.86 100.073 19.8693 100.213 19.888C100.362 19.9067 100.488 19.944 100.591 20L100.395 21.022C100.292 20.9847 100.18 20.9567 100.059 20.938C99.9375 20.9193 99.7648 20.91 99.5408 20.91C99.2515 20.91 98.9575 20.994 98.6588 21.162C98.3695 21.33 98.1268 21.5867 97.9308 21.932C97.7348 22.268 97.6368 22.6973 97.6368 23.22V27H96.5168Z" fill="#B29A9A"/>
</svg>
