<svg width="31" height="30" viewBox="0 0 31 30" fill="none" xmlns="http://www.w3.org/2000/svg">
<path d="M15.5121 28.4375C14.7246 28.4375 13.9371 28.175 13.3246 27.65L11.3496 25.95C11.1496 25.775 10.6496 25.6 10.3871 25.6H8.22461C6.37461 25.6 4.87462 24.1001 4.87462 22.2501V20.1125C4.87462 19.85 4.69962 19.3624 4.52462 19.1624L2.83711 17.175C1.81211 15.9625 1.81211 14.05 2.83711 12.8375L4.52462 10.8501C4.69962 10.6501 4.87462 10.1625 4.87462 9.90005V7.76245C4.87462 5.91245 6.37461 4.41253 8.22461 4.41253H10.3871C10.6496 4.41253 11.1496 4.22499 11.3496 4.06249L13.3246 2.36251C14.5496 1.31251 16.4621 1.31251 17.6871 2.36251L19.6621 4.06249C19.8621 4.23749 20.3621 4.41253 20.6246 4.41253H22.7496C24.5996 4.41253 26.0996 5.91245 26.0996 7.76245V9.88754C26.0996 10.15 26.2871 10.6501 26.4621 10.8501L28.1496 12.825C29.1996 14.05 29.1996 15.9625 28.1496 17.1875L26.4621 19.1624C26.2871 19.3624 26.1121 19.8625 26.1121 20.125V22.2501C26.1121 24.1001 24.6121 25.6 22.7621 25.6H20.6371C20.3746 25.6 19.8746 25.7875 19.6746 25.95L17.6996 27.65C17.0746 28.175 16.2871 28.4375 15.5121 28.4375ZM8.22461 6.27502C7.41211 6.27502 6.74962 6.93743 6.74962 7.74993V9.88754C6.74962 10.6 6.41211 11.5125 5.96211 12.05L4.2746 14.0375C3.8371 14.55 3.8371 15.4375 4.2746 15.95L5.96211 17.9375C6.42461 18.4875 6.76213 19.3999 6.76213 20.0999V22.2375C6.76213 23.05 7.42462 23.7125 8.23712 23.7125H10.3996C11.1246 23.7125 12.0371 24.05 12.5871 24.525L14.5621 26.225C15.0746 26.6625 15.9746 26.6625 16.4871 26.225L18.4621 24.525C19.0121 24.0625 19.9246 23.7125 20.6496 23.7125H22.7746C23.5871 23.7125 24.2496 23.05 24.2496 22.2375V20.1125C24.2496 19.3875 24.5871 18.475 25.0621 17.925L26.7496 15.95C27.1871 15.4375 27.1871 14.5375 26.7496 14.025L25.0621 12.05C24.5996 11.5 24.2496 10.5875 24.2496 9.86251V7.73742C24.2496 6.92492 23.5871 6.26251 22.7746 6.26251H20.6496C19.9371 6.26251 19.0121 5.92498 18.4621 5.44998L16.4871 3.74999C15.9746 3.31249 15.0746 3.31249 14.5621 3.74999L12.5871 5.44998C12.0371 5.91248 11.1246 6.26251 10.3996 6.26251H8.22461V6.27502Z" fill="#E9CB50"/>
<path d="M17.9992 21.2124H15.7742C15.2492 21.2124 14.4617 21.0499 13.9992 20.5874L12.2742 19.2625L13.4242 17.7749L15.2367 19.1749C15.3617 19.2624 15.5867 19.3249 15.7742 19.3249H17.9992C18.2992 19.3249 18.6617 19.0625 18.7242 18.8L20.1492 14.4624C20.1867 14.3499 20.1867 14.275 20.1742 14.25C20.1492 14.2125 20.0617 14.1749 19.9367 14.1749H17.5992C17.1492 14.1749 16.7367 13.9875 16.4367 13.65C16.1492 13.3125 16.0117 12.8625 16.0742 12.4L16.3742 10.5125C16.3992 10.4125 16.3242 10.2874 16.2492 10.2624C16.1742 10.2499 16.0617 10.2749 16.0242 10.3124L13.6367 13.8624L12.0742 12.8124L14.4742 9.24997C14.9742 8.49997 16.0242 8.17499 16.8742 8.48749C17.8242 8.79999 18.4367 9.87501 18.2242 10.85L17.9992 12.2749H19.9367C20.6742 12.2749 21.3242 12.5875 21.7117 13.1375C22.0867 13.675 22.1742 14.375 21.9367 15.0375L20.5367 19.2875C20.2742 20.3625 19.1617 21.2124 17.9992 21.2124Z" fill="#E9CB50"/>
<path d="M11.6258 20.575H11.0383C9.20078 20.575 8.92578 19.2875 8.92578 18.525V12.8C8.92578 12.0375 9.20078 10.75 11.0383 10.75H11.6258C13.4633 10.75 13.7383 12.0375 13.7383 12.8V18.525C13.7383 19.2875 13.4633 20.575 11.6258 20.575ZM10.8258 18.6875C10.8758 18.7 10.9508 18.7 11.0508 18.7H11.6383C11.7383 18.7 11.8133 18.7 11.8633 18.6875C11.8633 18.65 11.8758 18.6 11.8758 18.525V12.8C11.8758 12.725 11.8758 12.675 11.8633 12.6375C11.8133 12.625 11.7383 12.625 11.6383 12.625H11.0508C10.9508 12.625 10.8758 12.625 10.8258 12.6375C10.8258 12.675 10.8133 12.725 10.8133 12.8V18.525C10.8133 18.6 10.8133 18.65 10.8258 18.6875Z" fill="#E9CB50"/>
</svg>
