<svg width="15" height="14" viewBox="0 0 15 14" fill="none" xmlns="http://www.w3.org/2000/svg">
<path d="M7.26146 13.2765C6.39812 13.2765 5.52896 12.9498 4.85229 12.3023C3.13146 10.6457 1.22979 8.00317 1.94729 4.859C2.59479 2.0065 5.08562 0.729004 7.26146 0.729004C7.26146 0.729004 7.26146 0.729004 7.26729 0.729004C9.44312 0.729004 11.934 2.0065 12.5815 4.86484C13.2931 8.009 11.3915 10.6457 9.67062 12.3023C8.99396 12.9498 8.12479 13.2765 7.26146 13.2765ZM7.26146 1.604C5.56396 1.604 3.38229 2.50817 2.80479 5.0515C2.17479 7.799 3.90146 10.1673 5.46479 11.6665C6.47396 12.6407 8.05479 12.6407 9.06396 11.6665C10.6215 10.1673 12.3481 7.799 11.7298 5.0515C11.1465 2.50817 8.95896 1.604 7.26146 1.604Z" fill="white"/>
<path d="M6.53223 8.02084C6.4214 8.02084 6.31057 7.98001 6.22307 7.89251L5.34807 7.01751C5.1789 6.84834 5.1789 6.56834 5.34807 6.39917C5.51723 6.23001 5.79723 6.23001 5.9664 6.39917L6.53223 6.96501L8.5564 4.94084C8.72557 4.77167 9.00557 4.77167 9.17473 4.94084C9.3439 5.11001 9.3439 5.39001 9.17473 5.55917L6.8414 7.89251C6.7539 7.98001 6.64307 8.02084 6.53223 8.02084Z" fill="white"/>
</svg>
