<svg width="25" height="24" viewBox="0 0 25 24" fill="none" xmlns="http://www.w3.org/2000/svg">
<path d="M16.15 21.4102C15.72 21.4102 15.29 21.3202 14.94 21.1502L9.69004 18.5202C9.39004 18.3702 8.80004 18.3802 8.51004 18.5502L6.15004 19.9002C5.13004 20.4802 4.08004 20.5602 3.29004 20.0902C2.49004 19.6302 2.04004 18.6902 2.04004 17.5102V7.79016C2.04004 6.88016 2.64004 5.85016 3.43004 5.40016L7.76004 2.92016C8.49004 2.50016 9.60004 2.47016 10.35 2.85016L15.6 5.48016C15.9 5.63016 16.48 5.61016 16.78 5.45016L19.13 4.11016C20.15 3.53016 21.2 3.45016 21.99 3.92016C22.79 4.38016 23.24 5.32016 23.24 6.50016V16.2302C23.24 17.1402 22.64 18.1702 21.85 18.6202L17.52 21.1002C17.14 21.3002 16.64 21.4102 16.15 21.4102ZM9.14004 16.9202C9.57004 16.9202 10 17.0102 10.35 17.1802L15.6 19.8102C15.9 19.9602 16.48 19.9402 16.78 19.7802L21.11 17.3002C21.43 17.1202 21.74 16.5802 21.74 16.2202V6.49016C21.74 5.86016 21.56 5.39016 21.23 5.21016C20.91 5.03016 20.41 5.10016 19.87 5.41016L17.52 6.75016C16.79 7.17016 15.68 7.20016 14.93 6.82016L9.68004 4.19016C9.38004 4.04016 8.80004 4.06016 8.50004 4.22016L4.17004 6.70016C3.85004 6.88016 3.54004 7.42016 3.54004 7.79016V17.5202C3.54004 18.1502 3.72004 18.6202 4.04004 18.8002C4.36004 18.9902 4.86004 18.9102 5.41004 18.6002L7.76004 17.2602C8.15004 17.0302 8.65004 16.9202 9.14004 16.9202Z" fill="#D2B6B6"/>
<path d="M9.06006 17.75C8.65006 17.75 8.31006 17.41 8.31006 17V4C8.31006 3.59 8.65006 3.25 9.06006 3.25C9.47006 3.25 9.81006 3.59 9.81006 4V17C9.81006 17.41 9.47006 17.75 9.06006 17.75Z" fill="#D2B6B6"/>
<path d="M16.23 20.7501C15.82 20.7501 15.48 20.4101 15.48 20.0001V6.62012C15.48 6.21012 15.82 5.87012 16.23 5.87012C16.64 5.87012 16.98 6.21012 16.98 6.62012V20.0001C16.98 20.4101 16.64 20.7501 16.23 20.7501Z" fill="#D2B6B6"/>
</svg>
