<svg width="934" height="185" viewBox="0 0 934 185" fill="none" xmlns="http://www.w3.org/2000/svg">
<rect width="934" height="184.27" rx="18" fill="#1F1A1A"/>
<mask id="mask0_256_27823" style="mask-type:alpha" maskUnits="userSpaceOnUse" x="0" y="0" width="934" height="185">
<rect width="934" height="184.27" rx="18" fill="#045AFC"/>
</mask>
<g mask="url(#mask0_256_27823)">
<g opacity="0.1">
<path d="M613.864 84.6814C620.646 82.5846 627.708 83.4581 633.06 87.0559L694.521 128.377C701.3 132.934 704.279 141.132 702.185 149.463L687.512 207.838C685.418 216.169 678.622 223.157 670.03 225.813L592.13 249.896C585.347 251.992 578.285 251.119 572.934 247.521L511.472 206.2C504.693 201.643 501.714 193.445 503.808 185.114L518.481 126.739C520.575 118.408 527.371 111.42 535.963 108.764L613.864 84.6814Z" stroke="#4E4E4E" stroke-width="4"/>
<path d="M760.342 102.8C767.124 100.703 774.187 101.577 779.538 105.175L841 146.495C847.778 151.053 850.758 159.25 848.664 167.581L833.991 225.957C831.897 234.288 825.1 241.276 816.509 243.932L738.608 268.014C731.825 270.111 724.763 269.238 719.412 265.64L657.95 224.319C651.172 219.762 648.192 211.564 650.286 203.233L664.959 144.858C667.053 136.527 673.85 129.538 682.441 126.882L760.342 102.8Z" stroke="#4E4E4E" stroke-width="4"/>
<path d="M647.481 -49.0637C654.263 -51.1605 661.325 -50.287 666.677 -46.6893L728.138 -5.36838C734.917 -0.811245 737.896 7.3865 735.802 15.7175L721.129 74.0929C719.035 82.4239 712.239 89.4123 703.647 92.0683L625.746 116.151C618.964 118.247 611.902 117.374 606.55 113.776L545.089 72.4552C538.31 67.8981 535.331 59.7003 537.425 51.3693L552.098 -7.00605C554.192 -15.337 560.988 -22.3255 569.58 -24.9814L647.481 -49.0637Z" stroke="#4E4E4E" stroke-width="4"/>
<path d="M793.959 -30.9451C800.741 -33.0419 807.803 -32.1683 813.155 -28.5706L874.616 12.7503C881.395 17.3074 884.374 25.5052 882.28 33.8362L867.608 92.2115C865.514 100.543 858.717 107.531 850.126 110.187L772.225 134.269C765.442 136.366 758.38 135.492 753.029 131.895L691.567 90.5739C684.789 86.0167 681.809 77.819 683.903 69.488L698.576 11.1126C700.67 2.7816 707.467 -4.20684 716.058 -6.8628L793.959 -30.9451Z" stroke="#4E4E4E" stroke-width="4"/>
<path d="M900.801 120.175C907.583 118.078 914.646 118.951 919.997 122.549L981.459 163.87C988.237 168.427 991.217 176.625 989.122 184.956L974.45 243.331C972.356 251.662 965.559 258.651 956.968 261.307L879.067 285.389C872.284 287.486 865.222 286.612 859.871 283.014L798.409 241.694C791.631 237.136 788.651 228.939 790.745 220.608L805.418 162.232C807.512 153.901 814.309 146.913 822.9 144.257L900.801 120.175Z" stroke="#4E4E4E" stroke-width="4"/>
<path d="M1047.28 138.293C1054.06 136.196 1061.12 137.07 1066.48 140.668L1127.94 181.989C1134.72 186.546 1137.69 194.743 1135.6 203.074L1120.93 261.45C1118.83 269.781 1112.04 276.769 1103.45 279.425L1025.55 303.507C1018.76 305.604 1011.7 304.731 1006.35 301.133L944.887 259.812C938.109 255.255 935.129 247.057 937.223 238.726L951.896 180.351C953.99 172.02 960.787 165.031 969.378 162.375L1047.28 138.293Z" stroke="#4E4E4E" stroke-width="4"/>
<path d="M934.417 -13.5706C941.2 -15.6673 948.262 -14.7938 953.613 -11.1961L1015.07 30.1248C1021.85 34.6819 1024.83 42.8797 1022.74 51.2107L1008.07 109.586C1005.97 117.917 999.176 124.905 990.584 127.561L912.683 151.644C905.901 153.741 898.839 152.867 893.487 149.269L832.026 107.948C825.247 103.391 822.268 95.1935 824.362 86.8625L839.034 28.4871C841.128 20.1561 847.925 13.1677 856.516 10.5117L934.417 -13.5706Z" stroke="#4E4E4E" stroke-width="4"/>
<path d="M31.9306 12.6985C38.7133 10.6017 45.7753 11.4752 51.1266 15.0729L112.588 56.3938C119.367 60.951 122.346 69.1487 120.252 77.4797L105.58 135.855C103.485 144.186 96.6888 151.175 88.0974 153.83L10.1966 177.913C3.4139 180.01 -3.64812 179.136 -8.99944 175.538L-70.4611 134.217C-77.2395 129.66 -80.2191 121.463 -78.1251 113.132L-63.4524 54.7562C-61.3584 46.4252 -54.5617 39.4367 -45.9703 36.7808L31.9306 12.6985Z" stroke="#4E4E4E" stroke-width="4"/>
<path d="M178.409 30.8171C185.192 28.7203 192.254 29.5939 197.605 33.1916L259.067 74.5125C265.845 79.0696 268.825 87.2674 266.731 95.5984L252.058 153.974C249.964 162.305 243.167 169.293 234.576 171.949L156.675 196.031C149.892 198.128 142.83 197.255 137.479 193.657L76.0173 152.336C69.2389 147.779 66.2593 139.581 68.3533 131.25L83.026 72.8748C85.12 64.5438 91.9167 57.5554 100.508 54.8994L178.409 30.8171Z" stroke="#4E4E4E" stroke-width="4"/>
<path d="M65.5477 -121.047C72.3303 -123.143 79.3923 -122.27 84.7437 -118.672L146.205 -77.3513C152.984 -72.7942 155.963 -64.5964 153.869 -56.2654L139.197 2.10999C137.103 10.441 130.306 17.4294 121.714 20.0854L43.8136 44.1677C37.031 46.2644 29.9689 45.3909 24.6176 41.7932L-36.844 0.472326C-43.6224 -4.08482 -46.602 -12.2826 -44.508 -20.6136L-29.8353 -78.989C-27.7413 -87.32 -20.9446 -94.3084 -12.3532 -96.9643L65.5477 -121.047Z" stroke="#4E4E4E" stroke-width="4"/>
<path d="M212.026 -102.927C218.809 -105.024 225.871 -104.151 231.222 -100.553L292.684 -59.2321C299.462 -54.675 302.442 -46.4773 300.348 -38.1463L285.675 20.2291C283.581 28.5601 276.784 35.5486 268.193 38.2045L190.292 62.2868C183.509 64.3836 176.447 63.5101 171.096 59.9123L109.634 18.5915C102.856 14.0343 99.8765 5.83656 101.97 -2.49442L116.643 -60.8698C118.737 -69.2008 125.534 -76.1893 134.125 -78.8452L212.026 -102.927Z" stroke="#4E4E4E" stroke-width="4"/>
<path d="M318.868 48.1916C325.65 46.0949 332.712 46.9684 338.064 50.5661L399.525 91.887C406.304 96.4441 409.283 104.642 407.189 112.973L392.517 171.348C390.423 179.679 383.626 186.668 375.035 189.324L297.134 213.406C290.351 215.503 283.289 214.629 277.938 211.031L216.476 169.711C209.698 165.153 206.718 156.956 208.812 148.625L223.485 90.2493C225.579 81.9183 232.375 74.9299 240.967 72.2739L318.868 48.1916Z" stroke="#4E4E4E" stroke-width="4"/>
<path d="M465.346 66.3103C472.129 64.2135 479.191 65.0871 484.542 68.6848L546.004 110.006C552.782 114.563 555.762 122.761 553.668 131.092L538.995 189.467C536.901 197.798 530.104 204.786 521.513 207.442L443.612 231.525C436.83 233.621 429.768 232.748 424.416 229.15L362.955 187.829C356.176 183.272 353.197 175.074 355.291 166.743L369.963 108.368C372.057 100.037 378.854 93.0485 387.445 90.3926L465.346 66.3103Z" stroke="#4E4E4E" stroke-width="4"/>
<path d="M352.485 -85.5535C359.267 -87.6503 366.329 -86.7767 371.681 -83.179L433.142 -41.8581C439.921 -37.301 442.9 -29.1032 440.806 -20.7722L426.134 37.6031C424.04 45.9341 417.243 52.9226 408.651 55.5785L330.751 79.6608C323.968 81.7576 316.906 80.8841 311.555 77.2864L250.093 35.9655C243.315 31.4083 240.335 23.2106 242.429 14.8796L257.102 -43.4958C259.196 -51.8268 265.992 -58.8152 274.584 -61.4712L352.485 -85.5535Z" stroke="#4E4E4E" stroke-width="4"/>
<path d="M498.963 -67.4348C505.746 -69.5316 512.808 -68.6581 518.159 -65.0604L579.621 -23.7395C586.399 -19.1823 589.379 -10.9846 587.285 -2.65359L572.612 55.7218C570.518 64.0528 563.721 71.0412 555.13 73.6972L477.229 97.7795C470.447 99.8762 463.384 99.0027 458.033 95.405L396.571 54.0841C389.793 49.527 386.813 41.3292 388.907 32.9982L403.58 -25.3771C405.674 -33.7081 412.471 -40.6966 421.062 -43.3525L498.963 -67.4348Z" stroke="#4E4E4E" stroke-width="4"/>
</g>
</g>
</svg>
