<svg width="15" height="14" viewBox="0 0 15 14" fill="none" xmlns="http://www.w3.org/2000/svg">
<path d="M10.9242 12.7569C10.7434 12.7569 10.5625 12.7102 10.3992 12.611L8.06005 11.2227C7.81505 11.2169 7.57005 11.1994 7.33671 11.1644C7.17921 11.141 7.04504 11.036 6.98671 10.8844C6.92838 10.7327 6.95754 10.5694 7.06254 10.4469C7.44755 9.99769 7.64588 9.46103 7.64588 8.88936C7.64588 7.4777 6.40338 6.32852 4.87504 6.32852C4.30338 6.32852 3.75504 6.48604 3.29421 6.78938C3.16587 6.87104 3.00838 6.8827 2.86838 6.81854C2.73421 6.75437 2.63505 6.62602 2.61755 6.47435C2.60005 6.31102 2.58838 6.1477 2.58838 5.97854C2.58838 3.0852 5.09671 0.734375 8.17671 0.734375C11.2567 0.734375 13.765 3.0852 13.765 5.97854C13.765 7.5652 13.03 9.02353 11.735 10.021L11.9334 11.6077C11.98 12.0044 11.805 12.3777 11.4725 12.5936C11.3092 12.6986 11.1167 12.7569 10.9242 12.7569ZM8.17087 10.3419C8.25254 10.336 8.33421 10.3594 8.40421 10.4061L10.8484 11.8585C10.9125 11.8994 10.965 11.8819 11 11.8585C11.0292 11.841 11.0759 11.7944 11.0642 11.7127L10.8367 9.86936C10.8192 9.70603 10.8892 9.54855 11.0175 9.45522C12.2075 8.62105 12.89 7.34936 12.89 5.96686C12.89 3.55769 10.7784 1.5977 8.17671 1.5977C5.67421 1.5977 3.62088 3.41772 3.46921 5.70439C3.90671 5.53522 4.37921 5.44188 4.86921 5.44188C6.88171 5.44188 8.51505 6.98185 8.51505 8.87769C8.52088 9.39102 8.39837 9.88686 8.17087 10.3419Z" fill="#D2B6B6"/>
<path d="M3.17153 13.2707C3.01987 13.2707 2.87403 13.2299 2.73986 13.1424C2.47736 12.9732 2.33737 12.6816 2.37237 12.3724L2.48904 11.4741C1.70154 10.8324 1.23486 9.88155 1.23486 8.88405C1.23486 7.74655 1.82987 6.68489 2.82737 6.04906C3.4282 5.65822 4.13986 5.44824 4.8807 5.44824C6.8932 5.44824 8.52653 6.98822 8.52653 8.88405C8.52653 9.65405 8.24653 10.4124 7.7332 11.0132C7.07403 11.8124 6.0882 12.2791 5.0032 12.3141L3.57987 13.1599C3.45153 13.2357 3.31153 13.2707 3.17153 13.2707ZM4.87487 6.32324C4.3032 6.32324 3.75486 6.48073 3.29403 6.78406C2.54736 7.2624 2.10403 8.04405 2.10403 8.88405C2.10403 9.69488 2.5007 10.4357 3.2007 10.9141C3.33487 11.0074 3.40486 11.1649 3.38736 11.3282L3.25903 12.3257L4.6532 11.4974C4.7232 11.4566 4.79903 11.4332 4.87487 11.4332C5.73237 11.4332 6.5432 11.0657 7.05654 10.4416C7.44154 9.98657 7.6457 9.44988 7.6457 8.87821C7.6457 7.47238 6.4032 6.32324 4.87487 6.32324Z" fill="#D2B6B6"/>
</svg>
