<svg width="14" height="14" viewBox="0 0 14 14" fill="none" xmlns="http://www.w3.org/2000/svg">
<path d="M9.22254 11.7715C9.07088 11.7715 8.91337 11.7656 8.74421 11.7481C8.44087 11.7248 8.09671 11.6665 7.74088 11.579L6.76088 11.3456C4.07171 10.7098 3.19088 9.28647 3.82088 6.60314L4.39254 4.15897C4.52088 3.60481 4.67254 3.15564 4.85921 2.78231C5.86254 0.711472 7.78171 0.898139 9.14671 1.21897L10.1209 1.44647C11.4859 1.76731 12.3492 2.27481 12.8334 3.05064C13.3117 3.82647 13.3875 4.82397 13.0667 6.18897L12.495 8.62731C11.9934 10.7623 10.9492 11.7715 9.22254 11.7715ZM7.65338 1.89564C6.67921 1.89564 6.06088 2.29814 5.64671 3.16147C5.49504 3.47647 5.36088 3.86731 5.24421 4.35731L4.67254 6.80147C4.15338 9.00647 4.75421 9.96897 6.95921 10.494L7.93921 10.7273C8.25421 10.8031 8.55171 10.8498 8.82004 10.8731C10.4067 11.0306 11.1942 10.3365 11.6375 8.42897L12.2092 5.99064C12.4717 4.86481 12.4367 4.07731 12.0867 3.51147C11.7367 2.94564 11.0484 2.56064 9.91671 2.29814L8.94254 2.07064C8.45837 1.95397 8.02671 1.89564 7.65338 1.89564Z" fill="white"/>
<path d="M4.85916 12.9795C3.35999 12.9795 2.40332 12.0811 1.79082 10.1853L1.04416 7.88114C0.215823 5.31447 0.956656 3.8678 3.51166 3.03947L4.43332 2.74197C4.73666 2.64864 4.96416 2.58447 5.16832 2.54947C5.33749 2.51447 5.50082 2.57864 5.59999 2.7128C5.69916 2.84697 5.71666 3.02197 5.64666 3.17364C5.49499 3.4828 5.36082 3.87364 5.24999 4.36364L4.67832 6.8078C4.15916 9.0128 4.75999 9.9753 6.96499 10.5003L7.94499 10.7336C8.25999 10.8095 8.55749 10.8561 8.82582 10.8795C9.01249 10.897 9.16416 11.0253 9.21666 11.2061C9.26332 11.387 9.19332 11.5736 9.04166 11.6786C8.65666 11.9411 8.17249 12.1628 7.55999 12.3611L6.63832 12.6645C5.96749 12.8745 5.38416 12.9795 4.85916 12.9795ZM4.53832 3.62864L3.78582 3.87364C1.70332 4.54447 1.20749 5.52447 1.87832 7.6128L2.62499 9.91697C3.30166 11.9995 4.28166 12.5011 6.36416 11.8303L7.28582 11.527C7.32082 11.5153 7.34999 11.5036 7.38499 11.492L6.76666 11.3461C4.07749 10.7103 3.19666 9.28697 3.82666 6.60364L4.39832 4.15947C4.43916 3.9728 4.48582 3.79197 4.53832 3.62864Z" fill="white"/>
<path d="M10.2025 6.1307C10.1675 6.1307 10.1325 6.12487 10.0917 6.11904L7.26255 5.40154C7.02922 5.3432 6.88922 5.10404 6.94755 4.8707C7.00588 4.63737 7.24505 4.49737 7.47838 4.5557L10.3075 5.2732C10.5409 5.33154 10.6809 5.5707 10.6225 5.80404C10.5759 5.99654 10.395 6.1307 10.2025 6.1307Z" fill="white"/>
<path d="M8.49337 8.10268C8.45837 8.10268 8.42337 8.09685 8.38253 8.09102L6.68503 7.65935C6.4517 7.60102 6.3117 7.36185 6.37003 7.12852C6.42837 6.89518 6.66753 6.75518 6.90087 6.81352L8.59837 7.24518C8.8317 7.30352 8.9717 7.54268 8.91337 7.77602C8.8667 7.97435 8.6917 8.10268 8.49337 8.10268Z" fill="white"/>
</svg>
