<svg width="31" height="30" viewBox="0 0 31 30" fill="none" xmlns="http://www.w3.org/2000/svg">
<path d="M23.0004 9.88752C22.9629 9.88752 22.9379 9.88752 22.9004 9.88752H22.8379C20.4754 9.81252 18.7129 7.98751 18.7129 5.73751C18.7129 3.43751 20.5879 1.57501 22.8754 1.57501C25.1629 1.57501 27.0379 3.45001 27.0379 5.73751C27.0254 8.00001 25.2629 9.82502 23.0129 9.90002C23.0129 9.88752 23.0129 9.88752 23.0004 9.88752ZM22.8754 3.43752C21.6129 3.43752 20.5879 4.46252 20.5879 5.72502C20.5879 6.96252 21.5504 7.96252 22.7879 8.01252C22.8004 8.00002 22.9004 8.00002 23.0129 8.01252C24.2254 7.95002 25.1629 6.95002 25.1754 5.72502C25.1754 4.46252 24.1504 3.43752 22.8754 3.43752Z" fill="#E9CB50"/>
<path d="M23.0126 19.1001C22.5251 19.1001 22.0376 19.0626 21.5501 18.9751C21.0376 18.8876 20.7001 18.4001 20.7876 17.8876C20.8751 17.3751 21.3626 17.0376 21.8751 17.1251C23.4126 17.3876 25.0376 17.1001 26.1251 16.3751C26.7126 15.9876 27.0251 15.5001 27.0251 15.0126C27.0251 14.5251 26.7001 14.0501 26.1251 13.6626C25.0376 12.9376 23.3876 12.6501 21.8376 12.9251C21.3251 13.0251 20.8376 12.6751 20.7501 12.1626C20.6626 11.6501 21.0001 11.1626 21.5126 11.0751C23.5501 10.7126 25.6626 11.1001 27.1626 12.1001C28.2626 12.8376 28.9001 13.8876 28.9001 15.0126C28.9001 16.1251 28.2751 17.1876 27.1626 17.9376C26.0251 18.6876 24.5501 19.1001 23.0126 19.1001Z" fill="#E9CB50"/>
<path d="M7.96309 9.8875C7.95059 9.8875 7.93809 9.8875 7.93809 9.8875C5.68809 9.8125 3.92559 7.9875 3.91309 5.7375C3.91309 3.4375 5.78809 1.5625 8.07559 1.5625C10.3631 1.5625 12.2381 3.4375 12.2381 5.725C12.2381 7.9875 10.4756 9.8125 8.22559 9.8875L7.96309 8.95L8.05059 9.8875C8.02559 9.8875 7.98809 9.8875 7.96309 9.8875ZM8.08809 8.0125C8.16309 8.0125 8.22559 8.0125 8.30059 8.025C9.41309 7.975 10.3881 6.975 10.3881 5.7375C10.3881 4.475 9.36309 3.44999 8.10059 3.44999C6.83809 3.44999 5.81309 4.475 5.81309 5.7375C5.81309 6.9625 6.76309 7.95 7.97559 8.025C7.98809 8.0125 8.03809 8.0125 8.08809 8.0125Z" fill="#E9CB50"/>
<path d="M7.95 19.1001C6.4125 19.1001 4.9375 18.6876 3.8 17.9376C2.7 17.2001 2.0625 16.1376 2.0625 15.0126C2.0625 13.9001 2.7 12.8376 3.8 12.1001C5.3 11.1001 7.4125 10.7126 9.45 11.0751C9.9625 11.1626 10.3 11.6501 10.2125 12.1626C10.125 12.6751 9.6375 13.0251 9.125 12.9251C7.575 12.6501 5.9375 12.9376 4.8375 13.6626C4.25 14.0501 3.9375 14.5251 3.9375 15.0126C3.9375 15.5001 4.2625 15.9876 4.8375 16.3751C5.925 17.1001 7.55 17.3876 9.0875 17.1251C9.6 17.0376 10.0875 17.3876 10.175 17.8876C10.2625 18.4001 9.925 18.8876 9.4125 18.9751C8.925 19.0626 8.4375 19.1001 7.95 19.1001Z" fill="#E9CB50"/>
<path d="M15.5004 19.225C15.4629 19.225 15.4379 19.225 15.4004 19.225H15.3379C12.9754 19.15 11.2129 17.325 11.2129 15.075C11.2129 12.775 13.0879 10.9125 15.3754 10.9125C17.6629 10.9125 19.5379 12.7875 19.5379 15.075C19.5254 17.3375 17.7629 19.1625 15.5129 19.2375C15.5129 19.225 15.5129 19.225 15.5004 19.225ZM15.3754 12.775C14.1129 12.775 13.0879 13.8 13.0879 15.0625C13.0879 16.3 14.0504 17.3 15.2879 17.35C15.3004 17.3375 15.4004 17.3375 15.5129 17.35C16.7254 17.2875 17.6629 16.2875 17.6754 15.0625C17.6754 13.8125 16.6504 12.775 15.3754 12.775Z" fill="#E9CB50"/>
<path d="M15.4996 28.45C13.9996 28.45 12.4996 28.0625 11.3371 27.275C10.2371 26.5375 9.59961 25.4875 9.59961 24.3625C9.59961 23.25 10.2246 22.175 11.3371 21.4375C13.6746 19.8875 17.3371 19.8875 19.6621 21.4375C20.7621 22.175 21.3996 23.225 21.3996 24.35C21.3996 25.4625 20.7746 26.5375 19.6621 27.275C18.4996 28.05 16.9996 28.45 15.4996 28.45ZM12.3746 23.0125C11.7871 23.4 11.4746 23.8875 11.4746 24.375C11.4746 24.8625 11.7996 25.3375 12.3746 25.725C14.0621 26.8625 16.9246 26.8625 18.6121 25.725C19.1996 25.3375 19.5121 24.85 19.5121 24.3625C19.5121 23.875 19.1871 23.4 18.6121 23.0125C16.9371 21.875 14.0746 21.8875 12.3746 23.0125Z" fill="#E9CB50"/>
</svg>
