<svg width="138" height="44" viewBox="0 0 138 44" fill="none" xmlns="http://www.w3.org/2000/svg">
<rect width="138" height="44" rx="12" fill="#1F1A1A"/>
<path d="M26.444 17.76V27H25.38V21.19L25.506 18.754H25.492L22.454 27H21.502L18.464 18.754H18.45L18.576 21.19V27H17.512V17.76H19.234L21.264 23.374L21.964 25.684H21.992L22.706 23.388L24.722 17.76H26.444ZM32.0398 19.86C32.7025 19.86 33.2858 20.0047 33.7898 20.294C34.3032 20.5833 34.7045 21.0033 34.9938 21.554C35.2832 22.0953 35.4278 22.744 35.4278 23.5C35.4278 24.256 35.2832 24.9093 34.9938 25.46C34.7045 26.0013 34.3032 26.4167 33.7898 26.706C33.2858 26.9953 32.7025 27.14 32.0398 27.14C31.3865 27.14 30.8032 26.9953 30.2898 26.706C29.7765 26.4167 29.3752 26.0013 29.0858 25.46C28.7965 24.9093 28.6518 24.256 28.6518 23.5C28.6518 22.744 28.7965 22.0953 29.0858 21.554C29.3752 21.0033 29.7765 20.5833 30.2898 20.294C30.8032 20.0047 31.3865 19.86 32.0398 19.86ZM32.0398 20.826C31.5638 20.826 31.1578 20.9333 30.8218 21.148C30.4858 21.3627 30.2245 21.6707 30.0378 22.072C29.8605 22.464 29.7718 22.94 29.7718 23.5C29.7718 24.0507 29.8605 24.5267 30.0378 24.928C30.2245 25.3293 30.4858 25.6373 30.8218 25.852C31.1578 26.0667 31.5638 26.174 32.0398 26.174C32.5158 26.174 32.9218 26.0667 33.2578 25.852C33.5938 25.6373 33.8505 25.3293 34.0278 24.928C34.2145 24.5267 34.3078 24.0507 34.3078 23.5C34.3078 22.94 34.2145 22.464 34.0278 22.072C33.8505 21.6707 33.5938 21.3627 33.2578 21.148C32.9218 20.9333 32.5158 20.826 32.0398 20.826ZM40.0564 27.14C39.375 27.14 38.745 26.9953 38.1664 26.706C37.597 26.4167 37.1584 26.006 36.8504 25.474L37.8024 24.788C38.0077 25.2173 38.3064 25.5533 38.6984 25.796C39.0997 26.0387 39.5804 26.16 40.1404 26.16C40.635 26.16 41.0224 26.0667 41.3024 25.88C41.5824 25.684 41.7224 25.432 41.7224 25.124C41.7224 24.928 41.657 24.7507 41.5264 24.592C41.405 24.424 41.167 24.3027 40.8124 24.228L39.1324 23.878C38.451 23.738 37.961 23.5047 37.6624 23.178C37.373 22.8513 37.2284 22.4453 37.2284 21.96C37.2284 21.5773 37.3357 21.2273 37.5504 20.91C37.7744 20.5927 38.087 20.3407 38.4884 20.154C38.899 19.958 39.3797 19.86 39.9304 19.86C40.621 19.86 41.2044 19.9953 41.6804 20.266C42.1564 20.5367 42.511 20.9193 42.7444 21.414L41.8064 22.03C41.6477 21.6193 41.391 21.3207 41.0364 21.134C40.6817 20.938 40.313 20.84 39.9304 20.84C39.5944 20.84 39.305 20.8867 39.0624 20.98C38.829 21.0733 38.647 21.204 38.5164 21.372C38.395 21.5307 38.3344 21.7127 38.3344 21.918C38.3344 22.1233 38.4044 22.3147 38.5444 22.492C38.6844 22.66 38.9457 22.7813 39.3284 22.856L41.0784 23.22C41.7317 23.3507 42.189 23.5653 42.4504 23.864C42.7117 24.1627 42.8424 24.5267 42.8424 24.956C42.8424 25.3947 42.7257 25.782 42.4924 26.118C42.259 26.4447 41.9324 26.6967 41.5124 26.874C41.0924 27.0513 40.607 27.14 40.0564 27.14ZM46.5712 18.012V25.068C46.5712 25.4133 46.6692 25.67 46.8652 25.838C47.0612 26.006 47.3132 26.09 47.6212 26.09C47.8919 26.09 48.1252 26.0433 48.3212 25.95C48.5172 25.8567 48.6945 25.7307 48.8532 25.572L49.2452 26.51C49.0305 26.706 48.7739 26.86 48.4752 26.972C48.1859 27.084 47.8499 27.14 47.4672 27.14C47.1125 27.14 46.7812 27.0793 46.4732 26.958C46.1652 26.8273 45.9179 26.6267 45.7312 26.356C45.5539 26.076 45.4605 25.712 45.4512 25.264V18.32L46.5712 18.012ZM49.1192 20V20.966H44.0512V20H49.1192ZM59.2659 17.76C60.2086 17.76 60.9646 18.0027 61.5339 18.488C62.1032 18.9733 62.3879 19.6313 62.3879 20.462C62.3879 21.2927 62.0986 21.9413 61.5199 22.408C60.9506 22.8653 60.1946 23.094 59.2519 23.094L59.1539 23.164H56.8859V27H55.7659V17.76H59.2659ZM59.2519 22.114C59.9146 22.114 60.4046 21.9787 60.7219 21.708C61.0486 21.428 61.2119 21.0127 61.2119 20.462C61.2119 19.9113 61.0486 19.5007 60.7219 19.23C60.4046 18.95 59.9146 18.81 59.2519 18.81H56.8859V22.114H59.2519ZM59.8959 22.338L62.9479 27H61.6179L58.9579 22.954L59.8959 22.338ZM67.56 27.14C66.8974 27.14 66.3047 26.9953 65.782 26.706C65.2687 26.4167 64.8674 26.0013 64.578 25.46C64.2887 24.9093 64.144 24.256 64.144 23.5C64.144 22.744 64.2887 22.0953 64.578 21.554C64.8674 21.0033 65.264 20.5833 65.768 20.294C66.272 20.0047 66.846 19.86 67.49 19.86C68.1434 19.86 68.6987 20 69.156 20.28C69.6227 20.56 69.9774 20.9427 70.22 21.428C70.4627 21.904 70.584 22.4407 70.584 23.038C70.584 23.1967 70.5794 23.3413 70.57 23.472C70.5607 23.6027 70.5467 23.7193 70.528 23.822H64.872V22.828H70.038L69.464 22.94C69.464 22.268 69.2774 21.75 68.904 21.386C68.54 21.022 68.0594 20.84 67.462 20.84C67.0047 20.84 66.608 20.9473 66.272 21.162C65.9454 21.3673 65.6887 21.6707 65.502 22.072C65.3247 22.464 65.236 22.94 65.236 23.5C65.236 24.0507 65.3294 24.5267 65.516 24.928C65.7027 25.3293 65.964 25.6373 66.3 25.852C66.6454 26.0573 67.056 26.16 67.532 26.16C68.0454 26.16 68.4607 26.062 68.778 25.866C69.1047 25.67 69.366 25.404 69.562 25.068L70.444 25.586C70.2667 25.9033 70.038 26.1787 69.758 26.412C69.4874 26.6453 69.1654 26.8273 68.792 26.958C68.428 27.0793 68.0174 27.14 67.56 27.14ZM75.6121 19.86C76.0974 19.86 76.5221 19.9347 76.8861 20.084C77.2594 20.2333 77.5814 20.448 77.8521 20.728C78.1228 21.008 78.3421 21.3393 78.5101 21.722L77.4461 22.226C77.2968 21.778 77.0681 21.4373 76.7601 21.204C76.4614 20.9613 76.0694 20.84 75.5841 20.84C75.1174 20.84 74.7161 20.9473 74.3801 21.162C74.0441 21.3673 73.7874 21.6707 73.6101 22.072C73.4328 22.464 73.3441 22.94 73.3441 23.5C73.3441 24.0507 73.4328 24.5267 73.6101 24.928C73.7874 25.3293 74.0441 25.6373 74.3801 25.852C74.7161 26.0573 75.1174 26.16 75.5841 26.16C75.9481 26.16 76.2608 26.104 76.5221 25.992C76.7928 25.88 77.0121 25.7167 77.1801 25.502C77.3574 25.2873 77.4788 25.026 77.5441 24.718L78.5801 25.082C78.4214 25.5113 78.2021 25.88 77.9221 26.188C77.6514 26.496 77.3201 26.734 76.9281 26.902C76.5454 27.0607 76.1068 27.14 75.6121 27.14C74.9588 27.14 74.3754 26.9953 73.8621 26.706C73.3488 26.4167 72.9474 26.0013 72.6581 25.46C72.3688 24.9093 72.2241 24.256 72.2241 23.5C72.2241 22.744 72.3688 22.0953 72.6581 21.554C72.9474 21.0033 73.3488 20.5833 73.8621 20.294C74.3754 20.0047 74.9588 19.86 75.6121 19.86ZM83.4741 27.14C82.8114 27.14 82.2188 26.9953 81.6961 26.706C81.1828 26.4167 80.7814 26.0013 80.4921 25.46C80.2028 24.9093 80.0581 24.256 80.0581 23.5C80.0581 22.744 80.2028 22.0953 80.4921 21.554C80.7814 21.0033 81.1781 20.5833 81.6821 20.294C82.1861 20.0047 82.7601 19.86 83.4041 19.86C84.0574 19.86 84.6128 20 85.0701 20.28C85.5368 20.56 85.8914 20.9427 86.1341 21.428C86.3768 21.904 86.4981 22.4407 86.4981 23.038C86.4981 23.1967 86.4934 23.3413 86.4841 23.472C86.4748 23.6027 86.4608 23.7193 86.4421 23.822H80.7861V22.828H85.9521L85.3781 22.94C85.3781 22.268 85.1914 21.75 84.8181 21.386C84.4541 21.022 83.9734 20.84 83.3761 20.84C82.9188 20.84 82.5221 20.9473 82.1861 21.162C81.8594 21.3673 81.6028 21.6707 81.4161 22.072C81.2388 22.464 81.1501 22.94 81.1501 23.5C81.1501 24.0507 81.2434 24.5267 81.4301 24.928C81.6168 25.3293 81.8781 25.6373 82.2141 25.852C82.5594 26.0573 82.9701 26.16 83.4461 26.16C83.9594 26.16 84.3748 26.062 84.6921 25.866C85.0188 25.67 85.2801 25.404 85.4761 25.068L86.3581 25.586C86.1808 25.9033 85.9521 26.1787 85.6721 26.412C85.4014 26.6453 85.0794 26.8273 84.7061 26.958C84.3421 27.0793 83.9314 27.14 83.4741 27.14ZM88.6282 27V20H89.6082L89.7062 21.568L89.5242 21.414C89.6735 21.0407 89.8742 20.742 90.1262 20.518C90.3782 20.2847 90.6675 20.1167 90.9942 20.014C91.3302 19.9113 91.6755 19.86 92.0302 19.86C92.5342 19.86 92.9915 19.958 93.4022 20.154C93.8128 20.3407 94.1395 20.63 94.3822 21.022C94.6342 21.414 94.7602 21.9133 94.7602 22.52V27H93.6402V22.912C93.6402 22.1373 93.4722 21.6007 93.1362 21.302C92.8095 20.994 92.4035 20.84 91.9182 20.84C91.5822 20.84 91.2462 20.9193 90.9102 21.078C90.5742 21.2367 90.2942 21.4933 90.0702 21.848C89.8555 22.2027 89.7482 22.6787 89.7482 23.276V27H88.6282ZM98.8524 18.012V25.068C98.8524 25.4133 98.9504 25.67 99.1464 25.838C99.3424 26.006 99.5944 26.09 99.9024 26.09C100.173 26.09 100.406 26.0433 100.602 25.95C100.798 25.8567 100.976 25.7307 101.134 25.572L101.526 26.51C101.312 26.706 101.055 26.86 100.756 26.972C100.467 27.084 100.131 27.14 99.7484 27.14C99.3938 27.14 99.0624 27.0793 98.7544 26.958C98.4464 26.8273 98.1991 26.6267 98.0124 26.356C97.8351 26.076 97.7418 25.712 97.7324 25.264V18.32L98.8524 18.012ZM101.4 20V20.966H96.3324V20H101.4Z" fill="#B29A9A"/>
<path d="M112.625 17.625L121.526 26.4011" stroke="#B29A9A" stroke-width="1.2" stroke-linecap="round" stroke-linejoin="round"/>
<path d="M121.526 17.625L112.625 26.4011" stroke="#B29A9A" stroke-width="1.2" stroke-linecap="round" stroke-linejoin="round"/>
</svg>
