<svg width="205" height="44" viewBox="0 0 205 44" fill="none" xmlns="http://www.w3.org/2000/svg">
<rect width="205" height="44" rx="12" fill="#1F1A1A"/>
<path d="M24.764 17.76V27H23.644V17.76H24.764ZM18.632 17.76V27H17.512V17.76H18.632ZM24.162 21.792V22.842H18.1V21.792H24.162ZM30.3999 27.14C29.7372 27.14 29.1445 26.9953 28.6219 26.706C28.1085 26.4167 27.7072 26.0013 27.4179 25.46C27.1285 24.9093 26.9839 24.256 26.9839 23.5C26.9839 22.744 27.1285 22.0953 27.4179 21.554C27.7072 21.0033 28.1039 20.5833 28.6079 20.294C29.1119 20.0047 29.6859 19.86 30.3299 19.86C30.9832 19.86 31.5385 20 31.9959 20.28C32.4625 20.56 32.8172 20.9427 33.0599 21.428C33.3025 21.904 33.4239 22.4407 33.4239 23.038C33.4239 23.1967 33.4192 23.3413 33.4099 23.472C33.4005 23.6027 33.3865 23.7193 33.3679 23.822H27.7119V22.828H32.8779L32.3039 22.94C32.3039 22.268 32.1172 21.75 31.7439 21.386C31.3799 21.022 30.8992 20.84 30.3019 20.84C29.8445 20.84 29.4479 20.9473 29.1119 21.162C28.7852 21.3673 28.5285 21.6707 28.3419 22.072C28.1645 22.464 28.0759 22.94 28.0759 23.5C28.0759 24.0507 28.1692 24.5267 28.3559 24.928C28.5425 25.3293 28.8039 25.6373 29.1399 25.852C29.4852 26.0573 29.8959 26.16 30.3719 26.16C30.8852 26.16 31.3005 26.062 31.6179 25.866C31.9445 25.67 32.2059 25.404 32.4019 25.068L33.2839 25.586C33.1065 25.9033 32.8779 26.1787 32.5979 26.412C32.3272 26.6453 32.0052 26.8273 31.6319 26.958C31.2679 27.0793 30.8572 27.14 30.3999 27.14ZM37.0009 18.012V25.068C37.0009 25.4133 37.0989 25.67 37.2949 25.838C37.4909 26.006 37.7429 26.09 38.0509 26.09C38.3215 26.09 38.5549 26.0433 38.7509 25.95C38.9469 25.8567 39.1242 25.7307 39.2829 25.572L39.6749 26.51C39.4602 26.706 39.2035 26.86 38.9049 26.972C38.6155 27.084 38.2795 27.14 37.8969 27.14C37.5422 27.14 37.2109 27.0793 36.9029 26.958C36.5949 26.8273 36.3475 26.6267 36.1609 26.356C35.9835 26.076 35.8902 25.712 35.8809 25.264V18.32L37.0009 18.012ZM39.5489 20V20.966H34.4809V20H39.5489ZM44.1401 27.14C43.4774 27.14 42.8848 26.9953 42.3621 26.706C41.8488 26.4167 41.4474 26.0013 41.1581 25.46C40.8688 24.9093 40.7241 24.256 40.7241 23.5C40.7241 22.744 40.8688 22.0953 41.1581 21.554C41.4474 21.0033 41.8441 20.5833 42.3481 20.294C42.8521 20.0047 43.4261 19.86 44.0701 19.86C44.7234 19.86 45.2788 20 45.7361 20.28C46.2028 20.56 46.5574 20.9427 46.8001 21.428C47.0428 21.904 47.1641 22.4407 47.1641 23.038C47.1641 23.1967 47.1594 23.3413 47.1501 23.472C47.1408 23.6027 47.1268 23.7193 47.1081 23.822H41.4521V22.828H46.6181L46.0441 22.94C46.0441 22.268 45.8574 21.75 45.4841 21.386C45.1201 21.022 44.6394 20.84 44.0421 20.84C43.5848 20.84 43.1881 20.9473 42.8521 21.162C42.5254 21.3673 42.2688 21.6707 42.0821 22.072C41.9048 22.464 41.8161 22.94 41.8161 23.5C41.8161 24.0507 41.9094 24.5267 42.0961 24.928C42.2828 25.3293 42.5441 25.6373 42.8801 25.852C43.2254 26.0573 43.6361 26.16 44.1121 26.16C44.6254 26.16 45.0408 26.062 45.3581 25.866C45.6848 25.67 45.9461 25.404 46.1421 25.068L47.0241 25.586C46.8468 25.9033 46.6181 26.1787 46.3381 26.412C46.0674 26.6453 45.7454 26.8273 45.3721 26.958C45.0081 27.0793 44.5974 27.14 44.1401 27.14ZM49.2942 27V20H50.2042L50.3582 21.148C50.5542 20.7187 50.8389 20.3967 51.2122 20.182C51.5949 19.9673 52.0569 19.86 52.5982 19.86C52.7195 19.86 52.8502 19.8693 52.9902 19.888C53.1395 19.9067 53.2655 19.944 53.3682 20L53.1722 21.022C53.0695 20.9847 52.9575 20.9567 52.8362 20.938C52.7149 20.9193 52.5422 20.91 52.3182 20.91C52.0289 20.91 51.7349 20.994 51.4362 21.162C51.1469 21.33 50.9042 21.5867 50.7082 21.932C50.5122 22.268 50.4142 22.6973 50.4142 23.22V27H49.2942ZM57.6883 19.86C58.3509 19.86 58.9343 20.0047 59.4383 20.294C59.9516 20.5833 60.3529 21.0033 60.6423 21.554C60.9316 22.0953 61.0763 22.744 61.0763 23.5C61.0763 24.256 60.9316 24.9093 60.6423 25.46C60.3529 26.0013 59.9516 26.4167 59.4383 26.706C58.9343 26.9953 58.3509 27.14 57.6883 27.14C57.0349 27.14 56.4516 26.9953 55.9383 26.706C55.4249 26.4167 55.0236 26.0013 54.7343 25.46C54.4449 24.9093 54.3003 24.256 54.3003 23.5C54.3003 22.744 54.4449 22.0953 54.7343 21.554C55.0236 21.0033 55.4249 20.5833 55.9383 20.294C56.4516 20.0047 57.0349 19.86 57.6883 19.86ZM57.6883 20.826C57.2123 20.826 56.8063 20.9333 56.4703 21.148C56.1343 21.3627 55.8729 21.6707 55.6863 22.072C55.5089 22.464 55.4203 22.94 55.4203 23.5C55.4203 24.0507 55.5089 24.5267 55.6863 24.928C55.8729 25.3293 56.1343 25.6373 56.4703 25.852C56.8063 26.0667 57.2123 26.174 57.6883 26.174C58.1643 26.174 58.5703 26.0667 58.9063 25.852C59.2423 25.6373 59.4989 25.3293 59.6763 24.928C59.8629 24.5267 59.9563 24.0507 59.9563 23.5C59.9563 22.94 59.8629 22.464 59.6763 22.072C59.4989 21.6707 59.2423 21.3627 58.9063 21.148C58.5703 20.9333 58.1643 20.826 57.6883 20.826ZM65.7048 27.14C65.0235 27.14 64.3935 26.9953 63.8148 26.706C63.2455 26.4167 62.8068 26.006 62.4988 25.474L63.4508 24.788C63.6561 25.2173 63.9548 25.5533 64.3468 25.796C64.7481 26.0387 65.2288 26.16 65.7888 26.16C66.2835 26.16 66.6708 26.0667 66.9508 25.88C67.2308 25.684 67.3708 25.432 67.3708 25.124C67.3708 24.928 67.3055 24.7507 67.1748 24.592C67.0535 24.424 66.8155 24.3027 66.4608 24.228L64.7808 23.878C64.0995 23.738 63.6095 23.5047 63.3108 23.178C63.0215 22.8513 62.8768 22.4453 62.8768 21.96C62.8768 21.5773 62.9841 21.2273 63.1988 20.91C63.4228 20.5927 63.7355 20.3407 64.1368 20.154C64.5475 19.958 65.0281 19.86 65.5788 19.86C66.2695 19.86 66.8528 19.9953 67.3288 20.266C67.8048 20.5367 68.1595 20.9193 68.3928 21.414L67.4548 22.03C67.2961 21.6193 67.0395 21.3207 66.6848 21.134C66.3301 20.938 65.9615 20.84 65.5788 20.84C65.2428 20.84 64.9535 20.8867 64.7108 20.98C64.4775 21.0733 64.2955 21.204 64.1648 21.372C64.0435 21.5307 63.9828 21.7127 63.9828 21.918C63.9828 22.1233 64.0528 22.3147 64.1928 22.492C64.3328 22.66 64.5941 22.7813 64.9768 22.856L66.7268 23.22C67.3801 23.3507 67.8375 23.5653 68.0988 23.864C68.3601 24.1627 68.4908 24.5267 68.4908 24.956C68.4908 25.3947 68.3741 25.782 68.1408 26.118C67.9075 26.4447 67.5808 26.6967 67.1608 26.874C66.7408 27.0513 66.2555 27.14 65.7048 27.14ZM73.4936 27.14C72.831 27.14 72.2383 26.9953 71.7156 26.706C71.2023 26.4167 70.801 26.0013 70.5116 25.46C70.2223 24.9093 70.0776 24.256 70.0776 23.5C70.0776 22.744 70.2223 22.0953 70.5116 21.554C70.801 21.0033 71.1976 20.5833 71.7016 20.294C72.2056 20.0047 72.7796 19.86 73.4236 19.86C74.077 19.86 74.6323 20 75.0896 20.28C75.5563 20.56 75.911 20.9427 76.1536 21.428C76.3963 21.904 76.5176 22.4407 76.5176 23.038C76.5176 23.1967 76.513 23.3413 76.5036 23.472C76.4943 23.6027 76.4803 23.7193 76.4616 23.822H70.8056V22.828H75.9716L75.3976 22.94C75.3976 22.268 75.211 21.75 74.8376 21.386C74.4736 21.022 73.993 20.84 73.3956 20.84C72.9383 20.84 72.5416 20.9473 72.2056 21.162C71.879 21.3673 71.6223 21.6707 71.4356 22.072C71.2583 22.464 71.1696 22.94 71.1696 23.5C71.1696 24.0507 71.263 24.5267 71.4496 24.928C71.6363 25.3293 71.8976 25.6373 72.2336 25.852C72.579 26.0573 72.9896 26.16 73.4656 26.16C73.979 26.16 74.3943 26.062 74.7116 25.866C75.0383 25.67 75.2996 25.404 75.4956 25.068L76.3776 25.586C76.2003 25.9033 75.9716 26.1787 75.6916 26.412C75.421 26.6453 75.099 26.8273 74.7256 26.958C74.3616 27.0793 73.951 27.14 73.4936 27.14ZM79.0599 20L81.1459 22.926L81.2159 23.024L84.0859 27H82.7139L80.5439 23.962L80.4179 23.808L77.6599 20H79.0599ZM84.0439 20L81.2719 23.738H81.2019L78.7939 27H77.4919L80.5439 22.982H80.6279L82.7279 20H84.0439ZM88.3868 27.14C87.9388 27.14 87.5141 27.056 87.1128 26.888C86.7208 26.72 86.3988 26.4493 86.1468 26.076C85.9041 25.6933 85.7828 25.1987 85.7828 24.592V20H86.9028V24.298C86.9028 25.0073 87.0568 25.4973 87.3648 25.768C87.6728 26.0293 88.1068 26.16 88.6668 26.16C88.9281 26.16 89.1848 26.118 89.4368 26.034C89.6888 25.9407 89.9128 25.8007 90.1088 25.614C90.3141 25.418 90.4728 25.1707 90.5848 24.872C90.7061 24.5733 90.7668 24.2187 90.7668 23.808V20H91.8868V27H90.9068L90.8368 25.936C90.5941 26.356 90.2628 26.664 89.8428 26.86C89.4321 27.0467 88.9468 27.14 88.3868 27.14ZM98.5814 22.478C98.5814 21.9553 98.4414 21.554 98.1614 21.274C97.8814 20.9847 97.4847 20.84 96.9714 20.84C96.4861 20.84 96.0754 20.9473 95.7394 21.162C95.4034 21.3673 95.1561 21.7033 94.9974 22.17L94.0874 21.61C94.2741 21.0873 94.6194 20.6673 95.1234 20.35C95.6274 20.0233 96.2527 19.86 96.9994 19.86C97.5034 19.86 97.9607 19.9487 98.3714 20.126C98.7821 20.294 99.1041 20.5553 99.3374 20.91C99.5801 21.2553 99.7014 21.7033 99.7014 22.254V25.642C99.7014 25.978 99.8787 26.146 100.233 26.146C100.411 26.146 100.583 26.1227 100.751 26.076L100.695 26.958C100.509 27.0513 100.266 27.098 99.9674 27.098C99.6967 27.098 99.4541 27.0467 99.2394 26.944C99.0247 26.8413 98.8567 26.6873 98.7354 26.482C98.6141 26.2673 98.5534 26.0013 98.5534 25.684V25.544L98.8334 25.586C98.7214 25.95 98.5301 26.2487 98.2594 26.482C97.9887 26.706 97.6854 26.874 97.3494 26.986C97.0134 27.0887 96.6821 27.14 96.3554 27.14C95.9447 27.14 95.5621 27.07 95.2074 26.93C94.8527 26.79 94.5681 26.58 94.3534 26.3C94.1481 26.0107 94.0454 25.656 94.0454 25.236C94.0454 24.7133 94.2181 24.284 94.5634 23.948C94.9181 23.6027 95.4081 23.3693 96.0334 23.248L98.8054 22.702V23.626L96.5514 24.088C96.0941 24.1813 95.7534 24.312 95.5294 24.48C95.3054 24.648 95.1934 24.8813 95.1934 25.18C95.1934 25.4693 95.3054 25.7073 95.5294 25.894C95.7627 26.0713 96.0894 26.16 96.5094 26.16C96.7801 26.16 97.0367 26.1273 97.2794 26.062C97.5314 25.9873 97.7554 25.88 97.9514 25.74C98.1474 25.5907 98.3014 25.4087 98.4134 25.194C98.5254 24.97 98.5814 24.7087 98.5814 24.41V22.478ZM103.487 16.78V25.222C103.487 25.5767 103.552 25.824 103.683 25.964C103.814 26.0947 104.024 26.16 104.313 26.16C104.5 26.16 104.654 26.146 104.775 26.118C104.896 26.09 105.06 26.0387 105.265 25.964L105.083 26.944C104.934 27.0093 104.77 27.056 104.593 27.084C104.416 27.1213 104.234 27.14 104.047 27.14C103.478 27.14 103.053 26.986 102.773 26.678C102.502 26.37 102.367 25.8987 102.367 25.264V16.78H103.487ZM109.25 16.486L109.894 17.13C109.278 17.69 108.788 18.2827 108.424 18.908C108.06 19.524 107.799 20.1773 107.64 20.868C107.482 21.5493 107.402 22.282 107.402 23.066C107.402 23.8407 107.482 24.5733 107.64 25.264C107.799 25.9547 108.06 26.608 108.424 27.224C108.788 27.84 109.278 28.4327 109.894 29.002L109.25 29.646C108.261 28.7873 107.514 27.8073 107.01 26.706C106.506 25.5953 106.254 24.382 106.254 23.066C106.254 21.75 106.506 20.5367 107.01 19.426C107.514 18.3153 108.261 17.3353 109.25 16.486ZM114.378 17.62C115.19 17.62 115.89 17.788 116.478 18.124C117.066 18.4507 117.556 18.936 117.948 19.58L117.01 20.308C116.665 19.7107 116.273 19.2907 115.834 19.048C115.405 18.796 114.882 18.67 114.266 18.67C113.772 18.67 113.361 18.74 113.034 18.88C112.717 19.02 112.484 19.2067 112.334 19.44C112.185 19.664 112.11 19.9207 112.11 20.21C112.11 20.5367 112.213 20.826 112.418 21.078C112.624 21.3207 113.034 21.512 113.65 21.652L115.652 22.1C116.539 22.296 117.155 22.5947 117.5 22.996C117.855 23.388 118.032 23.878 118.032 24.466C118.032 24.9887 117.883 25.4553 117.584 25.866C117.295 26.2673 116.884 26.58 116.352 26.804C115.82 27.028 115.195 27.14 114.476 27.14C113.804 27.14 113.212 27.0513 112.698 26.874C112.194 26.6873 111.76 26.44 111.396 26.132C111.032 25.824 110.734 25.4787 110.5 25.096L111.48 24.298C111.658 24.6527 111.886 24.9653 112.166 25.236C112.446 25.5067 112.782 25.7167 113.174 25.866C113.576 26.0153 114.033 26.09 114.546 26.09C115.022 26.09 115.433 26.034 115.778 25.922C116.133 25.8007 116.404 25.628 116.59 25.404C116.777 25.1707 116.87 24.8907 116.87 24.564C116.87 24.2653 116.772 23.9993 116.576 23.766C116.38 23.5233 116.012 23.3413 115.47 23.22L113.3 22.73C112.731 22.5993 112.269 22.422 111.914 22.198C111.569 21.9647 111.317 21.694 111.158 21.386C111.009 21.0687 110.934 20.728 110.934 20.364C110.934 19.8693 111.07 19.4167 111.34 19.006C111.62 18.586 112.017 18.25 112.53 17.998C113.053 17.746 113.669 17.62 114.378 17.62ZM121.821 18.012V25.068C121.821 25.4133 121.919 25.67 122.115 25.838C122.311 26.006 122.563 26.09 122.871 26.09C123.142 26.09 123.375 26.0433 123.571 25.95C123.767 25.8567 123.945 25.7307 124.103 25.572L124.495 26.51C124.281 26.706 124.024 26.86 123.725 26.972C123.436 27.084 123.1 27.14 122.717 27.14C122.363 27.14 122.031 27.0793 121.723 26.958C121.415 26.8273 121.168 26.6267 120.981 26.356C120.804 26.076 120.711 25.712 120.701 25.264V18.32L121.821 18.012ZM124.369 20V20.966H119.301V20H124.369ZM126.034 27V20H126.944L127.098 21.148C127.294 20.7187 127.579 20.3967 127.952 20.182C128.335 19.9673 128.797 19.86 129.338 19.86C129.46 19.86 129.59 19.8693 129.73 19.888C129.88 19.9067 130.006 19.944 130.108 20L129.912 21.022C129.81 20.9847 129.698 20.9567 129.576 20.938C129.455 20.9193 129.282 20.91 129.058 20.91C128.769 20.91 128.475 20.994 128.176 21.162C127.887 21.33 127.644 21.5867 127.448 21.932C127.252 22.268 127.154 22.6973 127.154 23.22V27H126.034ZM135.646 22.478C135.646 21.9553 135.506 21.554 135.226 21.274C134.946 20.9847 134.549 20.84 134.036 20.84C133.551 20.84 133.14 20.9473 132.804 21.162C132.468 21.3673 132.221 21.7033 132.062 22.17L131.152 21.61C131.339 21.0873 131.684 20.6673 132.188 20.35C132.692 20.0233 133.317 19.86 134.064 19.86C134.568 19.86 135.025 19.9487 135.436 20.126C135.847 20.294 136.169 20.5553 136.402 20.91C136.645 21.2553 136.766 21.7033 136.766 22.254V25.642C136.766 25.978 136.943 26.146 137.298 26.146C137.475 26.146 137.648 26.1227 137.816 26.076L137.76 26.958C137.573 27.0513 137.331 27.098 137.032 27.098C136.761 27.098 136.519 27.0467 136.304 26.944C136.089 26.8413 135.921 26.6873 135.8 26.482C135.679 26.2673 135.618 26.0013 135.618 25.684V25.544L135.898 25.586C135.786 25.95 135.595 26.2487 135.324 26.482C135.053 26.706 134.75 26.874 134.414 26.986C134.078 27.0887 133.747 27.14 133.42 27.14C133.009 27.14 132.627 27.07 132.272 26.93C131.917 26.79 131.633 26.58 131.418 26.3C131.213 26.0107 131.11 25.656 131.11 25.236C131.11 24.7133 131.283 24.284 131.628 23.948C131.983 23.6027 132.473 23.3693 133.098 23.248L135.87 22.702V23.626L133.616 24.088C133.159 24.1813 132.818 24.312 132.594 24.48C132.37 24.648 132.258 24.8813 132.258 25.18C132.258 25.4693 132.37 25.7073 132.594 25.894C132.827 26.0713 133.154 26.16 133.574 26.16C133.845 26.16 134.101 26.1273 134.344 26.062C134.596 25.9873 134.82 25.88 135.016 25.74C135.212 25.5907 135.366 25.4087 135.478 25.194C135.59 24.97 135.646 24.7087 135.646 24.41V22.478ZM140.048 18.656C139.796 18.656 139.59 18.5813 139.432 18.432C139.282 18.2733 139.208 18.068 139.208 17.816C139.208 17.564 139.282 17.3633 139.432 17.214C139.59 17.0553 139.796 16.976 140.048 16.976C140.3 16.976 140.5 17.0553 140.65 17.214C140.808 17.3633 140.888 17.564 140.888 17.816C140.888 18.068 140.808 18.2733 140.65 18.432C140.5 18.5813 140.3 18.656 140.048 18.656ZM140.608 20V27H139.488V20H140.608ZM149.1 18.712L149.352 19.706C149.343 19.706 149.329 19.706 149.31 19.706C149.292 19.706 149.273 19.706 149.254 19.706C148.797 19.706 148.442 19.7993 148.19 19.986C147.948 20.1633 147.826 20.4527 147.826 20.854L147.14 20.504C147.14 20.14 147.224 19.8227 147.392 19.552C147.56 19.2813 147.789 19.076 148.078 18.936C148.368 18.7867 148.685 18.712 149.03 18.712C149.04 18.712 149.049 18.712 149.058 18.712C149.077 18.712 149.091 18.712 149.1 18.712ZM146.972 26.104C147.635 26.104 148.153 26.258 148.526 26.566C148.9 26.8647 149.086 27.266 149.086 27.77C149.086 28.2273 148.932 28.624 148.624 28.96C148.326 29.296 147.92 29.5527 147.406 29.73C146.902 29.9167 146.333 30.01 145.698 30.01C144.597 30.01 143.771 29.8233 143.22 29.45C142.679 29.0767 142.408 28.6287 142.408 28.106C142.408 27.7327 142.53 27.3967 142.772 27.098C143.024 26.8087 143.444 26.6453 144.032 26.608L143.934 26.818C143.617 26.734 143.346 26.594 143.122 26.398C142.908 26.1927 142.8 25.8987 142.8 25.516C142.8 25.1333 142.94 24.8067 143.22 24.536C143.51 24.256 143.934 24.0833 144.494 24.018L145.236 24.396H145.096C144.639 24.4427 144.312 24.5593 144.116 24.746C143.93 24.9233 143.836 25.1193 143.836 25.334C143.836 25.5953 143.93 25.7913 144.116 25.922C144.312 26.0433 144.583 26.104 144.928 26.104H146.972ZM145.684 29.072C146.226 29.072 146.669 29.016 147.014 28.904C147.369 28.792 147.63 28.6473 147.798 28.47C147.966 28.2927 148.05 28.1013 148.05 27.896C148.05 27.644 147.948 27.4433 147.742 27.294C147.546 27.1447 147.187 27.07 146.664 27.07H144.508C144.21 27.07 143.958 27.1447 143.752 27.294C143.547 27.4527 143.444 27.6673 143.444 27.938C143.444 28.2833 143.64 28.5587 144.032 28.764C144.434 28.9693 144.984 29.072 145.684 29.072ZM145.586 19.86C146.146 19.86 146.641 19.9627 147.07 20.168C147.509 20.364 147.85 20.6393 148.092 20.994C148.335 21.3487 148.456 21.7593 148.456 22.226C148.456 22.6833 148.335 23.094 148.092 23.458C147.85 23.8127 147.509 24.0927 147.07 24.298C146.641 24.494 146.146 24.592 145.586 24.592C144.662 24.592 143.953 24.3727 143.458 23.934C142.964 23.486 142.716 22.9167 142.716 22.226C142.716 21.7593 142.838 21.3487 143.08 20.994C143.332 20.6393 143.673 20.364 144.102 20.168C144.532 19.9627 145.026 19.86 145.586 19.86ZM145.586 20.77C145.101 20.77 144.695 20.9053 144.368 21.176C144.042 21.4373 143.878 21.7873 143.878 22.226C143.878 22.6553 144.042 23.0053 144.368 23.276C144.695 23.5467 145.101 23.682 145.586 23.682C146.072 23.682 146.478 23.5467 146.804 23.276C147.131 23.0053 147.294 22.6553 147.294 22.226C147.294 21.7873 147.131 21.4373 146.804 21.176C146.478 20.9053 146.072 20.77 145.586 20.77ZM150.657 27V16.78H151.777V21.05C152.02 20.63 152.342 20.3267 152.743 20.14C153.145 19.9533 153.583 19.86 154.059 19.86C154.563 19.86 155.021 19.958 155.431 20.154C155.842 20.3407 156.169 20.63 156.411 21.022C156.663 21.414 156.789 21.9133 156.789 22.52V27H155.669V22.912C155.669 22.1373 155.501 21.6007 155.165 21.302C154.839 20.994 154.433 20.84 153.947 20.84C153.611 20.84 153.275 20.9193 152.939 21.078C152.603 21.2367 152.323 21.498 152.099 21.862C151.885 22.2167 151.777 22.6927 151.777 23.29V27H150.657ZM160.882 18.012V25.068C160.882 25.4133 160.98 25.67 161.176 25.838C161.372 26.006 161.624 26.09 161.932 26.09C162.202 26.09 162.436 26.0433 162.632 25.95C162.828 25.8567 163.005 25.7307 163.164 25.572L163.556 26.51C163.341 26.706 163.084 26.86 162.786 26.972C162.496 27.084 162.16 27.14 161.778 27.14C161.423 27.14 161.092 27.0793 160.784 26.958C160.476 26.8273 160.228 26.6267 160.042 26.356C159.864 26.076 159.771 25.712 159.762 25.264V18.32L160.882 18.012ZM163.43 20V20.966H158.362V20H163.43ZM164.542 29.646L163.898 29.002C164.514 28.4327 165.004 27.84 165.368 27.224C165.732 26.608 165.994 25.9547 166.152 25.264C166.311 24.5733 166.39 23.8407 166.39 23.066C166.39 22.282 166.311 21.5493 166.152 20.868C165.994 20.1773 165.732 19.524 165.368 18.908C165.004 18.2827 164.514 17.69 163.898 17.13L164.542 16.486C165.532 17.3353 166.278 18.3153 166.782 19.426C167.286 20.5367 167.538 21.75 167.538 23.066C167.538 24.382 167.286 25.5953 166.782 26.706C166.278 27.8073 165.532 28.7873 164.542 29.646Z" fill="#B29A9A"/>
<path d="M179.625 17.625L188.526 26.4011" stroke="#B29A9A" stroke-width="1.2" stroke-linecap="round" stroke-linejoin="round"/>
<path d="M188.526 17.625L179.625 26.4011" stroke="#B29A9A" stroke-width="1.2" stroke-linecap="round" stroke-linejoin="round"/>
</svg>
