<svg width="14" height="14" viewBox="0 0 14 14" fill="none" xmlns="http://www.w3.org/2000/svg">
<path d="M9.44413 1.16675H4.55579C2.43246 1.16675 1.16663 2.43258 1.16663 4.55591V9.43842C1.16663 11.5676 2.43246 12.8334 4.55579 12.8334H9.43829C11.5616 12.8334 12.8275 11.5676 12.8275 9.44425V4.55591C12.8333 2.43258 11.5675 1.16675 9.44413 1.16675ZM7.77579 9.91675H6.21829C5.97913 9.91675 5.78079 9.71842 5.78079 9.47925C5.78079 9.24008 5.97913 9.04175 6.21829 9.04175H7.77579C8.01496 9.04175 8.21329 9.24008 8.21329 9.47925C8.21329 9.71842 8.02079 9.91675 7.77579 9.91675ZM9.33329 7.43758H4.66663C4.42746 7.43758 4.22913 7.23925 4.22913 7.00008C4.22913 6.76092 4.42746 6.56258 4.66663 6.56258H9.33329C9.57246 6.56258 9.77079 6.76092 9.77079 7.00008C9.77079 7.23925 9.57246 7.43758 9.33329 7.43758ZM10.5 4.95842H3.49996C3.26079 4.95842 3.06246 4.76008 3.06246 4.52092C3.06246 4.28175 3.26079 4.08342 3.49996 4.08342H10.5C10.7391 4.08342 10.9375 4.28175 10.9375 4.52092C10.9375 4.76008 10.7391 4.95842 10.5 4.95842Z" fill="white"/>
</svg>
