<svg width="31" height="30" viewBox="0 0 31 30" fill="none" xmlns="http://www.w3.org/2000/svg">
<path d="M4.875 23.4375C4.3625 23.4375 3.9375 23.0125 3.9375 22.5V8.75C3.9375 3.2375 5.6125 1.5625 11.125 1.5625H19.875C25.3875 1.5625 27.0625 3.2375 27.0625 8.75V21.25C27.0625 21.45 27.0625 21.6375 27.05 21.8375C27.0125 22.35 26.55 22.75 26.05 22.7125C25.5375 22.675 25.1375 22.225 25.175 21.7125C25.1875 21.5625 25.1875 21.4 25.1875 21.25V8.75C25.1875 4.2875 24.35 3.4375 19.875 3.4375H11.125C6.65 3.4375 5.8125 4.2875 5.8125 8.75V22.5C5.8125 23.0125 5.3875 23.4375 4.875 23.4375Z" fill="#E9CB50"/>
<path d="M21.75 28.4375H9.25C6.325 28.4375 3.9375 26.05 3.9375 23.125V22.3125C3.9375 19.825 5.9625 17.8125 8.4375 17.8125H26.125C26.6375 17.8125 27.0625 18.2375 27.0625 18.75V23.125C27.0625 26.05 24.675 28.4375 21.75 28.4375ZM8.4375 19.6875C6.9875 19.6875 5.8125 20.8625 5.8125 22.3125V23.125C5.8125 25.025 7.35 26.5625 9.25 26.5625H21.75C23.65 26.5625 25.1875 25.025 25.1875 23.125V19.6875H8.4375Z" fill="#E9CB50"/>
<path d="M20.5 9.6875H10.5C9.9875 9.6875 9.5625 9.2625 9.5625 8.75C9.5625 8.2375 9.9875 7.8125 10.5 7.8125H20.5C21.0125 7.8125 21.4375 8.2375 21.4375 8.75C21.4375 9.2625 21.0125 9.6875 20.5 9.6875Z" fill="#E9CB50"/>
<path d="M16.75 14.0625H10.5C9.9875 14.0625 9.5625 13.6375 9.5625 13.125C9.5625 12.6125 9.9875 12.1875 10.5 12.1875H16.75C17.2625 12.1875 17.6875 12.6125 17.6875 13.125C17.6875 13.6375 17.2625 14.0625 16.75 14.0625Z" fill="#E9CB50"/>
</svg>
