<svg width="20" height="21" viewBox="0 0 20 21" fill="none" xmlns="http://www.w3.org/2000/svg">
<path d="M14.3249 4.63366C14.3249 4.64199 14.3249 4.64199 14.3249 4.65033C14.1166 4.64199 13.9083 4.63366 13.6833 4.63366H7.2666L8.15827 3.75033C8.97493 2.92533 9.87493 2.16699 10.9166 2.16699C11.9666 2.16699 12.8666 2.92533 13.6833 3.75033L14.1499 4.21699C14.2666 4.32533 14.3249 4.47533 14.3249 4.63366Z" fill="#FFD912"/>
<path d="M17.3665 11.475C17.6915 11.475 17.9498 11.2083 17.9498 10.875V10.1417C17.9498 6.86667 16.9498 5.875 13.6831 5.875H8.43314H6.31647C3.0498 5.875 2.0498 6.875 2.0498 10.1417V10.5C2.0498 10.8333 2.30814 11.0917 2.63314 11.0917C3.33314 11.0917 3.89147 11.6583 3.89147 12.35C3.89147 13.0417 3.33314 13.6167 2.63314 13.6167C2.30814 13.6167 2.0498 13.875 2.0498 14.2083V14.5667C2.0498 17.8417 3.0498 18.8333 6.31647 18.8333H8.4248H13.6748C16.9415 18.8333 17.9415 17.8333 17.9415 14.5667C17.9415 14.2417 17.6831 13.975 17.3581 13.975C16.6581 13.975 16.0998 13.4167 16.0998 12.725C16.1081 12.0333 16.6665 11.475 17.3665 11.475ZM9.01647 16.2167C9.01647 16.5417 8.7498 16.8083 8.4248 16.8083C8.0998 16.8083 7.83314 16.5417 7.83314 16.2167V13.9833C7.83314 13.6583 8.0998 13.3917 8.4248 13.3917C8.7498 13.3917 9.01647 13.6583 9.01647 13.9833V16.2167ZM9.01647 10.725C9.01647 11.05 8.7498 11.3167 8.4248 11.3167C8.0998 11.3167 7.83314 11.05 7.83314 10.725V8.49167C7.83314 8.16667 8.0998 7.9 8.4248 7.9C8.7498 7.9 9.01647 8.16667 9.01647 8.49167V10.725Z" fill="#FFD912"/>
</svg>
