<svg width="31" height="30" viewBox="0 0 31 30" fill="none" xmlns="http://www.w3.org/2000/svg">
<path d="M15.5 28.4375C14.625 28.4375 13.7375 28.1 13.075 27.4375L10.9375 25.325C10.4125 24.8 9.68751 24.5125 8.95001 24.5125H8C5.4125 24.5125 3.3125 22.425 3.3125 19.8625V6.22498C3.3125 3.66248 5.4125 1.57501 8 1.57501H23C25.5875 1.57501 27.6875 3.66248 27.6875 6.22498V19.8625C27.6875 22.425 25.5875 24.5125 23 24.5125H22.05C21.3125 24.5125 20.5875 24.8125 20.0625 25.325L17.925 27.4375C17.2625 28.1 16.375 28.4375 15.5 28.4375ZM8 3.4375C6.45 3.4375 5.1875 4.68746 5.1875 6.21246V19.85C5.1875 21.3875 6.45 22.625 8 22.625H8.95001C10.1875 22.625 11.3875 23.125 12.2625 23.9875L14.4 26.1C15.0125 26.7 16 26.7 16.6125 26.1L18.75 23.9875C19.625 23.125 20.825 22.625 22.0625 22.625H23C24.55 22.625 25.8125 21.375 25.8125 19.85V6.21246C25.8125 4.67496 24.55 3.4375 23 3.4375H8Z" fill="#E9CB50"/>
<path d="M15.5004 13.4376C13.3754 13.4376 11.6504 11.7126 11.6504 9.58755C11.6504 7.46255 13.3754 5.73761 15.5004 5.73761C17.6254 5.73761 19.3504 7.46255 19.3504 9.58755C19.3504 11.7126 17.6254 13.4376 15.5004 13.4376ZM15.5004 7.61261C14.4129 7.61261 13.5254 8.50005 13.5254 9.58755C13.5254 10.6751 14.4129 11.5626 15.5004 11.5626C16.5879 11.5626 17.4754 10.6751 17.4754 9.58755C17.4754 8.50005 16.5879 7.61261 15.5004 7.61261Z" fill="#E9CB50"/>
<path d="M20.5 20.5126C19.9875 20.5126 19.5625 20.0876 19.5625 19.5751C19.5625 17.8501 17.7375 16.4377 15.5 16.4377C13.2625 16.4377 11.4375 17.8501 11.4375 19.5751C11.4375 20.0876 11.0125 20.5126 10.5 20.5126C9.9875 20.5126 9.5625 20.0876 9.5625 19.5751C9.5625 16.8126 12.225 14.5627 15.5 14.5627C18.775 14.5627 21.4375 16.8126 21.4375 19.5751C21.4375 20.0876 21.0125 20.5126 20.5 20.5126Z" fill="#E9CB50"/>
</svg>
