<svg width="16" height="16" viewBox="0 0 16 16" fill="none" xmlns="http://www.w3.org/2000/svg">
<path d="M8.00008 8.00016C9.84103 8.00016 11.3334 6.50778 11.3334 4.66683C11.3334 2.82588 9.84103 1.3335 8.00008 1.3335C6.15913 1.3335 4.66675 2.82588 4.66675 4.66683C4.66675 6.50778 6.15913 8.00016 8.00008 8.00016Z" stroke="#DADADA" stroke-linecap="round" stroke-linejoin="round"/>
<path d="M2.27344 14.6667C2.27344 12.0867 4.8401 10 8.0001 10C8.6401 10 9.26011 10.0867 9.84011 10.2467" stroke="#DADADA" stroke-linecap="round" stroke-linejoin="round"/>
<path d="M14.6666 12.0002C14.6666 12.5002 14.5266 12.9735 14.2799 13.3735C14.1399 13.6135 13.9599 13.8268 13.7533 14.0002C13.2866 14.4202 12.6733 14.6668 11.9999 14.6668C11.0266 14.6668 10.1799 14.1468 9.71991 13.3735C9.47324 12.9735 9.33325 12.5002 9.33325 12.0002C9.33325 11.1602 9.71992 10.4068 10.3333 9.92017C10.7933 9.5535 11.3733 9.3335 11.9999 9.3335C13.4733 9.3335 14.6666 10.5268 14.6666 12.0002Z" stroke="#DADADA" stroke-miterlimit="10" stroke-linecap="round" stroke-linejoin="round"/>
<path d="M10.96 12L11.62 12.66L13.04 11.3467" stroke="#DADADA" stroke-linecap="round" stroke-linejoin="round"/>
</svg>
