<svg width="237" height="146" viewBox="0 0 237 146" fill="none" xmlns="http://www.w3.org/2000/svg">
<path fill-rule="evenodd" clip-rule="evenodd" d="M96.1416 98.605C96.8078 98.7604 96.9316 98.7255 97.4899 99.049C97.8421 99.252 97.8262 99.1695 98.1688 99.3154L99.3839 99.8894C99.6599 100.042 99.7075 100.073 100.022 100.2L103.384 101.475C104.028 101.643 104.72 102.173 105.427 102.277C105.783 102.331 106.005 102.303 106.265 102.388C106.963 102.617 106.757 103.029 106.544 103.527L106.224 104.263C105.995 104.63 106.065 104.488 105.948 104.935C105.818 105.439 105.342 106.197 105.107 107.148C105.018 107.507 105.17 107.009 105.063 107.313L104.244 109.232C104.108 109.755 103.489 110.897 103.461 110.976C103.384 111.189 103.429 111.208 103.381 111.423C103.261 112.001 103.235 111.699 103.07 112.061C102.95 112.324 102.975 112.565 102.842 112.885C102.677 113.275 102.661 113.088 102.528 113.52L102.223 114.268C101.884 114.744 102.138 114.404 102.008 115.001L101.582 116.05C101.316 116.865 100.783 117.699 100.507 118.559C100.412 118.857 100.396 119.009 100.288 119.288L97.1283 127.191C96.9601 127.546 96.9506 127.296 96.811 127.822C96.6587 128.402 96.8142 128.12 96.535 128.599C96.2717 129.053 96.4367 128.802 96.3161 129.329C96.1797 129.925 95.7736 130.511 95.523 131.063L93.4006 136.423C93.2483 136.743 93.3181 136.911 93.1658 137.241C92.9755 137.656 93.0136 137.292 92.8581 137.882L92.5599 138.636C92.4267 138.931 92.4647 139.077 92.3442 139.369C92.2109 139.689 92.0936 139.695 91.973 140.051L91.532 141.085C91.3448 141.503 91.1355 141.503 90.8626 141.89L89.6222 143.178L88.2485 143.805C87.319 144.037 85.2981 144.129 84.394 143.733C84.3337 143.707 83.8896 143.415 83.8134 143.365C83.5469 143.187 83.5247 143.111 83.2106 142.914C82.6713 142.575 82.5349 142.467 82.1542 141.969L81.3516 140.771C81.0978 140.374 81.2215 140.609 81.1295 140.044C80.9804 139.125 80.6663 138.475 80.9138 137.523L81.2279 136.258C81.2374 136.236 81.2501 136.207 81.2596 136.185C81.4087 135.884 81.2723 136.169 81.3896 135.998C81.4753 135.871 81.415 136.131 81.5483 135.735C81.6276 135.5 81.5768 135.503 81.6149 135.275L84.3178 128.498C84.3274 128.475 84.3432 128.45 84.3559 128.431L87.0493 121.641C87.1699 121.337 87.1953 121.242 87.2873 120.931L88.0867 119.203C88.4389 118.448 88.5816 117.677 88.9147 116.973L93.2927 105.867C93.3974 105.61 93.4133 105.414 93.5243 105.151L94.1874 103.812C94.3111 103.521 94.3143 103.286 94.4253 102.994C94.6188 102.477 94.8568 102.211 95.0535 101.618C95.1455 101.339 95.1677 101.145 95.2597 100.876L96.0655 99.049C96.1099 98.8904 96.1226 98.846 96.1416 98.5987V98.605ZM169.419 70.6247C169.502 70.3583 169.502 70.2822 169.594 70.0602C169.667 69.8794 169.717 69.8097 169.778 69.6131L170.19 68.5507C170.314 68.2177 170.285 67.6056 170.39 67.3805C170.625 66.8699 170.606 67.8054 170.752 66.372C170.796 65.9312 171.002 65.7314 171.38 65.6331C171.415 66.0676 171.459 66.0168 171.662 66.2991L174.203 69.7621C174.673 70.3488 174.286 70.2378 174.914 70.8404C174.93 70.8562 174.952 70.8752 174.968 70.8911L175.342 71.2558C175.358 71.2717 175.38 71.2938 175.393 71.3097L175.755 71.6839C175.945 71.9059 175.989 71.9376 176.154 72.1247L176.63 72.7051C177.433 73.5835 177.17 73.0603 177.912 73.8467C178.302 74.2622 180.314 75.9049 180.958 76.2791L185.811 78.6956L184.273 81.4737C184.168 81.7147 184.19 81.7908 184.098 82.0382L183.476 83.5255C183.21 84.0298 183.362 84.0868 183.219 84.6386C183.086 85.1429 182.921 85.0953 182.867 85.6535C182.813 86.1862 182.842 86.4114 182.652 86.8078C182.233 86.9061 181.678 86.8744 181.224 86.6524L180.031 86.1609C179.492 85.8311 179.657 85.8628 178.841 85.5615L175.52 83.719C175.266 83.5572 175.158 83.4843 174.952 83.3416C174.847 83.2686 174.819 83.2591 174.708 83.164L173.889 82.2951C173.099 81.4166 173.325 81.4261 172.804 81.1661C172.265 80.8965 172.731 81.2041 172.182 80.5255C172.094 80.4177 172.075 80.3923 171.992 80.2971L171.843 80.1322C171.824 80.11 171.764 80.0434 171.745 80.0181C171.65 79.8881 171.65 79.8659 171.589 79.7517C171.177 78.9842 171.224 79.4504 170.853 78.8003L169.984 77.4557C169.895 77.3035 169.927 77.3225 169.841 77.1766C169.679 76.8975 169.584 76.9102 169.47 76.7072C169.353 76.4948 169.365 76.314 169.27 76.0635C169.045 75.4704 168.791 75.2706 168.642 75.0043C168.518 74.7823 168.521 74.6396 168.407 74.3985C168.201 73.9641 168.112 74.2749 168.112 73.6406C168.112 73.3837 168.211 73.4313 168.356 73.1491L168.807 72.1247C168.991 71.7791 168.87 72.0074 168.966 71.649C169.108 71.0941 169.245 71.1955 169.419 70.6247ZM53.253 75.2199C53.4815 75.166 53.7099 75.0709 53.9351 74.9535C54.2555 74.7886 54.1382 74.795 54.5252 74.6998C54.9471 74.5952 54.8742 74.6459 55.2327 74.4588L56.5207 73.9577C56.7586 73.8594 56.9236 73.8499 57.1488 73.7453L57.6184 73.4757C57.6437 73.4662 57.6723 73.4598 57.7008 73.4535C57.7294 73.444 57.7579 73.444 57.7897 73.4345C58.053 73.3679 57.8499 73.4852 58.1259 73.3488C58.3195 73.2537 58.2148 73.2886 58.3544 73.1554C59.0809 72.4609 58.9476 73.1713 59.4457 72.667C59.6107 72.4989 59.7407 72.3435 59.9374 72.2104C60.8606 71.5951 60.3752 72.055 61.5205 71.1607L61.8948 70.9038C61.9139 70.8911 61.9361 70.8721 61.9551 70.8594L63.0274 70.0348C63.1162 69.9556 63.1638 69.9112 63.2463 69.8351C63.2685 69.8129 63.3351 69.7558 63.3573 69.7336L65.7113 67.4502C65.8192 67.3488 65.8255 67.3297 65.9112 67.2282C65.9239 67.2124 65.9429 67.187 65.9588 67.1712L66.0508 67.0538C66.0635 67.038 66.0857 67.0126 66.0984 66.9967L67.7544 65.1732C67.7702 65.1574 67.7925 65.1352 67.8051 65.1193L68.7696 63.9777C68.7823 63.9586 68.7981 63.9333 68.8108 63.9142L69.4802 63.3212L71.4693 70.2886C71.6026 70.6152 71.5994 70.4852 71.7041 70.6881C72.2783 71.8076 71.5709 72.4292 71.2663 72.9017L69.7752 74.9916C68.7728 76.2157 68.7886 76.0762 68.0875 76.8848C67.7798 77.24 67.7163 77.5508 67.3134 77.9028C66.8153 78.3373 66.5235 78.3056 66.0635 78.9715C65.6606 79.5551 65.6637 79.1745 64.8452 79.9673C64.049 80.7411 64.1029 80.2432 63.4779 80.8109C63.0528 81.1946 63.1765 80.9251 62.3453 81.4705L61.4444 81.9399C60.261 82.2919 61.4919 82.1428 60.1881 82.4758C59.8042 82.5741 59.8518 82.5963 59.5758 82.7042C59.2871 82.8152 59.1062 82.7961 58.8398 82.9198C58.6177 83.0213 58.6209 83.1386 58.3258 83.1894C58.1101 83.2274 57.4724 83.1862 56.8411 83.3448C56.1622 83.5128 56.4445 83.6556 55.4674 83.6556C55.312 82.9832 55.2834 81.9113 55.1692 81.2137C55.0772 80.6587 54.9281 80.4874 54.8615 80.1513C54.6775 79.1999 54.963 79.4599 54.5252 78.4863C54.3095 78.0011 54.4649 77.9187 54.0271 77.0878C53.6908 76.4472 53.7924 76.8024 53.6242 76.1206C53.5132 75.6671 53.4561 75.537 53.2499 75.2294L53.253 75.2199ZM189.631 95.2149C189.517 94.9961 189.441 94.7995 189.333 94.5648C189.085 94.0225 188.819 93.9179 188.705 93.2963C188.629 92.8935 188.667 92.8523 188.546 92.5066C188.121 91.3047 188.146 89.4273 188.314 88.1398L188.537 87.2042C188.752 86.6905 188.965 85.7423 189.485 84.6767L190.91 82.6249C191.522 81.9589 192.191 81.369 192.956 80.8775L194.355 80.2718C195.059 80.0276 196.303 79.536 197.096 79.536C199.361 79.536 199.187 79.2189 200.601 80.1386C201.131 80.4811 201.652 80.7221 202.131 81.1375L203.038 81.9177C204.053 82.961 204.167 83.5382 204.729 84.442C205.354 85.4442 205.202 86.0689 206.366 86.0689C206.553 86.0689 207.105 85.2697 207.105 85.016C207.105 84.7496 206.896 84.5752 206.807 84.3659C206.683 84.0742 206.731 83.9854 206.635 83.6936C206.312 82.72 205.487 82.0033 204.967 81.1502C204.71 80.7316 204.424 80.6111 204.113 80.2147C203.882 79.9198 202.33 78.8859 201.915 78.6195C201.686 78.4737 201.889 78.6005 201.642 78.4705C200.586 77.9219 200.785 77.5381 200.785 76.3774C200.785 75.5941 201.188 73.9007 201.61 73.3044L202.283 72.5021C202.901 71.8171 203.736 71.2526 204.71 71.1353C205.424 71.0497 205.363 71.1702 205.979 70.9292C207.022 70.5169 211.696 70.8308 213.209 70.6786C214.398 70.5581 215.404 69.9524 216.01 68.9503C216.518 68.1099 216.384 67.1521 216.384 66.1627C216.384 65.1384 216.067 64.5739 216.067 63.6352C216.067 63.0263 216.296 62.4491 216.397 61.8561C216.467 61.447 216.556 61.4375 216.711 61.1172C217.038 60.4385 217.454 59.7598 217.999 59.2461L219.335 58.4723C220.985 58.4723 221 58.3106 222.171 59.43L222.276 59.5347C222.755 60.0294 223.015 60.6129 223.348 61.2028L224.449 63.9999C224.849 65.2177 224.63 66.7938 224.611 68.1701C224.601 68.8963 224.322 68.909 224.138 69.4862C223.957 70.0507 223.76 70.6406 223.408 71.075L223.227 71.316C223.031 71.611 222.983 71.7791 222.831 72.0772L221.698 73.2632C221.406 73.5264 221.425 73.6025 221.169 73.8911C221.019 74.0592 221.115 73.9514 221.013 74.0497L215.081 78.0233C214.624 78.1819 213.152 78.8162 213.012 79.3267C213.333 79.3997 213.723 79.5075 214.072 79.5297C214.922 79.5868 215.411 79.7707 216.258 79.8722C217 79.961 217.139 79.961 217.799 80.2274C217.923 80.2781 218.247 80.3447 218.307 80.3542C219.386 80.5001 220.191 80.9441 221.232 81.2232L222.123 81.5942C222.644 81.7655 222.571 81.6323 223.066 81.9177C223.465 82.146 223.599 82.1175 223.963 82.2856L226.067 83.3448C226.854 83.6968 227.628 84.2613 228.319 84.7782C228.338 84.7909 228.361 84.8099 228.38 84.8226C228.395 84.8353 228.421 84.8575 228.437 84.8702C228.453 84.8828 228.475 84.905 228.494 84.9209C228.525 84.9494 228.564 84.9875 228.662 85.0668L231.85 88.2C232.621 89.1419 233.3 90.1948 233.757 91.3491C234.813 94.0193 234.414 94.6124 234.867 96.5564C235.137 97.7076 235.191 99.9401 234.836 101.037C234.395 102.398 234.648 102.354 233.846 103.733C233.513 104.301 233.436 104.282 233.386 104.326C231.847 105.576 232.386 104.177 231.898 103.111C231.761 102.813 231.857 103.096 231.771 102.712C231.641 102.119 231.146 101.129 230.848 100.476L230.293 99.4518C229.68 98.3545 228.836 97.3777 228.1 96.3788L226.584 94.7329C226.06 94.2191 223.542 91.9612 222.878 91.5901L221.359 90.477C220.813 90.1345 219.443 89.9411 219.443 91.5457C219.684 91.6345 219.525 91.5679 219.69 91.7201L224.192 95.2276C224.541 95.4623 224.782 95.8111 225.09 96.1187L225.87 96.9179C226.019 97.1145 226.064 97.1811 226.267 97.3651L228.716 100.815C228.922 101.152 229.1 101.535 229.293 101.922C229.401 102.135 229.468 102.338 229.544 102.512C230.274 104.155 230.159 104.104 230.496 105.772C230.6 106.286 230.714 106.641 230.714 107.237C230.714 109.127 230.762 108.985 230.385 110.805C230.27 111.363 230.315 111.985 230.137 112.559L228.611 116.088C228.373 116.599 228.611 116.285 228.24 116.662L226.102 118.527C225.283 118.895 224.671 119.165 223.716 118.863C222.923 118.613 222.574 117.864 222.247 117.17C222.098 116.853 222.092 116.669 221.962 116.402C221.771 116.015 221.794 116.237 221.644 115.667C221.508 115.15 221.486 115.349 221.308 114.95C221.207 114.722 221.156 114.411 221.061 114.144C220.931 113.773 220.896 113.754 220.785 113.367C220.702 113.079 220.626 112.882 220.505 112.59L219.141 108.16C219.059 107.96 219.072 107.938 219.018 107.757C218.862 107.24 218.656 107.129 218.51 106.682C218.294 106.013 217.552 105.014 217.235 104.272L213.935 99.1441C213.761 98.9317 213.64 98.7794 213.466 98.5606C213.228 98.2625 212.828 97.6473 212.378 97.6473C211.711 97.6473 211.324 97.92 211.324 98.5955C211.324 99.2615 211.864 99.7403 212.225 100.222L213.25 101.726C214.173 102.905 214.671 103.882 215.439 105.122L216.883 107.995C216.984 108.195 216.978 108.16 217.079 108.433C217.346 109.159 217.866 109.971 217.974 110.7C218.091 111.525 218.31 111.852 218.405 112.692C218.64 114.747 218.853 115.762 217.733 117.645C217.216 118.518 215.081 120.027 214.04 120.167C213.288 120.268 212.698 120.433 211.959 120.297C210.836 120.091 211.064 120.3 209.951 119.77L207.384 118.02C207.203 117.845 207.343 117.988 207.232 117.858C207.229 117.852 207.102 117.693 207.092 117.68C206.521 116.995 205.347 115.644 204.96 114.861L203.374 112.127C203.269 111.928 203.279 111.867 203.2 111.671C203.028 111.233 202.936 111.331 202.781 110.932C202.727 110.795 202.702 110.612 202.629 110.453C202.521 110.221 202.511 110.298 202.394 110.053C202.315 109.892 202.296 109.771 202.213 109.603C201.826 108.798 201.851 108.531 201.699 108.22C201.29 107.396 201.052 106.33 200.703 105.528C200.563 105.208 200.582 104.862 200.449 104.516C200.294 104.11 200.243 104.307 200.141 103.666C199.884 102.068 199.028 100.787 198.038 99.5532C197.499 98.8841 196.725 98.3925 196.062 97.8439C195.567 97.4316 194.475 96.271 194.085 96.0299C193.524 95.6811 193.267 95.4876 192.737 96.0204C191.779 96.9781 193.536 98.1325 194.13 98.7255L196.725 100.977C196.89 101.164 196.817 100.914 196.978 101.361C197.267 102.16 196.35 102.144 195.63 102.176C193.685 102.265 192.585 102.522 190.729 101.592C190.462 101.459 190.139 101.316 189.885 101.171C189.346 100.863 188.682 100.302 188.333 99.7721L185.862 96.1346C185.564 95.5352 184.901 93.902 184.799 93.2995C184.73 92.8808 184.736 92.5542 184.666 92.1673C184.58 91.6821 184.349 91.7328 184.349 91.2191C184.349 89.4558 184.238 89.1641 184.641 87.5087C184.771 86.9759 184.711 86.5129 184.828 86.0086C184.964 85.4156 185.107 85.2761 185.205 84.6989C185.297 84.1661 185.472 84.0107 185.615 83.5287C185.83 82.7961 186.614 81.0361 187.09 80.3701C187.103 80.3511 187.125 80.3289 187.137 80.313L187.236 80.202C187.249 80.1861 187.271 80.1608 187.283 80.1449L189.092 77.8457C189.13 77.8045 189.238 77.684 189.292 77.6237L190.643 76.4472C190.662 76.4345 190.687 76.4155 190.703 76.4028L192.455 75.4134C192.731 75.2675 192.661 75.2294 193.016 75.1311C193.305 75.0518 193.321 75.1026 193.603 74.9821C194.406 74.6364 194.145 74.7918 194.913 74.6047C195.427 74.481 195.56 74.2622 196.15 74.2622C200.173 74.2622 198.92 74.0307 198.787 75.74L198.679 77.5286C198.257 77.5286 196.084 77.6142 195.792 77.6967C195.468 77.7887 195.44 77.8648 195.173 77.9187C193.866 78.1914 194.431 78.1819 193.473 78.4324C192.93 78.5751 193.06 78.6481 192.607 78.832C192.023 79.073 191.582 79.4631 191.059 79.8151C190.846 79.9578 190.992 79.8532 190.821 79.999L189.818 80.8934C189.802 80.9092 189.78 80.9314 189.767 80.9473L188.803 82.0889C188.679 82.2412 188.59 82.349 188.473 82.4949L187.921 83.4177C187.759 83.6746 187.81 83.6175 187.68 83.9124C187.544 84.2169 187.531 84.163 187.417 84.3849L186.941 85.4886C186.649 86.1672 186.252 88.3744 186.252 89.2243C186.252 91.3935 186.275 91.7011 186.785 93.7466C186.915 94.2699 186.988 94.0954 187.153 94.5394L187.525 95.4306C187.537 95.4496 187.553 95.4781 187.563 95.4972L189.983 98.8714C190.364 99.3661 190.757 99.6547 191.236 100.042C191.728 100.441 192.911 101.5 193.533 100.936C193.581 100.892 194.006 100.349 194.05 100.286C193.939 99.8165 193.689 99.4105 193.308 99.1315C192.489 98.5384 191.941 98.0405 191.249 97.2921C190.653 96.6483 190.05 96.0014 189.644 95.2086L189.631 95.2149ZM15.7386 59.4174C15.7386 58.0632 16.1193 56.5251 16.8109 55.3296L17.217 54.4701C17.4962 54.023 17.6548 53.56 18.0133 53.1604L18.9333 52.1836C18.9492 52.1678 18.9714 52.1488 18.9872 52.1329L19.3552 51.8697C20.2562 51.3147 20.418 51.0356 21.7029 51.3432C22.5943 51.5557 22.6958 51.5811 23.3176 52.3612L24.2535 53.8486C24.3899 54.1498 24.355 54.356 24.4439 54.7112C24.6945 55.726 24.9071 56.5156 24.5866 57.5177L24.2726 58.9924C23.8601 60.2895 23.9553 60.1658 23.9553 61.6246L24.593 62.7789C24.612 62.8011 24.6723 62.8645 24.6945 62.8899C24.7453 62.947 24.7833 62.9946 24.8404 63.058C24.9895 63.2229 25.0688 63.2832 25.2306 63.4037L25.9698 63.8255C26.3981 64.0474 26.8518 64.1077 27.4323 64.1553C28.3746 64.2282 28.8631 64.5739 29.964 64.5739C30.9506 64.5739 32.7811 64.9354 33.8598 65.1035C34.2817 65.1701 34.066 65.1352 34.4403 65.2589C34.6751 65.335 34.7988 65.3604 35.0114 65.427C35.5253 65.5887 35.5316 65.7187 35.979 65.9344C36.3248 66.0993 36.6325 66.2293 36.8958 66.4957L37.5684 67.298C37.8856 67.6849 37.8824 67.8308 38.0664 68.2748C38.4408 69.1786 38.4979 69.6004 38.4979 70.7928C38.4979 73.1839 38.6185 72.5275 36.3374 73.6913L35.538 74.1544C34.5101 74.8394 33.3617 75.629 32.7367 76.7263C32.1054 77.8362 31.436 77.9662 31.436 79.5329C31.436 80.3067 32.7811 80.2432 33.1713 79.7929C33.3997 79.5297 33.3046 79.314 33.4664 79.0318C33.5901 78.813 33.8439 78.5751 33.9803 78.388C34.1675 78.1312 34.1833 78.036 34.4086 77.7633C35.0812 76.9419 35.887 76.2601 36.7911 75.721C37.4478 75.3309 37.4859 75.2643 38.2568 74.9725C40.008 74.3097 39.2625 74.4081 40.8106 74.5825C41.553 74.6649 41.9813 74.6713 42.6348 74.9694C43.2344 75.2421 42.8632 74.8806 43.8752 75.4134L44.4812 75.648C44.5002 75.6607 44.5256 75.6797 44.5446 75.6893L47.33 77.9599C47.5014 78.1629 47.6917 78.3722 47.8408 78.6068L48.1834 79.3172C48.6054 79.9103 48.5927 80.1798 48.8401 80.8712C49.1479 81.7306 49.2621 81.3215 49.3509 82.571C49.4366 83.7951 49.849 84.109 49.6396 85.3046C49.5317 85.9294 49.6586 85.6598 49.6586 86.1609C49.6586 86.1704 49.389 86.7761 49.3668 86.922C49.2938 87.4072 49.4048 87.4294 49.2399 87.848L48.653 89.2624C48.2564 89.9062 47.7615 90.9939 47.0667 91.6789C46.6829 92.0595 46.3751 92.3354 45.9944 92.7159L44.4209 94.0923C44.0116 94.3745 43.4818 94.5838 43.117 94.8946C42.5587 95.3735 42.7871 96.5881 43.5453 96.5881C44.2813 96.5881 46.0293 95.4496 46.6575 94.8534L47.5045 94.1208C47.5204 94.1081 47.5426 94.0859 47.5585 94.0701C48.599 93.087 49.9568 91.3586 50.4613 90.0172C50.6389 89.5415 51.3432 88.3078 51.3432 87.9495C51.3432 87.5309 51.0862 87.9241 51.3432 87.3279C51.5304 86.8934 51.4511 87.3628 51.5748 86.7063C51.6954 86.053 51.7842 83.7824 51.6351 83.2401C51.4733 82.6566 51.3908 82.7644 51.3242 82.0731C51.2734 81.5213 51.2702 81.3246 51.0165 80.906C50.7531 80.4716 50.8166 80.2813 50.8166 79.6312C50.512 79.2157 50.6167 79.5995 50.3471 78.943C50.1313 78.4166 49.7189 78.017 49.5286 77.5508C49.4619 77.3859 49.5222 77.4842 49.4302 77.332L49.0876 76.9388C48.929 76.7643 48.9258 76.7738 48.7735 76.6216L47.7203 75.5687C47.6187 75.4609 47.5838 75.4007 47.4728 75.2897C47.1746 74.9852 47.1841 75.074 46.8573 74.852C46.5528 74.6427 46.5338 74.573 46.188 74.3637L44.0243 73.26C43.7261 73.1586 43.3803 73.1586 43.0789 73.0476C42.3176 72.7685 41.2357 72.648 40.4902 72.4736C40.4236 72.1913 40.3792 72.1216 40.3887 71.741L40.3823 69.4164C41.7053 69.3054 43.4406 69.4799 44.6366 70.0095C45.6169 70.4471 46.5813 70.8055 47.4443 71.4144C48.3199 72.0359 49.0717 72.8034 49.8014 73.5867C49.8744 73.666 49.9346 73.7357 49.9981 73.8119C50.1535 74.0021 50.2138 74.0941 50.3724 74.2812C50.6421 74.6047 50.7658 74.9662 50.9816 75.3595C51.1243 75.6163 51.118 75.7083 51.2544 75.9303C51.2671 75.9493 51.2861 75.9747 51.2988 75.9937C51.6573 76.5297 51.8032 77.0751 52.0507 77.665C52.5963 78.9557 53.3482 81.5435 53.3482 83.0054L53.2784 86.275C53.2689 86.6239 53.3387 86.4209 53.2752 86.83C53.215 87.2296 53.1642 87.163 53.1135 87.3945C52.9961 87.9209 53.1388 87.3342 53.1388 87.959C53.1388 88.0224 53.0119 88.1144 52.9263 88.3776L52.4917 89.7349C52.2728 90.4707 51.9492 91.0954 51.6034 91.7963C51.432 92.1419 51.5685 91.9104 51.3781 92.2022C51.2607 92.3766 51.2354 92.421 51.137 92.5923C51.0767 92.6937 51.0989 92.6652 51.0165 92.7889C51.0038 92.8079 50.9847 92.8333 50.972 92.8491C50.9593 92.8682 50.9403 92.8904 50.9276 92.9094L50.3946 93.5373C50.2043 93.7339 50.033 93.9527 49.8712 94.1716C49.7728 94.3079 49.7253 94.3745 49.6047 94.5363L49.4683 94.717C49.4588 94.7297 49.3319 94.8946 49.3319 94.8946L46.6511 96.956C45.7755 97.3492 45.0903 97.7519 43.9704 97.7519C40.9629 97.7519 41.9305 97.4507 40.7948 97.346C39.6305 97.2382 40.1254 97.3365 39.3323 96.8037C40.1666 95.5574 42.6062 94.273 43.8974 93.2582L44.2972 92.8111C44.3099 92.792 44.3289 92.7667 44.3448 92.7508C44.4812 92.5859 44.2908 92.8174 44.4463 92.6367C44.6017 92.4559 44.4685 92.681 44.5859 92.4781C44.7477 92.1958 44.5605 91.736 44.3416 91.4791C44.1385 91.2445 44.1449 91.1905 43.7832 91.1779C43.4311 91.1652 43.2915 91.2508 43.0789 91.3808C42.5333 91.717 41.3563 92.7191 40.0778 93.439C39.9033 93.5373 39.5765 93.8227 39.3672 93.9908C38.095 95.0215 37.2257 96.0331 36.5722 97.5173C36.4517 97.7932 36.2962 98.0215 36.1566 98.364C36.0075 98.7287 35.9504 98.8048 35.814 99.2837C35.6585 99.826 35.557 99.7689 35.4111 100.143C35.3191 100.378 35.3635 100.419 35.2683 100.635C35.17 100.863 35.1383 100.8 35.024 101.022L34.4245 102.319C34.2436 102.788 34.434 102.382 34.2024 102.731L30.8142 108.195C29.8275 109.543 29.2724 110.082 28.1017 111.17L26.4679 112.486C25.8651 112.898 25.164 112.996 24.5295 113.288C23.581 113.723 22.3754 113.646 21.3095 113.453C20.7955 113.358 20.4022 113.145 19.9675 112.898C19.6154 112.701 19.4409 112.746 19.1268 112.476L17.6453 111.116L16.7126 109.203C16.3795 107.865 16.7189 106.086 17.1504 104.856L17.8864 103.064C18.0577 102.658 18.137 102.626 18.302 102.214L19.9199 99.4074C20.0468 99.2298 20.0627 99.1854 20.1674 99.0236C20.326 98.7826 20.5164 98.586 20.7194 98.3133C21.0906 97.8186 21.3793 97.2985 21.8107 96.8735L22.9306 95.4654C23.121 95.2657 23.0829 95.2783 23.2034 95.1071C23.2161 95.0881 23.232 95.0627 23.2447 95.0437L23.4921 94.7646C23.7396 94.4855 23.8126 94.365 24.0854 94.0923L25.3607 92.8396C26.1951 91.5013 25.218 91.1144 25.0054 91.1144C23.6793 91.1144 23.1939 92.2085 22.4484 93.087C22.2073 93.3724 22.0836 93.3597 21.8773 93.5722C21.6743 93.7847 21.668 93.9337 21.4491 94.2001L20.0056 95.9189C19.7962 96.1822 19.6947 96.2392 19.5266 96.4961L17.6389 99.3471C17.2678 99.8767 15.8021 102.591 15.6498 103.153C15.58 103.413 15.561 103.708 15.3992 103.955L14.7583 105.423C14.5965 105.985 14.3618 106.324 14.0921 106.863C13.7495 107.558 13.4576 108.281 12.9944 108.928L12.7629 109.223C12.3314 109.73 12.2045 110.234 11.589 110.681C11.3479 110.856 11.1576 110.919 10.7737 110.919C10.0694 110.919 9.90129 110.821 9.3239 110.58L8.45147 110.082L6.65902 107.767C6.21488 106.92 5.78025 106.067 5.64066 105.097C5.47887 103.99 5.19017 103.232 5.19017 102.071C5.19017 99.8609 5.05693 100.533 5.5328 98.5162C5.63432 98.0881 5.61845 97.4316 5.77708 96.9686C5.85956 96.7244 5.82784 96.9084 5.93887 96.6039C6.02136 96.3788 5.96743 96.5373 6.0277 96.271C6.18315 95.5574 6.76372 94.3872 7.21738 93.7752C7.85187 92.9189 7.83918 92.5383 8.94003 91.2825C9.05741 91.1493 9.00665 91.2096 9.13672 91.0574C10.3581 89.589 13.4893 86.8459 15.1581 86.015L17.5596 84.7306C18.854 84.0044 18.4289 82.8627 17.5184 82.8088C16.9061 82.7708 16.3255 83.0784 15.8052 83.4018C15.5388 83.5667 15.6942 83.497 15.5641 83.5826C15.3294 83.7348 15.4436 83.6555 15.2818 83.7221C15.2564 83.7317 15.2279 83.738 15.2025 83.7507L15.0502 83.8109C15.028 83.8205 14.9994 83.8331 14.9804 83.8458L11.7699 86.0086C11.2115 86.4717 10.5707 86.8395 10.0472 87.3438L9.57452 87.8195C9.43176 87.9558 9.51424 87.8829 9.35562 88.0192C8.18815 89.0245 8.1025 89.2687 7.07462 90.3755L5.56452 92.6589C5.10452 93.5088 4.13691 95.0595 4.13691 95.9729C3.274 95.9729 3.22324 95.4876 2.79179 94.8946C2.64903 94.698 2.76641 94.9168 2.61096 94.6536C2.01453 93.6356 2.03039 92.6049 2.03039 91.3364C2.03039 88.4157 2.15095 89.3322 2.48406 87.6831C2.53799 87.4167 2.52213 86.8205 2.60461 86.5383L4.57471 81.7655C4.87927 81.1661 5.32659 80.6618 5.70411 80.1544C5.80246 80.0212 5.8786 79.9547 6.00232 79.8215L7.18883 78.6893C7.192 78.6893 7.35697 78.6068 7.39504 78.5815L8.83534 77.3891C8.97492 77.3003 9.07327 77.2844 9.2541 77.1734L11.8365 75.6449C12.4107 75.369 13.1848 75.2485 13.7495 74.9218C14.6219 74.4176 15.8148 74.351 16.7887 73.9546L18.9777 73.4059C19.3299 73.3457 19.7867 73.3393 20.2055 73.2632C20.7384 73.1681 20.7702 73.0444 21.2111 73.0032C22.4103 72.889 25.3893 73.0571 26.1633 72.686C26.0428 72.2326 26.1253 72.4926 25.8207 72.2896C25.3766 71.9979 24.9451 71.6395 24.4629 71.4334C23.6412 71.0845 22.8703 70.4852 22.1597 69.9429C22.1438 69.9302 22.1185 69.9112 22.0994 69.8953L20.2181 68.3001C20.2023 68.2843 20.1801 68.2621 20.1674 68.2462C20.1452 68.224 20.0881 68.1574 20.069 68.1352L19.5995 67.6595C18.6858 66.8921 17.677 65.4238 17.1091 64.3551C17.0457 64.2345 17.033 64.1806 16.9759 64.0696L16.0876 61.799C16.0083 61.5104 15.9892 61.5326 15.9068 61.244C15.745 60.6764 15.7355 60.0326 15.7355 59.4142L15.7386 59.4174ZM77.3828 53.6234C77.3828 52.1709 77.4431 51.0261 77.4843 49.6181C77.5002 49.1138 77.57 49.136 77.5922 48.673L77.6906 46.6656C77.7572 45.8379 78.0205 45.2639 78.1188 44.0366C78.2045 42.9805 78.747 41.8103 78.9183 40.8336C79.0484 40.0788 79.1816 39.9329 79.3624 39.2765L79.851 37.6591C80.0509 36.8663 80.4601 36.232 80.7139 35.4677C81.0343 34.5037 81.6086 33.7013 82.0178 32.7658L82.5349 31.7034C82.8934 31.0374 83.1472 30.8535 83.42 30.0607L83.7912 29.4867C84.2798 28.8937 84.6097 28.2467 85.0221 27.6632L89.1781 22.5479C89.3525 22.3735 89.5334 22.1959 89.7079 22.0246L93.6893 18.4189L100.745 13.8839C101.589 13.2909 102.734 13.0118 103.391 12.6313L103.702 12.4156C103.724 12.4061 103.752 12.3934 103.775 12.3839C103.8 12.3744 103.829 12.368 103.857 12.3585L104.91 11.9367C105.364 11.8258 105.332 11.9304 105.745 11.7148C106.49 11.3247 107.242 11.1344 108.029 10.941C108.79 10.7539 109.698 10.3321 110.437 10.1894C110.621 10.1545 110.967 10.1259 111.284 10.0879L112.921 9.72319C113.793 9.61536 113.873 9.6883 114.631 9.43143C114.881 9.3458 119.748 9.00647 120.36 9.07941C120.976 9.15235 121.512 9.17138 122.273 9.17138C123.898 9.17138 125.515 9.24115 127.022 9.58682C127.346 9.65976 127.47 9.6661 127.85 9.70733C128.574 9.78344 130.268 10.3194 131.169 10.497C131.521 10.5667 131.772 10.5763 132.079 10.6397C132.631 10.7539 132.289 10.7475 132.755 10.9092C133.101 11.0298 133.282 10.9885 133.631 11.09C134.046 11.2105 133.948 11.3183 134.338 11.4389C134.782 11.5752 134.706 11.4389 135.169 11.6608L136.578 12.2539C136.901 12.3776 137.06 12.3649 137.365 12.5234C137.841 12.7708 138.161 13.0213 138.694 13.1958L140.099 13.792C140.239 13.8744 140.242 13.9093 140.407 14.0108L143.383 15.6694C144.36 16.3575 145.385 16.9347 146.314 17.6895C146.435 17.7846 146.486 17.8449 146.606 17.9242C146.939 18.1335 147.136 18.1652 147.421 18.4791C147.44 18.5013 147.501 18.5679 147.52 18.5901L149.157 20.0077C149.173 20.0235 149.195 20.0426 149.211 20.0584L150.185 20.9813C150.87 21.4697 150.724 21.5711 151.206 21.9612L151.723 22.5003C151.872 22.7096 152.047 22.8967 152.202 23.0743L154.544 25.789C154.68 25.9602 154.642 25.9222 154.766 26.0934L155.663 27.3017C156.193 28.2435 156.761 28.7414 157.234 29.734C157.456 30.1971 157.599 30.0765 157.827 30.6157C158.147 31.3704 158.906 32.3345 159.109 33.0227C159.305 33.6886 160.054 35.0016 160.444 36.1115C160.578 36.4952 160.654 36.4445 160.793 36.8155C160.917 37.1422 160.917 37.3103 161.053 37.6084C161.26 38.0682 161.383 38.7247 161.59 39.0735C161.812 39.4477 161.736 39.4223 161.805 39.9107C161.856 40.2564 161.916 40.323 162.031 40.6338L162.614 43.1042C162.697 43.4531 162.69 43.6402 162.77 44.0017C162.824 44.2522 162.985 44.5091 163.033 44.7914C163.195 45.7649 163.02 45.8093 163.385 47.4933C163.639 48.6635 163.382 50.2713 163.484 51.505C163.531 52.0822 163.658 52.6308 163.553 53.3792C163.407 54.4321 163.572 56.1287 163.287 57.115C163.15 57.578 163.097 58.4501 163.052 58.9892C162.995 59.6901 162.852 60.0611 162.725 60.6637C162.671 60.9174 162.621 61.2408 162.573 61.5643C162.472 62.2683 162.275 62.4903 162.205 63.1975C162.145 63.8159 161.783 64.076 161.701 64.6944L160.064 69.1659C159.626 70.4503 158.934 71.3763 158.722 71.9313C158.566 72.3372 158.728 72.2262 158.446 72.6036C158.024 73.1681 157.995 73.4947 157.71 73.9736L156.222 76.3838C155.835 76.8404 155.498 77.0275 155.216 77.592C155.153 77.7157 155.172 77.7125 155.121 77.814C155.111 77.8362 155.099 77.8648 155.086 77.8838C155.073 77.9028 155.057 77.9314 155.048 77.9504C154.946 78.109 155.045 77.9662 154.905 78.1248L153.525 79.7993C153.513 79.8151 153.493 79.8437 153.481 79.8595L152.913 80.3447C152.564 80.6396 152.707 80.6492 152.516 81.0012C152.259 81.4705 151.837 81.6291 151.463 81.9526C151.155 82.219 151.27 82.2411 151.016 82.5583C150.362 83.3796 149.414 83.9441 148.674 84.7465L147.872 85.4188C147.846 85.4283 147.815 85.4315 147.789 85.441C147.434 85.5678 147.742 85.3458 147.447 85.6249C146.933 86.1101 146.66 86.1704 146.171 86.7729C145.819 87.2074 145.521 87.1281 145.033 87.5309L143.094 88.8596C142.964 88.9421 142.878 88.9738 142.758 89.0531L140.22 90.5214C139.976 90.6736 140.182 90.5816 139.944 90.6673C139.382 90.8671 139.405 90.959 139.027 91.1208C139.005 91.1303 138.973 91.1366 138.948 91.1493C138.922 91.1588 138.894 91.1652 138.868 91.1779C138.367 91.3998 138.707 91.4094 138.196 91.5584L135.671 92.5098C135.452 92.5891 135.157 92.7318 134.922 92.8142C134.639 92.9094 134.424 92.8872 134.151 92.9918C133.78 93.1346 133.945 93.2107 133.44 93.3343C133.177 93.3978 132.803 93.4104 132.546 93.4929C132.079 93.642 132.412 93.6546 131.787 93.791L130.179 94.1842C129.37 94.3333 128.504 94.6155 127.736 94.6917C126.673 94.7963 126.524 94.9295 125.947 95.012C124.51 95.2117 121.696 95.2371 120.167 95.2371L115.015 95.0151C114.51 94.9454 114.183 94.7582 113.536 94.7012C112.423 94.6029 112.236 94.3713 111.16 94.2318C111.109 94.2255 110.824 94.1906 110.786 94.1842C110.265 94.0891 111.008 94.2699 110.611 94.1494C110.586 94.1398 110.557 94.1303 110.535 94.1208C110.513 94.1113 110.488 94.0954 110.465 94.0859C109.79 93.7688 109.888 93.883 109.012 93.7466C108.46 93.661 108.435 93.4295 107.626 93.3407C106.985 93.2709 107.42 93.3597 106.925 93.0933C106.525 92.8777 106.598 92.9982 106.205 92.865C105.792 92.7254 105.967 92.6557 105.58 92.5415C105.253 92.4464 105.186 92.5415 104.86 92.4178C104.587 92.3164 104.577 92.2085 104.244 92.0848L98.2069 89.0594C97.7279 88.7899 97.8801 89.0721 97.8294 88.5964C97.3503 88.5552 97.1124 88.2286 96.7444 88.1176C96.2907 87.9812 95.9703 87.588 95.5547 87.2898L95.1296 86.9759C94.9044 86.7793 94.6506 86.4019 94.4221 86.3131L93.6005 85.8691C93.445 85.7074 93.5053 85.7581 93.4165 85.6313C93.1468 85.2507 93.5212 85.5266 93.0199 85.1873L92.3156 84.6291C92.084 84.4389 92.2998 84.6069 92.0396 84.4833C90.9959 83.979 91.2655 83.2877 91.0022 83.0181C90.796 82.8056 91.053 82.9864 90.5613 83.1164L88.2358 80.6999C88.1978 80.6587 88.147 80.5984 88.0867 80.5318C88.0645 80.5065 87.8171 80.0149 87.3253 79.609L85.5456 77.4906C85.3425 77.1956 85.2918 76.8975 85.0507 76.6185C84.1116 75.5275 83.8737 75.0106 83.236 73.7992L81.6434 70.8625C81.4912 70.482 81.5737 70.6691 81.3928 70.3773C81.2247 70.1046 81.3008 70.2727 81.1834 69.9556L80.5585 68.4714C80.4094 68.2145 80.4538 68.4207 80.3364 68.0623L80.0128 67.1236C79.7812 66.724 79.87 66.5179 79.6733 66.0929C79.4259 65.5538 79.4544 65.8361 79.3847 65.1193C79.3149 64.4217 79.1689 64.5866 79.0198 64.114L78.2584 60.9776C78.0395 60.2768 78.0649 59.4681 77.8714 58.7324C77.6969 58.0727 77.3923 54.3718 77.3923 53.6297L77.3828 53.6234ZM171.694 62.3667C171.694 61.9607 171.945 61.7736 171.998 61.3011C172.144 60.0358 171.976 60.1404 172.357 59.0273C172.63 58.2313 172.465 57.3782 172.55 56.5886L172.747 50.043C172.747 49.6625 172.528 49.3961 172.535 48.5684C172.563 44.9404 172.154 45.1243 172.116 44.2491C172.056 42.9774 171.926 43.1137 171.707 42.2353C171.529 41.5122 171.589 40.8938 171.345 40.2786C171.088 39.6317 171.275 39.508 171.12 38.9213C170.967 38.3441 170.891 38.4646 170.733 37.6242C170.599 36.9075 170.425 37.5101 170.301 36.4762C170.228 35.8705 170.139 35.7595 169.921 35.2775C169.8 35.0111 169.838 34.862 169.733 34.621C169.613 34.3356 169.603 34.5227 169.464 34.1517C169.372 33.9075 169.413 33.7362 169.324 33.4476L168.861 32.3313C168.712 31.9857 168.702 32.122 168.594 31.862L167.354 29.0998C167.167 28.7827 167.243 28.8366 167.103 28.5068C166.637 27.4127 165.872 26.5184 165.457 25.4116C165.286 24.9549 165.098 24.9422 164.851 24.5426C164.838 24.5236 164.822 24.4982 164.81 24.4792L162.012 20.5341C161.269 19.6874 160.663 18.7297 159.876 17.9273L156.587 14.4738C156.469 14.3533 156.501 14.385 156.374 14.2645L155.689 13.6873C155.169 13.1894 154.632 12.5932 154.023 12.1905L149.008 8.46101C148.37 7.97897 147.65 7.68404 146.99 7.21152L145.483 6.39967C144.991 6.19354 144.534 5.8003 143.992 5.57196L142.009 4.70937C141.673 4.58886 140.921 4.12585 140.039 3.83409C139.217 3.56136 138.691 3.16812 137.764 2.94613C137.412 2.86368 137.517 2.86685 137.247 2.72414C136.737 2.45458 136.511 2.61632 135.997 2.39116C134.992 1.95352 133.494 1.66176 132.33 1.31609C131.841 1.17021 131.423 1.21778 130.969 1.0941C130.645 1.0053 130.61 0.922846 130.35 0.872106L126.949 0.374213C126.401 0.29493 125.995 0.332986 125.423 0.320301C124.789 0.304444 124.643 0.130023 124.059 0.104653L117.733 0C117.432 0 117.632 0.177592 117.001 0.215648C116.734 0.231504 116.436 0.193449 116.16 0.215648C115.655 0.256875 115.199 0.282245 114.574 0.313958C113.441 0.371041 112.661 0.631087 111.547 0.764282C111.458 0.773796 110.9 0.846735 110.725 0.891133C110.459 0.960902 110.44 1.02116 110.091 1.09727C109.561 1.21143 109.152 1.16069 108.613 1.3034L106.595 1.91863C106.392 1.99474 106.062 2.04231 105.906 2.07085C105.243 2.20088 105.164 2.41653 104.549 2.50532C103.584 2.64486 102.797 3.18081 101.957 3.39011C101.608 3.47891 101.665 3.47891 101.357 3.6343C101.021 3.80555 101.081 3.72944 100.729 3.84995C100.247 4.01486 100.472 4.03389 100.11 4.17976C99.8471 4.28442 99.7138 4.24953 99.4569 4.37004C99.1904 4.49689 99.2919 4.53495 98.9366 4.69034C98.6859 4.80134 98.559 4.81085 98.3306 4.92819L96.5889 5.71467C95.5198 6.22208 94.0446 7.16712 92.9882 7.80455L92.2395 8.32147C91.5511 8.76228 90.2599 9.56462 89.6793 10.0815C89.3462 10.3796 88.9972 10.5921 88.6483 10.8427L86.0532 12.9896C85.9675 13.0721 85.9199 13.1101 85.8311 13.1894C84.7778 14.1313 83.7912 15.2571 82.6999 16.1704C82.243 16.551 81.9226 17.0933 81.4658 17.4643C80.9963 17.848 81.0914 18.0066 80.7203 18.403C80.1492 19.0151 79.7241 19.6969 79.134 20.2931C78.7153 20.7181 78.4044 21.3523 78.0395 21.8344L77.3257 22.9126C77.2115 23.087 77.1068 23.2234 76.9767 23.4073L75.9235 24.9898C75.7553 25.2245 75.7553 25.272 75.6126 25.5226L72.9223 30.6284C72.4972 31.3958 72.1736 32.2647 71.8786 33.0607L70.3844 37.5735C70.2987 37.9096 70.2226 37.8811 70.1274 38.1602C69.9593 38.6422 70.0068 39.1972 69.8292 39.6539C69.5976 40.2405 69.5405 41.1317 69.3597 41.712C68.7886 43.5355 68.8267 46.4499 68.4777 47.7819C68.1795 48.914 68.2334 53.2524 68.3064 54.5621C68.3318 55.0188 68.3889 54.949 68.4111 55.4057L68.7252 59.3032C68.7315 60.1563 68.9028 60.077 69.0424 60.67C68.8489 60.9332 68.7696 60.9015 68.5126 61.0886C67.7195 61.6626 67.1929 62.8963 66.4886 63.5939L63.4493 66.8762C63.4335 66.8921 63.4113 66.9111 63.3954 66.927C62.3073 67.9196 61.3524 68.9376 60.0961 69.7367L59.0301 70.4598C58.9159 70.5359 58.8271 70.5835 58.7065 70.6628C57.8341 71.2399 57.0188 71.6934 55.9941 71.9535L55.423 72.2262C55.1343 72.3467 54.9979 72.3309 54.7219 72.4736C54.4237 72.6258 54.5982 72.6194 54.1445 72.74C53.4719 72.9144 53.1579 73.2061 52.8184 73.2061C52.1205 73.2061 51.9301 73.2791 51.5843 72.648C51.1719 71.8996 50.4391 71.3922 49.8268 70.8245C49.1669 70.2156 48.5102 69.6448 47.7171 69.2484C46.6067 68.6902 45.49 68.1416 44.2401 67.8784C43.7515 67.7769 43.7515 67.6627 43.393 67.5644C42.6284 67.3583 40.5663 67.6056 40.0429 67.2251C39.9033 67.1236 39.5829 66.7843 39.4877 66.6194C39.3132 66.3117 39.2561 66.0993 39.0499 65.7916C38.574 65.0813 37.7206 64.7007 37.0417 64.2187C36.6674 63.9523 36.6166 63.9967 36.2137 63.7842C35.6934 63.5115 35.0114 63.3593 34.38 63.1944L31.3186 62.6711C30.6905 62.6426 29.5991 62.633 29.0662 62.4999C28.2223 62.2905 27.3594 62.2652 26.5726 61.9385C25.31 61.4153 26.1189 59.7059 26.2617 58.8782C26.36 58.3137 26.4616 58.3328 26.5663 57.9173C26.6614 57.5336 26.6836 57.2228 26.6836 56.7725C26.6836 54.8539 26.8137 55.7387 26.3664 54.3496C26.3442 54.2767 26.2966 54.0547 26.2871 54.0103L25.8271 52.6784C25.6875 52.3105 25.4749 51.7967 25.2338 51.4796C24.7072 50.7883 24.1425 50.2777 23.3843 49.8527C22.7498 49.5007 22.9116 49.5546 22.0931 49.3517C21.4237 49.1868 21.3444 49.025 20.6655 49.1709C20.345 49.2407 20.3006 49.2756 19.9961 49.3517L17.474 50.8327C17.4042 50.9183 17.3439 51.0198 17.2995 51.08C17.0044 51.4542 16.757 51.4701 16.427 51.9997L14.8789 54.7714C14.495 55.5706 14.3808 55.8116 14.1873 56.7122C14.0636 57.2831 13.8256 57.4321 13.8256 58.0378C13.8256 59.3888 13.7336 61.0252 14.1302 62.2652L14.6536 63.8477C14.9392 64.6024 15.396 65.243 15.6974 65.9661C15.9861 66.6574 16.6269 67.1617 17.0647 67.761C17.7912 68.7505 18.743 69.6194 19.6471 70.4471C19.9104 70.6881 19.8597 70.6945 20.2562 70.7864C20.1991 71.0275 20.1737 71.0275 20.1515 71.3129C18.9206 71.3129 18.0482 71.7125 16.9473 71.9027C16.5222 71.9757 16.2875 71.9186 15.9512 72.0645C15.3008 72.3499 14.3523 72.537 13.5591 72.8351L9.68556 74.5444L5.54866 77.4684L4.17815 78.943C3.96877 79.2094 3.87677 79.3236 3.66422 79.59L1.85908 82.7359C1.56087 83.2052 1.62749 82.8944 1.4657 83.608C1.38638 83.96 1.21824 84.09 1.1199 84.5277C0.996171 85.0763 1.03424 85.0795 0.8661 85.5361C0.764581 85.812 0.691614 86.1514 0.663062 86.4939C0.60913 87.1503 0.637682 87.0425 0.444161 87.5404C0.288711 87.9336 0.269676 88.07 0.228434 88.5901C0.114225 90.0647 -0.333093 93.2202 0.463196 94.5775C0.751891 95.069 0.54568 95.069 0.732856 95.4654L1.1199 96.0268C1.13259 96.0458 1.14528 96.0775 1.15479 96.0965C1.30707 96.3566 1.18017 96.1536 1.27852 96.2868L1.67508 96.734C1.86543 96.9306 2.00184 97.0765 2.19854 97.2636C2.34447 97.4031 2.32543 97.3809 2.4904 97.4982L3.4929 98.0786C3.45166 98.5733 3.28352 98.5987 3.28352 99.1315V103.346C3.28352 104.018 3.55001 104.339 3.64835 104.982C3.87677 106.492 3.88312 105.861 4.07981 106.552C4.2194 107.047 3.98781 106.993 4.26381 107.421C4.56202 107.884 4.40657 107.367 4.57789 108.055C4.80313 108.959 5.50425 109.752 6.01184 110.52C6.31005 110.97 7.77573 112.191 8.17229 112.362C9.64749 112.996 9.8886 112.825 11.6081 112.825C12.3314 112.825 13.3783 111.839 13.8288 111.357C14.1746 110.986 14.4411 110.085 14.771 110.085C15.1676 110.085 15.0407 110.339 15.12 110.684C15.212 111.075 15.507 111.439 15.7101 111.782C16.4429 113.019 17.5913 113.862 18.8127 114.579L19.1363 114.782C19.4663 114.997 20.8685 115.438 21.3 115.464C22.2707 115.518 23.8284 115.692 24.8277 115.397C25.2687 115.267 25.1101 115.175 25.5511 115.067C26.3696 114.864 26.5536 114.703 27.2642 114.252C28.7204 113.329 28.4729 113.444 29.4849 112.575L34.618 106.016C35.5856 104.272 36.5817 102.541 37.3082 100.701C37.4573 100.324 37.3209 100.676 37.4986 100.365L37.7587 99.6769C38.1711 98.6811 38.3393 98.5638 39.3608 99.0902C39.7225 99.2742 41.5847 99.6579 41.9527 99.6579H45.0078C45.3409 99.6579 45.3314 99.5754 45.5566 99.4708C46.2355 99.1568 46.8129 99.2869 48.1771 98.4021C48.4055 98.253 48.3865 98.2879 48.6149 98.104L52.59 93.9686C52.7962 93.6546 52.9485 93.3502 53.1071 93.0109L53.5354 92.2783C53.6496 92.1007 53.5608 92.2593 53.6655 92.0944C53.951 91.6472 54.3126 90.4802 54.4776 89.9537L54.8583 88.8565C54.9408 88.6281 55.0169 88.5584 55.0709 88.3427C55.1248 88.1176 55.0804 88.0795 55.1026 87.8258C55.147 87.2772 55.3374 87.0901 55.3374 86.7032V85.7549C57.888 85.5425 57.4629 85.1619 58.3353 85.1524C58.8461 85.1461 59.1602 84.8828 59.7058 84.7465C60.1658 84.6323 60.0389 84.6957 60.4355 84.5277L61.7045 84.0076C62.2343 83.7317 62.0852 83.9092 62.339 83.7983C62.3612 83.7887 62.3866 83.7729 62.4088 83.7634L63.0052 83.4114C63.4145 83.2623 63.7952 82.9706 64.1156 82.7295L67.821 80.0054C68.5412 79.4504 68.9694 78.7337 69.6388 78.1375C70.0005 77.8172 70.1782 77.4462 70.4986 77.1005C72.015 75.4736 71.6692 75.5719 72.2339 74.9377L72.6051 74.4683C72.6209 74.4525 72.6432 74.4303 72.659 74.4144L72.935 74.1639C73.211 74.3668 73.4299 74.7347 73.5854 75.0962L74.3975 76.7072C74.5308 77.2051 74.3024 76.796 74.5879 77.2527L75.1621 78.258C75.4413 78.9145 76.0218 79.4472 76.374 80.2052C76.5421 80.5667 76.7103 80.6365 76.907 80.9346L78.6708 83.386C78.6835 83.405 78.7026 83.4272 78.7153 83.4462C79.1594 84.0615 79.5084 84.737 80.0762 85.2444C80.6251 85.7359 80.9772 86.4399 81.4975 86.9854L82.6555 88.1461C82.8363 88.3522 82.8109 88.3808 82.9759 88.5615L85.6217 91.0796C86.4244 91.9073 87.4935 92.6081 88.4008 93.3565C88.7149 93.6134 88.9814 93.7878 89.2923 94.0479C89.7586 94.4348 90.2662 94.6314 90.704 95.0595C91.1482 95.494 92.0428 95.9538 92.6107 96.3154C94.1906 97.327 94.5237 97.0289 94.2064 98.1547L92.9057 101.494C92.7915 101.906 92.9343 101.808 92.7344 102.166C92.5916 102.426 92.6234 102.157 92.452 102.623L91.7636 104.358C91.6462 104.615 91.6431 104.577 91.5511 104.881C91.4432 105.243 91.5098 105.189 91.3322 105.506L89.9743 108.89C89.711 109.34 89.4985 110.06 89.3462 110.58C89.2003 111.084 89.0416 111.059 88.8767 111.683C88.772 112.083 88.7688 111.988 88.6197 112.276C88.4928 112.521 88.4991 112.559 88.4357 112.828C88.2961 113.437 87.8805 113.913 87.6743 114.49C87.5982 114.699 87.614 114.848 87.5315 115.086L87.0779 116.212C86.9415 116.678 86.5259 117.252 86.2213 118.518C86.0373 119.279 85.571 119.869 85.3013 120.652C85.1332 121.134 84.9999 121.334 84.8635 121.797L84.2195 123.366C84.2068 123.386 84.1846 123.408 84.1751 123.427C84.1624 123.446 84.1433 123.471 84.1338 123.49C84.0038 123.718 84.0355 123.791 83.9371 124.032C83.8229 124.308 83.7785 124.267 83.6802 124.616L83.2328 125.751C83.1282 126.015 83.1789 126.065 83.0742 126.332C82.9346 126.687 82.9315 126.462 82.7982 126.899C82.7157 127.166 82.7506 127.242 82.6523 127.492L81.9131 129.072C81.8465 129.24 81.8211 129.481 81.7513 129.649C81.5895 130.052 81.6054 129.734 81.4785 130.22C81.3325 130.778 81.2057 130.876 81.028 131.352L80.0762 133.984C79.8637 134.821 79.4132 134.809 79.1309 136.515C78.9024 137.894 78.5217 137.596 79.096 140.155C79.3244 141.176 79.667 141.855 80.2603 142.68L80.3935 142.86C80.4062 142.879 80.4221 142.905 80.4347 142.924L80.9709 143.653L84.2671 145.73C85.2315 146.041 86.2721 146.003 87.2587 146.003L89.0385 145.677L91.0784 144.662C91.8778 144.056 92.506 143.27 93.1246 142.493C93.1373 142.477 93.1595 142.454 93.1754 142.435L93.9272 140.552C94.0383 140.155 94.1112 140.241 94.2794 139.851C94.3492 139.686 94.365 139.581 94.4158 139.461L94.7584 138.855C94.9646 138.338 95.1581 137.441 95.4246 136.994C95.6309 136.651 95.5738 136.594 95.707 136.223L96.4716 134.46C96.5318 134.282 96.5255 134.219 96.5858 134.047C96.738 133.641 96.7285 133.86 96.8776 133.391L97.7469 131.203C97.8484 130.965 97.8674 130.727 97.9658 130.473L98.5686 129.075C98.7018 128.758 98.6637 128.593 98.8446 128.298C99.0508 127.965 99.0444 128.184 99.1682 127.673L99.6884 126.192C99.8122 125.862 99.8851 125.865 100.031 125.479L100.345 124.74C100.447 124.467 100.45 124.242 100.599 123.937C100.773 123.576 100.77 123.75 100.872 123.265C101.04 122.469 101.478 121.939 101.744 121.08L102.258 119.593C102.401 119.25 102.452 119.399 102.607 118.993L103.096 117.481C103.216 117.119 103.28 117.151 103.451 116.78L104.038 115.365C104.181 114.982 104.33 114.214 104.539 113.865C104.78 113.463 104.739 113.843 104.91 113.183C105.047 112.657 105.215 112.137 105.412 111.68L105.868 110.558C106.16 110.015 106.106 109.933 106.281 109.495C106.382 109.238 106.271 109.498 106.398 109.299L106.614 108.88C106.776 108.373 106.725 108.541 106.918 108.132C107.252 107.428 107.363 106.673 107.708 105.972L108.87 103.13C109.199 103.207 109.479 103.219 109.866 103.292C110.415 103.394 110.281 103.451 110.678 103.533C111.338 103.673 112.023 103.603 112.642 103.781C113.314 103.971 113.619 104.088 114.558 104.079C115.954 104.066 116.445 104.253 117.629 104.38C117.943 104.415 118.346 104.393 118.669 104.393C119.408 104.389 120.145 104.393 120.884 104.393L124.05 104.399C124.573 104.364 124.354 104.298 124.884 104.18C125.471 104.05 126.252 104.142 126.968 104.05L130.712 103.368C131.289 103.146 131.997 103.267 132.609 103.054L134.287 102.522C134.776 102.293 135.607 102.322 136.077 102.097C136.521 101.884 136.448 101.96 136.962 101.824C137.498 101.684 139.341 100.781 140.16 100.597C140.347 100.555 140.385 100.568 140.572 100.482L141.356 100.108C142.05 99.8387 142.472 99.42 143.215 99.2266L145.366 98.1103C145.677 97.8915 145.816 97.9391 146.146 97.7298L148.157 96.4771C148.176 96.4644 148.199 96.4422 148.214 96.4295L149.173 95.8079C149.293 95.7223 149.372 95.6906 149.496 95.605L151.669 94.0923C151.695 94.0732 151.768 94.0225 151.793 94.0035C151.964 93.8798 151.933 93.9115 152.098 93.7815L152.932 93.1409C152.948 93.1282 152.973 93.1092 152.992 93.0965C153.008 93.0838 153.033 93.0648 153.053 93.0489L156.279 90.163C156.434 89.9981 156.39 90.0552 156.555 89.9125C156.656 89.8237 156.647 89.8332 156.723 89.7635C157.154 89.3702 157.484 88.904 157.948 88.5647C158.509 88.1556 158.173 88.4474 158.481 87.94C158.665 87.6355 159.007 87.4896 159.283 87.2676C159.299 87.255 159.324 87.2328 159.34 87.2201L159.74 86.7761C159.829 86.6556 159.712 86.5287 160.191 86.4875C160.235 85.9642 160.305 86.2306 160.533 85.7771C161.126 84.6006 160.977 85.4188 161.726 84.3374L162.554 83.0562C163.239 82.1524 163.978 81.3722 164.502 80.3701C164.569 80.2401 164.6 80.1449 164.673 80.0149L166.437 77.0371C166.688 76.6375 166.482 76.8912 166.935 76.5867C167.084 76.8087 167.091 76.739 167.189 76.8595C167.332 77.0371 167.256 76.8848 167.341 77.1259C167.687 78.0772 167.519 77.4493 167.82 78.017C167.979 78.3119 167.988 78.4546 168.252 78.7464C168.718 79.2697 168.886 79.9673 169.445 80.3986C169.464 80.4113 169.489 80.4272 169.508 80.4399C169.667 80.5762 169.587 80.4874 169.692 80.6777C170.009 81.239 170.285 81.7813 170.825 82.1777L171.605 83.0816C172.328 83.83 173.112 84.4611 173.965 85.0414C173.984 85.0541 174.01 85.0731 174.029 85.0858L177.233 87.255C177.48 87.4294 177.592 87.3786 177.858 87.4738C178.432 87.6736 177.868 87.737 178.705 87.8924C178.838 87.9178 178.892 87.9082 179.057 87.9622C179.422 88.0827 179.086 87.9622 179.34 88.1017C179.742 88.3269 179.993 88.2571 180.421 88.3427C180.437 88.3459 180.469 88.3522 180.485 88.3586C180.783 88.4505 180.586 88.5362 181.1 88.6599C181.405 88.736 181.576 88.7106 181.814 88.7899C182.801 89.1165 182.344 90.7624 182.455 91.625L183.042 94.4094C183.156 94.6409 183.511 95.8397 184.003 96.8196C184.117 97.0511 184.13 97.1906 184.238 97.4253C184.339 97.641 184.403 97.6822 184.568 97.939C185.05 98.6907 185.32 99.3471 185.957 100.026C186.059 100.134 186.145 100.2 186.17 100.232C186.294 100.375 186.243 100.311 186.338 100.486C186.585 100.949 186.779 100.977 187.144 101.367C187.236 101.466 187.252 101.494 187.341 101.589L188.457 102.579C188.943 102.981 189.523 103.222 190.056 103.508C190.935 103.98 192.505 104.288 193.489 104.288C194.425 104.288 195.395 104.117 196.23 104.079C197.248 104.031 197.55 103.774 198.124 103.762C198.178 103.993 198.225 104.418 198.308 104.634C198.444 104.986 198.53 104.891 198.625 105.369C198.777 106.137 199.012 107.015 199.336 107.716L201.452 112.765C201.572 112.942 201.483 112.733 201.661 113.082C202.27 114.281 202.924 115.514 203.695 116.634L207.108 120.385C207.419 120.699 207.609 120.715 207.93 120.934L208.996 121.553C209.189 121.629 209.192 121.606 209.383 121.692L212.143 122.409C213.789 122.409 215.173 121.905 216.54 121.223C216.8 121.093 216.768 121.137 217.035 120.979C217.403 120.757 217.634 120.541 217.939 120.303C218.091 120.186 218.694 119.704 218.799 119.58L219.763 118.121C219.858 117.915 219.893 117.779 219.944 117.563C220.268 117.649 220.35 117.747 220.509 118.051C220.823 118.648 220.943 119.104 221.403 119.58C221.835 120.021 222.342 120.598 223.009 120.712C225.375 121.124 223.818 121.08 225.873 120.757C227.393 120.515 228.985 118.901 229.817 117.744L231.701 114.043C231.828 113.545 231.799 113.409 231.993 112.965L232.497 110.729C232.669 109.984 232.589 108.886 232.586 108.078C232.583 107.475 232.685 107.275 232.694 106.816C233.801 106.724 234.48 105.988 235.105 105.328L235.207 105.22C235.289 105.128 235.311 105.097 235.394 104.986L236.622 101.789C236.92 100.137 237.12 100.873 236.913 98.383C236.872 97.8661 236.917 97.2287 236.913 96.6991C236.904 95.6843 236.555 95.0024 236.492 93.9591C236.453 93.3217 236.066 91.8692 235.854 91.4347L235.162 89.7032C235.048 89.459 235.029 89.5478 234.88 89.2497L234.303 88.2476C234.02 87.6228 233.906 87.7529 233.582 87.2835L233.046 86.5573C232.199 85.3617 231.777 85.2951 231.339 84.7877L230.483 84.0646C230.312 83.9283 230.442 84.0171 230.27 83.8553C229.721 83.3289 228.11 82.2538 227.482 81.9018L226.66 81.461C226.381 81.3278 226.416 81.2993 226.127 81.1534L224.538 80.4272C223.897 80.0656 222.374 79.5043 221.657 79.3014C221.318 79.2062 221.425 79.1935 221.169 79.054L218.681 78.3785L221.832 75.943C222.675 75.1375 223.503 74.3319 224.205 73.3647L225.423 71.4207C225.784 70.7896 226.4 69.4101 226.467 68.7758L226.796 66.6828C226.796 65.5348 226.53 65.0845 226.482 64.2567C226.435 63.3878 226.241 63.3815 226.035 62.5982C225.946 62.262 225.937 62.151 225.781 61.799C225.645 61.4945 225.623 61.3392 225.489 61.0347L224.734 59.6837C224.176 58.4818 222.701 57.1055 221.454 56.6425C220.734 56.3761 219.078 56.3666 218.339 56.7535C217.203 57.3497 217.78 57.0199 216.718 57.7683C215.687 58.4977 215.207 59.7947 214.649 60.8635C214.427 61.2852 214.046 62.9819 214.062 63.4068C214.072 63.6225 214.161 65.1257 214.224 65.3445C214.446 66.1024 214.747 67.5105 214.132 68.1416C213.777 68.5063 212.822 68.7822 212.257 68.7949C210.277 68.8361 207.955 68.6141 206.122 68.8773C205.306 68.9947 204.818 69.112 203.939 69.2262L202.207 70.0222L199.942 72.1818C199.796 72.3182 199.878 72.3753 199.608 72.3753C198.425 72.3753 196.388 72.1533 195.224 72.4165C194.831 72.5053 194.824 72.6099 194.431 72.6765C193.225 72.8858 193.533 72.9493 192.813 73.1681C192.324 73.3171 191.909 73.3774 191.411 73.6628C191.392 73.6755 191.363 73.6913 191.344 73.704C191.068 73.8911 191.325 73.8277 191.005 73.9958L190.285 74.3288C189.859 74.6554 190.611 74.1036 190.167 74.4207C189.298 75.0423 188.429 75.6861 187.686 76.4694C187.461 76.7072 187.274 76.7421 187.176 77.0117C186.589 77.0117 186.817 77.0275 186.411 76.8278L184.466 75.9271C184.19 75.7717 184.12 75.7241 183.876 75.5687C183.587 75.3848 183.521 75.426 183.226 75.2707L180.555 73.6216L176.916 69.8858C176.821 69.7811 176.811 69.7685 176.713 69.667L172.471 63.5844C172.332 63.3276 172.274 63.2292 172.056 63.0517C171.783 62.8297 171.681 62.7662 171.681 62.373L171.694 62.3667Z" fill="#D2B6B6"/>
</svg>
