<svg width="11" height="11" viewBox="0 0 11 11" fill="none" xmlns="http://www.w3.org/2000/svg">
<path d="M9.48288 4.97498L8.91621 4.31665C8.80788 4.19165 8.72038 3.95832 8.72038 3.79165V3.08332C8.72038 2.64165 8.35788 2.27915 7.91621 2.27915H7.20788C7.04538 2.27915 6.80788 2.19165 6.68288 2.08332L6.02454 1.51665C5.73704 1.27082 5.26621 1.27082 4.97454 1.51665L4.32038 2.08748C4.19538 2.19165 3.95788 2.27915 3.79538 2.27915H3.07454C2.63288 2.27915 2.27038 2.64165 2.27038 3.08332V3.79582C2.27038 3.95832 2.18288 4.19165 2.07871 4.31665L1.51621 4.97915C1.27454 5.26665 1.27454 5.73332 1.51621 6.02082L2.07871 6.68332C2.18288 6.80832 2.27038 7.04165 2.27038 7.20415V7.91665C2.27038 8.35832 2.63288 8.72082 3.07454 8.72082H3.79538C3.95788 8.72082 4.19538 8.80832 4.32038 8.91665L4.97871 9.48332C5.26621 9.72915 5.73704 9.72915 6.02871 9.48332L6.68704 8.91665C6.81204 8.80832 7.04538 8.72082 7.21204 8.72082H7.92038C8.36204 8.72082 8.72455 8.35832 8.72455 7.91665V7.20832C8.72455 7.04582 8.81204 6.80832 8.92038 6.68332L9.48705 6.02498C9.72871 5.73748 9.72871 5.26248 9.48288 4.97498ZM7.23288 4.71248L5.22038 6.72498C5.16204 6.78332 5.08288 6.81665 4.99954 6.81665C4.91621 6.81665 4.83704 6.78332 4.77871 6.72498L3.77038 5.71665C3.64954 5.59582 3.64954 5.39582 3.77038 5.27498C3.89121 5.15415 4.09121 5.15415 4.21204 5.27498L4.99954 6.06248L6.79121 4.27082C6.91204 4.14998 7.11204 4.14998 7.23288 4.27082C7.35371 4.39165 7.35371 4.59165 7.23288 4.71248Z" fill="#DDBC38"/>
</svg>
