<svg width="25" height="24" viewBox="0 0 25 24" fill="none" xmlns="http://www.w3.org/2000/svg">
<path d="M13.38 20.8601H7.31C3.76 20.8601 2.5 18.3701 2.5 16.0501V7.95014C2.5 4.49014 3.85 3.14014 7.31 3.14014H13.38C16.84 3.14014 18.19 4.49014 18.19 7.95014V16.0501C18.19 19.5101 16.84 20.8601 13.38 20.8601ZM7.31 4.66014C4.7 4.66014 4.02 5.34014 4.02 7.95014V16.0501C4.02 17.2801 4.45 19.3401 7.31 19.3401H13.38C15.99 19.3401 16.67 18.6601 16.67 16.0501V7.95014C16.67 5.34014 15.99 4.66014 13.38 4.66014H7.31Z" fill="#D2B6B6"/>
<path d="M21.2799 18.11C20.8499 18.11 20.2999 17.97 19.6699 17.53L16.9999 15.66C16.7999 15.52 16.6799 15.29 16.6799 15.04V8.95999C16.6799 8.70999 16.7999 8.48 16.9999 8.33999L19.6699 6.46999C20.8599 5.63999 21.7299 5.87999 22.1399 6.08999C22.5499 6.30999 23.2499 6.87999 23.2499 8.32999V15.66C23.2499 17.11 22.5499 17.69 22.1399 17.9C21.9499 18.01 21.6499 18.11 21.2799 18.11ZM18.1899 14.64L20.5399 16.28C20.9899 16.59 21.3099 16.62 21.4399 16.55C21.5799 16.48 21.7299 16.2 21.7299 15.66V8.33999C21.7299 7.78999 21.5699 7.51999 21.4399 7.44999C21.3099 7.37999 20.9899 7.40999 20.5399 7.71999L18.1899 9.35999V14.64Z" fill="#D2B6B6"/>
<path d="M12 11.75C10.76 11.75 9.75 10.74 9.75 9.5C9.75 8.26 10.76 7.25 12 7.25C13.24 7.25 14.25 8.26 14.25 9.5C14.25 10.74 13.24 11.75 12 11.75ZM12 8.75C11.59 8.75 11.25 9.09 11.25 9.5C11.25 9.91 11.59 10.25 12 10.25C12.41 10.25 12.75 9.91 12.75 9.5C12.75 9.09 12.41 8.75 12 8.75Z" fill="#D2B6B6"/>
</svg>
