<svg width="31" height="30" viewBox="0 0 31 30" fill="none" xmlns="http://www.w3.org/2000/svg">
<path d="M18.625 20.9375H12.375C11.8625 20.9375 11.4375 20.5125 11.4375 20C11.4375 19.4875 11.8625 19.0625 12.375 19.0625H18.625C19.1375 19.0625 19.5625 19.4875 19.5625 20C19.5625 20.5125 19.1375 20.9375 18.625 20.9375Z" fill="#E9CB50"/>
<path d="M7.00011 13.075C6.76261 13.075 6.52511 12.975 6.33761 12.8C6.07511 12.5375 5.98761 12.125 6.13761 11.775L8.46261 6.22497C8.51261 6.11247 8.53761 6.03747 8.57511 5.97497C10.4251 1.71247 12.7876 0.674968 16.9626 2.27497C17.2001 2.36247 17.3876 2.54997 17.4876 2.78747C17.5876 3.02497 17.5876 3.28747 17.4876 3.52497L13.8251 12.025C13.6751 12.3625 13.3376 12.5875 12.9626 12.5875H9.40011C8.68761 12.5875 8.01261 12.725 7.36261 13C7.25011 13.05 7.12511 13.075 7.00011 13.075ZM13.7626 3.43747C12.2126 3.43747 11.2626 4.44997 10.2751 6.74997C10.2626 6.78747 10.2376 6.82497 10.2251 6.86247L8.58761 10.75C8.86261 10.725 9.12511 10.7125 9.40011 10.7125H12.3376L15.3501 3.71247C14.7626 3.52497 14.2376 3.43747 13.7626 3.43747Z" fill="#E9CB50"/>
<path d="M23.3623 12.8375C23.2748 12.8375 23.1748 12.825 23.0873 12.8C22.6248 12.6625 22.1123 12.5875 21.5873 12.5875H12.9623C12.6498 12.5875 12.3498 12.425 12.1748 12.1625C12.0123 11.9 11.9748 11.5625 12.0998 11.275L15.7248 2.86253C15.9123 2.41253 16.4498 2.11253 16.9248 2.26253C17.0748 2.31253 17.2123 2.37503 17.3623 2.43753L20.3123 3.67503C22.0373 4.38753 23.1873 5.13753 23.9373 6.03753C24.0873 6.21253 24.2123 6.40003 24.3248 6.58753C24.4623 6.80003 24.5873 7.06253 24.6748 7.32503C24.7123 7.41253 24.7748 7.57503 24.8123 7.75003C25.1623 8.92503 24.9873 10.3875 24.2373 12.2625C24.0873 12.6125 23.7373 12.8375 23.3623 12.8375ZM14.3873 10.7125H21.5998C21.9998 10.7125 22.3873 10.75 22.7748 10.8125C23.1248 9.72503 23.1998 8.88753 22.9998 8.21253C22.9748 8.10003 22.9498 8.05003 22.9373 8.00003C22.8623 7.80003 22.8123 7.68753 22.7498 7.58753C22.6623 7.45003 22.5998 7.33753 22.4998 7.22503C21.9623 6.57503 21.0123 5.97503 19.5998 5.40003L17.1248 4.36253L14.3873 10.7125Z" fill="#E9CB50"/>
<path d="M20.375 28.4375H10.625C10.275 28.4375 9.95 28.4125 9.625 28.375C5.2375 28.075 2.7375 25.575 2.4375 21.1375C2.4 20.8625 2.375 20.525 2.375 20.1875V17.75C2.375 14.9375 4.05 12.4 6.6375 11.275C7.5125 10.9 8.45 10.7125 9.4125 10.7125H21.6125C22.325 10.7125 23.0125 10.8125 23.65 11.0125C26.5875 11.9 28.65 14.675 28.65 17.75V20.1875C28.65 20.4625 28.6375 20.725 28.625 20.975C28.35 25.8625 25.5 28.4375 20.375 28.4375ZM9.4 12.5875C8.6875 12.5875 8.0125 12.725 7.3625 13C5.4625 13.825 4.2375 15.6875 4.2375 17.75V20.1875C4.2375 20.45 4.2625 20.7125 4.2875 20.9625C4.525 24.525 6.275 26.275 9.7875 26.5125C10.1 26.55 10.35 26.575 10.6125 26.575H20.3625C24.4875 26.575 26.5125 24.7625 26.7125 20.8875C26.725 20.6625 26.7375 20.4375 26.7375 20.1875V17.75C26.7375 15.4875 25.225 13.4625 23.075 12.8C22.6125 12.6625 22.1 12.5875 21.575 12.5875H9.4Z" fill="#E9CB50"/>
<path d="M3.30078 18.6875C2.78828 18.6875 2.36328 18.2625 2.36328 17.75V14.0875C2.36328 10.15 5.15078 6.75 9.00078 6C9.33828 5.9375 9.68828 6.0625 9.91328 6.325C10.1258 6.5875 10.1883 6.9625 10.0508 7.275L7.86328 12.5C7.76328 12.725 7.58828 12.9 7.37578 13C5.47578 13.825 4.25078 15.6875 4.25078 17.75C4.23828 18.2625 3.82578 18.6875 3.30078 18.6875ZM7.50078 8.525C5.90078 9.425 4.73828 11 4.37578 12.8375C4.92578 12.275 5.56328 11.8 6.28828 11.45L7.50078 8.525Z" fill="#E9CB50"/>
<path d="M27.7004 18.6875C27.1879 18.6875 26.7629 18.2625 26.7629 17.75C26.7629 15.4875 25.2504 13.4625 23.1004 12.8C22.8504 12.725 22.6379 12.55 22.5254 12.3125C22.4129 12.075 22.4004 11.8 22.5004 11.5625C23.0879 10.1 23.2379 9.03753 23.0004 8.21253C22.9754 8.10003 22.9504 8.05003 22.9379 8.00003C22.7754 7.63753 22.8629 7.21253 23.1504 6.93753C23.4379 6.66253 23.8754 6.60003 24.2254 6.78753C26.9504 8.21253 28.6379 11.0125 28.6379 14.0875V17.75C28.6379 18.2625 28.2129 18.6875 27.7004 18.6875ZM24.5629 11.3625C25.3504 11.725 26.0504 12.2375 26.6379 12.85C26.4004 11.625 25.8129 10.5125 24.9504 9.63753C24.8879 10.1625 24.7629 10.7375 24.5629 11.3625Z" fill="#E9CB50"/>
</svg>
