<svg width="15" height="14" viewBox="0 0 15 14" fill="none" xmlns="http://www.w3.org/2000/svg">
<path d="M1.42822 13.2707C1.31156 13.2707 1.2007 13.224 1.11904 13.1423C1.0082 13.0315 0.961567 12.8681 1.0024 12.7165L1.73741 9.96898C1.24741 9.05898 0.990722 8.03231 0.990722 6.99398C0.990722 3.53481 3.80239 0.723145 7.26156 0.723145C10.7207 0.723145 13.5324 3.53481 13.5324 6.99398C13.5324 10.4531 10.7207 13.2648 7.26156 13.2648C6.20572 13.2648 5.17324 13.0023 4.25157 12.5006L1.5449 13.2532C1.50406 13.2648 1.46906 13.2707 1.42822 13.2707ZM4.30989 11.5965C4.38572 11.5965 4.46156 11.6198 4.53156 11.6548C5.35406 12.139 6.29906 12.3957 7.26156 12.3957C10.2366 12.3957 12.6574 9.97482 12.6574 6.99982C12.6574 4.02482 10.2366 1.60398 7.26156 1.60398C4.28656 1.60398 1.86572 4.02482 1.86572 6.99982C1.86572 7.95065 2.11655 8.87815 2.58905 9.69481C2.64738 9.79398 2.66489 9.91649 2.63573 10.0273L2.05239 12.209L4.19906 11.614C4.23406 11.6023 4.27489 11.5965 4.30989 11.5965Z" fill="white"/>
<path d="M8.8597 10.3598C8.49803 10.3598 8.12471 10.2782 7.73387 10.109C7.36637 9.9515 6.99887 9.74151 6.64304 9.47901C6.29304 9.22234 5.94889 8.93067 5.63389 8.61567C5.31889 8.29483 5.02719 7.95651 4.77053 7.60651C4.50803 7.23901 4.29802 6.87734 4.14636 6.5215C3.98302 6.1365 3.90137 5.75734 3.90137 5.39567C3.90137 5.13901 3.94802 4.89401 4.03552 4.66651C4.12886 4.42734 4.28053 4.2115 4.47886 4.02484C4.85219 3.65734 5.38888 3.52318 5.81472 3.72735C5.96055 3.79152 6.08305 3.89652 6.17638 4.03652L6.85303 4.98733C6.92303 5.08067 6.97555 5.17983 7.01638 5.279C7.06305 5.39567 7.09222 5.51235 7.09222 5.62318C7.09222 5.77485 7.05137 5.92652 6.96971 6.06068C6.91721 6.14818 6.84136 6.25318 6.7422 6.35235L6.66636 6.43401C6.70136 6.48067 6.74219 6.539 6.80636 6.609C6.92886 6.749 7.06302 6.90067 7.20886 7.0465C7.35469 7.1865 7.50052 7.3265 7.64636 7.449C7.71636 7.50733 7.77472 7.55401 7.82139 7.58317L7.90303 7.5015C8.00803 7.3965 8.11305 7.31485 8.21805 7.26235C8.41055 7.13985 8.70804 7.11068 8.97054 7.22151C9.06387 7.25651 9.1572 7.309 9.25636 7.379L10.2306 8.06733C10.3647 8.16067 10.4697 8.289 10.5397 8.43484C10.598 8.58067 10.6214 8.70901 10.6214 8.84318C10.6214 9.01818 10.5805 9.18734 10.5047 9.35067C10.4289 9.50234 10.3414 9.63651 10.2364 9.75901C10.0497 9.96318 9.83388 10.1148 9.60055 10.214C9.36721 10.3132 9.11637 10.3598 8.8597 10.3598ZM5.38886 4.51484C5.35386 4.51484 5.23722 4.51484 5.09139 4.66067C4.98056 4.76567 4.9047 4.87651 4.8522 4.99901C4.7997 5.12151 4.77637 5.26151 4.77637 5.40151C4.77637 5.64651 4.83469 5.909 4.95136 6.189C5.07386 6.48067 5.25471 6.78985 5.47637 7.09902C5.70387 7.40818 5.96055 7.71734 6.24638 8.00318C6.53221 8.28318 6.83554 8.54567 7.15054 8.779C7.45387 9.00067 7.76305 9.17567 8.07222 9.30984C8.51555 9.50234 8.92386 9.54901 9.25636 9.40901C9.37303 9.36234 9.47803 9.28068 9.58303 9.17568C9.63553 9.11735 9.67638 9.059 9.71138 8.98317C9.72888 8.94234 9.74054 8.89567 9.74054 8.85484C9.74054 8.84317 9.74052 8.82568 9.72302 8.79068L8.74887 8.11401C8.70803 8.08484 8.66719 8.0615 8.63219 8.04983C8.60886 8.0615 8.57388 8.079 8.50972 8.14317L8.28805 8.36484C8.11888 8.53401 7.85055 8.58067 7.63472 8.50483L7.52972 8.45817C7.39555 8.38817 7.24387 8.28318 7.0747 8.13735C6.91137 7.99735 6.75389 7.8515 6.58472 7.68817C6.42139 7.519 6.27554 7.36151 6.13554 7.19817C5.98388 7.01734 5.87888 6.87151 5.80888 6.74901L5.74472 6.59734C5.72722 6.53901 5.72136 6.47484 5.72136 6.41651C5.72136 6.25317 5.77972 6.10733 5.89055 5.99067L6.11222 5.76318C6.17639 5.69901 6.19971 5.66402 6.21138 5.64068C6.19388 5.59985 6.17055 5.56484 6.14138 5.52401L5.45886 4.56151L5.38886 4.51484Z" fill="white"/>
</svg>
